<svg xmlns="http://www.w3.org/2000/svg" xmlns:xlink="http://www.w3.org/1999/xlink" viewBox="0 0 29 28"><defs><path id="a" d="M-42-438c8 0 14.5 6.3 14.5 14S-34-410-42-410s-14.5-6.3-14.5-14 6.5-14 14.5-14zm0 26.2c7 0 12.7-5.5 12.7-12.2S-35-436.2-42-436.2s-12.7 5.5-12.7 12.2 5.7 12.2 12.7 12.2zm.2-12l4.1 4c.3.3.4.8.1 1.2-.2.2-.4.3-.6.3-.2 0-.4-.1-.6-.2l-4.4-4.2c-.1-.1-.2-.3-.2-.4v-.1-6c0-.4.3-.8.8-.9.5 0 .9.3.9.8v5.5z"/></defs><clipPath id="b"><use xlink:href="#a" overflow="visible"/></clipPath><g clip-path="url(#b)"><defs><path id="c" d="M-705.5-1576h1440v3180h-1440z"/></defs><clipPath id="d"><use xlink:href="#c" overflow="visible"/></clipPath><path clip-path="url(#d)" fill="#006fcf" d="M-61.5-443h39v38h-39z"/></g><g><defs><path id="e" d="M14.5 0C22.5 0 29 6.3 29 14s-6.5 14-14.5 14S0 21.7 0 14 6.5 0 14.5 0zm0 26.2c7 0 12.7-5.5 12.7-12.2S21.5 1.8 14.5 1.8 1.8 7.2 1.8 14s5.7 12.2 12.7 12.2zm.2-12l4.1 4c.3.3.4.8.1 1.2-.2.2-.4.3-.6.3-.2 0-.4-.1-.6-.2l-4.4-4.2c-.1-.1-.2-.3-.2-.4v-.1V8.6c0-.4.3-.8.8-.9.5 0 .9.3.9.8v5.7z"/></defs><clipPath id="f"><use xlink:href="#e" overflow="visible"/></clipPath><path clip-path="url(#f)" fill="#006fcf" d="M-5-5h39v38H-5z"/></g></svg>