<svg xmlns="http://www.w3.org/2000/svg" xmlns:xlink="http://www.w3.org/1999/xlink" viewBox="0 0 45.9 52.8"><defs><path id="a" d="M-243.1-601.6c-1.2 0-2.2 1-2.2 2.2 0 1.2 1 2.1 2.2 2.2 1.2 0 2.2-1 2.2-2.2 0-1.2-1-2.2-2.2-2.2"/></defs><clipPath id="b"><use xlink:href="#a" overflow="visible"/></clipPath><g clip-path="url(#b)"><defs><path id="c" d="M-695.9-1484.1h1440v3021h-1440z"/></defs><clipPath id="d"><use xlink:href="#c" overflow="visible"/></clipPath><path clip-path="url(#d)" fill="#0c0b68" d="M-250.3-606.6h14.3v14.3h-14.3z"/></g><defs><path id="e" d="M-269-601.6c-1.2 0-2.2 1-2.2 2.2 0 1.2 1 2.1 2.2 2.2 1.2 0 2.2-1 2.2-2.2-.1-1.2-1-2.2-2.2-2.2"/></defs><clipPath id="f"><use xlink:href="#e" overflow="visible"/></clipPath><g clip-path="url(#f)"><defs><path id="g" d="M-695.9-1484.1h1440v3021h-1440z"/></defs><clipPath id="h"><use xlink:href="#g" overflow="visible"/></clipPath><path clip-path="url(#h)" fill="#0c0b68" d="M-276.2-606.6h14.3v14.3h-14.3z"/></g><defs><path id="i" d="M-278.9-635.8h45.9v52.8h-45.9z"/></defs><clipPath id="j"><use xlink:href="#i" overflow="visible"/></clipPath><g clip-path="url(#j)"><defs><path id="k" d="M-695.9-1484.1h1440v3021h-1440z"/></defs><clipPath id="l"><use xlink:href="#k" overflow="visible"/></clipPath><g clip-path="url(#l)"><defs><path id="m" d="M-278.9-636.1h46v54h-46z"/></defs><clipPath id="n"><use xlink:href="#m" overflow="visible"/></clipPath><g clip-path="url(#n)"><defs><path id="o" d="M-238.3-635.8h-35.3c-2.9 0-5.3 2.4-5.3 5.3v35.9c0 2.2 1.3 4.1 3.3 4.9l.2.2v2c0 2.5 2.2 4.5 4.9 4.5s4.9-2 4.9-4.5v-1.8h19.4v1.8c0 2.5 2.2 4.5 4.9 4.5s4.9-2 4.9-4.5v-2l.2-.2c.8-.3 1.5-.8 2-1.4.5-.3.8-.7.9-1.3.3-.7.5-1.4.5-2.2v-35.9c-.2-2.9-2.6-5.3-5.5-5.3zm-30.7 48.3c0 .7-.7 1.3-1.6 1.3-.9 0-1.6-.6-1.6-1.3v-1.8h3.2v1.8zm29.1 0c0 .7-.7 1.3-1.6 1.3-.9 0-1.6-.6-1.6-1.3v-1.8h3.2v1.8zm3.1-7.1c0 .9-.7 1.6-1.6 1.6h-35.3c-.9 0-1.6-.7-1.6-1.6v-35.9c0-.9.7-1.6 1.6-1.6h35.3c.9 0 1.6.7 1.6 1.6v35.9z"/></defs><clipPath id="p"><use xlink:href="#o" overflow="visible"/></clipPath><g clip-path="url(#p)"><defs><path id="q" d="M-278.9-636.1h46v54h-46z"/></defs><clipPath id="r"><use xlink:href="#q" overflow="visible"/></clipPath><path clip-path="url(#r)" fill="#0c0b68" d="M-283.9-640.8h55.9v62.8h-55.9z"/></g></g></g></g><defs><path id="s" d="M-241.7-629.4h-28.8c-1.2 0-2.2 1-2.2 2.2v12.5c0 1.2 1 2.2 2.2 2.2h28.8c1.2 0 2.2-1 2.2-2.2v-12.5c0-1.3-1-2.2-2.2-2.2zm-1.2 12.7c0 .5-.4.9-.9.9h-24.6c-.5 0-.9-.4-.9-.9v-8.7c0-.5.4-.9.9-.9h24.6c.5 0 .9.4.9.9v8.7z"/></defs><clipPath id="t"><use xlink:href="#s" overflow="visible"/></clipPath><g clip-path="url(#t)"><defs><path id="u" d="M-695.9-1484.1h1440v3021h-1440z"/></defs><clipPath id="v"><use xlink:href="#u" overflow="visible"/></clipPath><path clip-path="url(#v)" fill="#0c0b68" d="M-277.6-634.4h43.1v26.9h-43.1z"/></g><defs><path id="w" d="M-243.1-601.6c-1.2 0-2.2 1-2.2 2.2 0 1.2 1 2.1 2.2 2.2 1.2 0 2.2-1 2.2-2.2 0-1.2-1-2.2-2.2-2.2"/></defs><clipPath id="x"><use xlink:href="#w" overflow="visible"/></clipPath><g clip-path="url(#x)"><defs><path id="y" d="M-695.9-1484.1h1440v3021h-1440z"/></defs><clipPath id="z"><use xlink:href="#y" overflow="visible"/></clipPath><path clip-path="url(#z)" fill="#0c0b68" d="M-250.3-606.6h14.3v14.3h-14.3z"/></g><defs><path id="A" d="M-269-601.6c-1.2 0-2.2 1-2.2 2.2 0 1.2 1 2.1 2.2 2.2 1.2 0 2.2-1 2.2-2.2-.1-1.2-1-2.2-2.2-2.2"/></defs><clipPath id="B"><use xlink:href="#A" overflow="visible"/></clipPath><g clip-path="url(#B)"><defs><path id="C" d="M-695.9-1484.1h1440v3021h-1440z"/></defs><clipPath id="D"><use xlink:href="#C" overflow="visible"/></clipPath><path clip-path="url(#D)" fill="#0c0b68" d="M-276.2-606.6h14.3v14.3h-14.3z"/></g><defs><path id="E" d="M-278.9-635.8h45.9v52.8h-45.9z"/></defs><clipPath id="F"><use xlink:href="#E" overflow="visible"/></clipPath><g clip-path="url(#F)"><defs><path id="G" d="M-695.9-1484.1h1440v3021h-1440z"/></defs><clipPath id="H"><use xlink:href="#G" overflow="visible"/></clipPath><g clip-path="url(#H)"><defs><path id="I" d="M-278.9-636.1h46v54h-46z"/></defs><clipPath id="J"><use xlink:href="#I" overflow="visible"/></clipPath><g clip-path="url(#J)"><defs><path id="K" d="M-238.3-635.8h-35.3c-2.9 0-5.3 2.4-5.3 5.3v35.9c0 2.2 1.3 4.1 3.3 4.9l.2.2v2c0 2.5 2.2 4.5 4.9 4.5s4.9-2 4.9-4.5v-1.8h19.4v1.8c0 2.5 2.2 4.5 4.9 4.5s4.9-2 4.9-4.5v-2l.2-.2c.8-.3 1.5-.8 2-1.4.5-.3.8-.7.9-1.3.3-.7.5-1.4.5-2.2v-35.9c-.2-2.9-2.6-5.3-5.5-5.3zm-30.7 48.3c0 .7-.7 1.3-1.6 1.3-.9 0-1.6-.6-1.6-1.3v-1.8h3.2v1.8zm29.1 0c0 .7-.7 1.3-1.6 1.3-.9 0-1.6-.6-1.6-1.3v-1.8h3.2v1.8zm3.1-7.1c0 .9-.7 1.6-1.6 1.6h-35.3c-.9 0-1.6-.7-1.6-1.6v-35.9c0-.9.7-1.6 1.6-1.6h35.3c.9 0 1.6.7 1.6 1.6v35.9z"/></defs><clipPath id="L"><use xlink:href="#K" overflow="visible"/></clipPath><g clip-path="url(#L)"><defs><path id="M" d="M-278.9-636.1h46v54h-46z"/></defs><clipPath id="N"><use xlink:href="#M" overflow="visible"/></clipPath><path clip-path="url(#N)" fill="#0c0b68" d="M-283.9-640.8h55.9v62.8h-55.9z"/></g></g></g></g><defs><path id="O" d="M-241.7-629.4h-28.8c-1.2 0-2.2 1-2.2 2.2v12.5c0 1.2 1 2.2 2.2 2.2h28.8c1.2 0 2.2-1 2.2-2.2v-12.5c0-1.3-1-2.2-2.2-2.2zm-1.2 12.7c0 .5-.4.9-.9.9h-24.6c-.5 0-.9-.4-.9-.9v-8.7c0-.5.4-.9.9-.9h24.6c.5 0 .9.4.9.9v8.7z"/></defs><clipPath id="P"><use xlink:href="#O" overflow="visible"/></clipPath><g clip-path="url(#P)"><defs><path id="Q" d="M-695.9-1484.1h1440v3021h-1440z"/></defs><clipPath id="R"><use xlink:href="#Q" overflow="visible"/></clipPath><path clip-path="url(#R)" fill="#0c0b68" d="M-277.6-634.4h43.1v26.9h-43.1z"/></g><defs><path id="S" d="M39.4 771.9c-1.2 0-2.2 1-2.2 2.2 0 1.2 1 2.1 2.2 2.2 1.2 0 2.2-1 2.2-2.2 0-1.2-1-2.2-2.2-2.2"/></defs><clipPath id="T"><use xlink:href="#S" overflow="visible"/></clipPath><g clip-path="url(#T)"><defs><path id="U" d="M-413.4-110.6h1440v3021h-1440z"/></defs><clipPath id="V"><use xlink:href="#U" overflow="visible"/></clipPath><path clip-path="url(#V)" fill="#0c0b68" d="M32.2 766.9h14.3v14.3H32.2z"/></g><g><defs><path id="W" d="M13.5 771.9c-1.2 0-2.2 1-2.2 2.2 0 1.2 1 2.1 2.2 2.2 1.2 0 2.2-1 2.2-2.2-.1-1.2-1-2.2-2.2-2.2"/></defs><clipPath id="X"><use xlink:href="#W" overflow="visible"/></clipPath><g clip-path="url(#X)"><defs><path id="Y" d="M-413.4-110.6h1440v3021h-1440z"/></defs><clipPath id="Z"><use xlink:href="#Y" overflow="visible"/></clipPath><path clip-path="url(#Z)" fill="#0c0b68" d="M6.3 766.9h14.3v14.3H6.3z"/></g></g><g><defs><path id="aa" d="M3.6 737.7h45.9v52.8H3.6z"/></defs><clipPath id="ab"><use xlink:href="#aa" overflow="visible"/></clipPath><g clip-path="url(#ab)"><defs><path id="ac" d="M-413.4-110.6h1440v3021h-1440z"/></defs><clipPath id="ad"><use xlink:href="#ac" overflow="visible"/></clipPath><g clip-path="url(#ad)"><defs><path id="ae" d="M3.6 737.4h46v54h-46z"/></defs><clipPath id="af"><use xlink:href="#ae" overflow="visible"/></clipPath><g clip-path="url(#af)"><defs><path id="ag" d="M44.2 737.7H8.8c-2.9 0-5.3 2.4-5.3 5.3v35.9c0 2.2 1.3 4.1 3.3 4.9l.2.2v2c0 2.5 2.2 4.5 4.9 4.5s4.9-2 4.9-4.5v-1.8h19.4v1.8c0 2.5 2.2 4.5 4.9 4.5s4.9-2 4.9-4.5v-2l.2-.2c.8-.3 1.5-.8 2-1.4.5-.3.8-.7.9-1.3.3-.7.5-1.4.5-2.2V743c-.1-2.9-2.5-5.3-5.4-5.3zM13.5 786c0 .7-.7 1.3-1.6 1.3-.9 0-1.6-.6-1.6-1.3v-1.8h3.2v1.8zm29.1 0c0 .7-.7 1.3-1.6 1.3-.9 0-1.6-.6-1.6-1.3v-1.8h3.2v1.8zm3.1-7.1c0 .9-.7 1.6-1.6 1.6H8.8c-.9 0-1.6-.7-1.6-1.6V743c0-.9.7-1.6 1.6-1.6h35.3c.9 0 1.6.7 1.6 1.6v35.9z"/></defs><clipPath id="ah"><use xlink:href="#ag" overflow="visible"/></clipPath><g clip-path="url(#ah)"><defs><path id="ai" d="M3.6 737.4h46v54h-46z"/></defs><clipPath id="aj"><use xlink:href="#ai" overflow="visible"/></clipPath><path clip-path="url(#aj)" fill="#0c0b68" d="M-1.4 732.7h55.9v62.8H-1.4z"/></g></g></g></g></g><g><defs><path id="ak" d="M40.8 744.1H12c-1.2 0-2.2 1-2.2 2.2v12.5c0 1.2 1 2.2 2.2 2.2h28.8c1.2 0 2.2-1 2.2-2.2v-12.5c0-1.3-1-2.2-2.2-2.2zm-1.2 12.7c0 .5-.4.9-.9.9H14.1c-.5 0-.9-.4-.9-.9v-8.7c0-.5.4-.9.9-.9h24.6c.5 0 .9.4.9.9v8.7z"/></defs><clipPath id="al"><use xlink:href="#ak" overflow="visible"/></clipPath><g clip-path="url(#al)"><defs><path id="am" d="M-413.4-110.6h1440v3021h-1440z"/></defs><clipPath id="an"><use xlink:href="#am" overflow="visible"/></clipPath><path clip-path="url(#an)" fill="#0c0b68" d="M4.9 739.1H48V766H4.9z"/></g></g><g><defs><path id="ao" d="M-244.2-601.6c-1.2 0-2.2 1-2.2 2.2 0 1.2 1 2.1 2.2 2.2 1.2 0 2.2-1 2.2-2.2 0-1.2-1-2.2-2.2-2.2"/></defs><clipPath id="ap"><use xlink:href="#ao" overflow="visible"/></clipPath><g clip-path="url(#ap)"><defs><path id="aq" d="M-697-1484.1H743v3021H-697z"/></defs><clipPath id="ar"><use xlink:href="#aq" overflow="visible"/></clipPath><path clip-path="url(#ar)" fill="#0c0b68" d="M-251.4-606.6h14.3v14.3h-14.3z"/></g></g><g><defs><path id="as" d="M-270.1-601.6c-1.2 0-2.2 1-2.2 2.2 0 1.2 1 2.1 2.2 2.2 1.2 0 2.2-1 2.2-2.2-.1-1.2-1-2.2-2.2-2.2"/></defs><clipPath id="at"><use xlink:href="#as" overflow="visible"/></clipPath><g clip-path="url(#at)"><defs><path id="au" d="M-697-1484.1H743v3021H-697z"/></defs><clipPath id="av"><use xlink:href="#au" overflow="visible"/></clipPath><path clip-path="url(#av)" fill="#0c0b68" d="M-277.3-606.6h14.3v14.3h-14.3z"/></g></g><g><defs><path id="aw" d="M-280-635.8h45.9v52.8H-280z"/></defs><clipPath id="ax"><use xlink:href="#aw" overflow="visible"/></clipPath><g clip-path="url(#ax)"><defs><path id="ay" d="M-697-1484.1H743v3021H-697z"/></defs><clipPath id="az"><use xlink:href="#ay" overflow="visible"/></clipPath><g clip-path="url(#az)"><defs><path id="aA" d="M-280-636.1h46v54h-46z"/></defs><clipPath id="aB"><use xlink:href="#aA" overflow="visible"/></clipPath><g clip-path="url(#aB)"><defs><path id="aC" d="M-239.4-635.8h-35.3c-2.9 0-5.3 2.4-5.3 5.3v35.9c0 2.2 1.3 4.1 3.3 4.9l.2.2v2c0 2.5 2.2 4.5 4.9 4.5s4.9-2 4.9-4.5v-1.8h19.4v1.8c0 2.5 2.2 4.5 4.9 4.5s4.9-2 4.9-4.5v-2l.2-.2c.8-.3 1.5-.8 2-1.4.5-.3.8-.7.9-1.3.3-.7.5-1.4.5-2.2v-35.9c-.2-2.9-2.6-5.3-5.5-5.3zm-30.7 48.3c0 .7-.7 1.3-1.6 1.3s-1.6-.6-1.6-1.3v-1.8h3.2v1.8zm29.1 0c0 .7-.7 1.3-1.6 1.3-.9 0-1.6-.6-1.6-1.3v-1.8h3.2v1.8zm3.1-7.1c0 .9-.7 1.6-1.6 1.6h-35.3c-.9 0-1.6-.7-1.6-1.6v-35.9c0-.9.7-1.6 1.6-1.6h35.3c.9 0 1.6.7 1.6 1.6v35.9z"/></defs><clipPath id="aD"><use xlink:href="#aC" overflow="visible"/></clipPath><g clip-path="url(#aD)"><defs><path id="aE" d="M-280-636.1h46v54h-46z"/></defs><clipPath id="aF"><use xlink:href="#aE" overflow="visible"/></clipPath><path clip-path="url(#aF)" fill="#0c0b68" d="M-285-640.8h55.9v62.8H-285z"/></g></g></g></g></g><g><defs><path id="aG" d="M-242.8-629.4h-28.8c-1.2 0-2.2 1-2.2 2.2v12.5c0 1.2 1 2.2 2.2 2.2h28.8c1.2 0 2.2-1 2.2-2.2v-12.5c0-1.3-1-2.2-2.2-2.2zm-1.2 12.7c0 .5-.4.9-.9.9h-24.6c-.5 0-.9-.4-.9-.9v-8.7c0-.5.4-.9.9-.9h24.6c.5 0 .9.4.9.9v8.7z"/></defs><clipPath id="aH"><use xlink:href="#aG" overflow="visible"/></clipPath><g clip-path="url(#aH)"><defs><path id="aI" d="M-697-1484.1H743v3021H-697z"/></defs><clipPath id="aJ"><use xlink:href="#aI" overflow="visible"/></clipPath><path clip-path="url(#aJ)" fill="#0c0b68" d="M-278.7-634.4h43.1v26.9h-43.1z"/></g></g><g><defs><path id="aK" d="M-280-635.8h45.9v52.8H-280z"/></defs><clipPath id="aL"><use xlink:href="#aK" overflow="visible"/></clipPath><g clip-path="url(#aL)"><defs><path id="aM" d="M-697-1484.1H743v3021H-697z"/></defs><clipPath id="aN"><use xlink:href="#aM" overflow="visible"/></clipPath><g clip-path="url(#aN)"><defs><path id="aO" d="M-280-636.1h46v54h-46z"/></defs><clipPath id="aP"><use xlink:href="#aO" overflow="visible"/></clipPath><g clip-path="url(#aP)"><defs><path id="aQ" d="M-239.4-635.8h-35.3c-2.9 0-5.3 2.4-5.3 5.3v35.9c0 2.2 1.3 4.1 3.3 4.9l.2.2v2c0 2.5 2.2 4.5 4.9 4.5s4.9-2 4.9-4.5v-1.8h19.4v1.8c0 2.5 2.2 4.5 4.9 4.5s4.9-2 4.9-4.5v-2l.2-.2c.8-.3 1.5-.8 2-1.4.5-.3.8-.7.9-1.3.3-.7.5-1.4.5-2.2v-35.9c-.2-2.9-2.6-5.3-5.5-5.3zm-30.7 48.3c0 .7-.7 1.3-1.6 1.3s-1.6-.6-1.6-1.3v-1.8h3.2v1.8zm29.1 0c0 .7-.7 1.3-1.6 1.3-.9 0-1.6-.6-1.6-1.3v-1.8h3.2v1.8zm3.1-7.1c0 .9-.7 1.6-1.6 1.6h-35.3c-.9 0-1.6-.7-1.6-1.6v-35.9c0-.9.7-1.6 1.6-1.6h35.3c.9 0 1.6.7 1.6 1.6v35.9z"/></defs><clipPath id="aR"><use xlink:href="#aQ" overflow="visible"/></clipPath><g clip-path="url(#aR)"><defs><path id="aS" d="M-280-636.1h46v54h-46z"/></defs><clipPath id="aT"><use xlink:href="#aS" overflow="visible"/></clipPath><path clip-path="url(#aT)" fill="#0c0b68" d="M-285-640.8h55.9v62.8H-285z"/></g></g></g></g></g><g><defs><path id="aU" d="M-244.2-601.6c-1.2 0-2.2 1-2.2 2.2 0 1.2 1 2.1 2.2 2.2 1.2 0 2.2-1 2.2-2.2 0-1.2-1-2.2-2.2-2.2"/></defs><clipPath id="aV"><use xlink:href="#aU" overflow="visible"/></clipPath><g clip-path="url(#aV)"><defs><path id="aW" d="M-697-1484.1H743v3021H-697z"/></defs><clipPath id="aX"><use xlink:href="#aW" overflow="visible"/></clipPath><path clip-path="url(#aX)" fill="#0c0b68" d="M-251.4-606.6h14.3v14.3h-14.3z"/></g></g><g><defs><path id="aY" d="M-270.1-601.6c-1.2 0-2.2 1-2.2 2.2 0 1.2 1 2.1 2.2 2.2 1.2 0 2.2-1 2.2-2.2-.1-1.2-1-2.2-2.2-2.2"/></defs><clipPath id="aZ"><use xlink:href="#aY" overflow="visible"/></clipPath><g clip-path="url(#aZ)"><defs><path id="ba" d="M-697-1484.1H743v3021H-697z"/></defs><clipPath id="bb"><use xlink:href="#ba" overflow="visible"/></clipPath><path clip-path="url(#bb)" fill="#0c0b68" d="M-277.3-606.6h14.3v14.3h-14.3z"/></g></g><g><defs><path id="bc" d="M-280-635.8h45.9v52.8H-280z"/></defs><clipPath id="bd"><use xlink:href="#bc" overflow="visible"/></clipPath><g clip-path="url(#bd)"><defs><path id="be" d="M-697-1484.1H743v3021H-697z"/></defs><clipPath id="bf"><use xlink:href="#be" overflow="visible"/></clipPath><g clip-path="url(#bf)"><defs><path id="bg" d="M-280-636.1h46v54h-46z"/></defs><clipPath id="bh"><use xlink:href="#bg" overflow="visible"/></clipPath><g clip-path="url(#bh)"><defs><path id="bi" d="M-239.4-635.8h-35.3c-2.9 0-5.3 2.4-5.3 5.3v35.9c0 2.2 1.3 4.1 3.3 4.9l.2.2v2c0 2.5 2.2 4.5 4.9 4.5s4.9-2 4.9-4.5v-1.8h19.4v1.8c0 2.5 2.2 4.5 4.9 4.5s4.9-2 4.9-4.5v-2l.2-.2c.8-.3 1.5-.8 2-1.4.5-.3.8-.7.9-1.3.3-.7.5-1.4.5-2.2v-35.9c-.2-2.9-2.6-5.3-5.5-5.3zm-30.7 48.3c0 .7-.7 1.3-1.6 1.3s-1.6-.6-1.6-1.3v-1.8h3.2v1.8zm29.1 0c0 .7-.7 1.3-1.6 1.3-.9 0-1.6-.6-1.6-1.3v-1.8h3.2v1.8zm3.1-7.1c0 .9-.7 1.6-1.6 1.6h-35.3c-.9 0-1.6-.7-1.6-1.6v-35.9c0-.9.7-1.6 1.6-1.6h35.3c.9 0 1.6.7 1.6 1.6v35.9z"/></defs><clipPath id="bj"><use xlink:href="#bi" overflow="visible"/></clipPath><g clip-path="url(#bj)"><defs><path id="bk" d="M-280-636.1h46v54h-46z"/></defs><clipPath id="bl"><use xlink:href="#bk" overflow="visible"/></clipPath><path clip-path="url(#bl)" fill="#0c0b68" d="M-285-640.8h55.9v62.8H-285z"/></g></g></g></g></g><g><defs><path id="bm" d="M-242.8-629.4h-28.8c-1.2 0-2.2 1-2.2 2.2v12.5c0 1.2 1 2.2 2.2 2.2h28.8c1.2 0 2.2-1 2.2-2.2v-12.5c0-1.3-1-2.2-2.2-2.2zm-1.2 12.7c0 .5-.4.9-.9.9h-24.6c-.5 0-.9-.4-.9-.9v-8.7c0-.5.4-.9.9-.9h24.6c.5 0 .9.4.9.9v8.7z"/></defs><clipPath id="bn"><use xlink:href="#bm" overflow="visible"/></clipPath><g clip-path="url(#bn)"><defs><path id="bo" d="M-697-1484.1H743v3021H-697z"/></defs><clipPath id="bp"><use xlink:href="#bo" overflow="visible"/></clipPath><path clip-path="url(#bp)" fill="#0c0b68" d="M-278.7-634.4h43.1v26.9h-43.1z"/></g></g><g><defs><path id="bq" d="M35.8 34.2c-1.2 0-2.2 1-2.2 2.2 0 1.2 1 2.2 2.2 2.2 1.2 0 2.2-1 2.2-2.2 0-1.2-1-2.2-2.2-2.2"/></defs><clipPath id="br"><use xlink:href="#bq" overflow="visible"/></clipPath><path clip-path="url(#br)" fill="#0c0b68" d="M28.7 29.2H43v14.3H28.7z"/></g><g><defs><path id="bs" d="M9.9 34.2c-1.2 0-2.2 1-2.2 2.2 0 1.2 1 2.2 2.2 2.2 1.2 0 2.2-1 2.2-2.2 0-1.2-1-2.2-2.2-2.2"/></defs><clipPath id="bt"><use xlink:href="#bs" overflow="visible"/></clipPath><path clip-path="url(#bt)" fill="#0c0b68" d="M2.8 29.2h14.3v14.3H2.8z"/></g><g><defs><path id="bu" d="M0 0h45.9v52.8H0z"/></defs><clipPath id="bv"><use xlink:href="#bu" overflow="visible"/></clipPath><g clip-path="url(#bv)"><defs><path id="bw" d="M0-.3h46v54H0z"/></defs><clipPath id="bx"><use xlink:href="#bw" overflow="visible"/></clipPath><g clip-path="url(#bx)"><defs><path id="by" d="M40.6 0H5.3C2.4 0 0 2.4 0 5.3v35.9c0 2.2 1.3 4.1 3.3 4.9l.2.2v2c0 2.5 2.2 4.5 4.9 4.5s4.9-2 4.9-4.5v-1.8h19.4v1.8c0 2.5 2.2 4.5 4.9 4.5s4.9-2 4.9-4.5v-2l.2-.2c.8-.3 1.5-.8 2-1.4.5-.3.8-.7.9-1.3.3-.7.5-1.4.5-2.2V5.3C45.9 2.4 43.5 0 40.6 0zM9.9 48.3c0 .7-.7 1.3-1.6 1.3-.9 0-1.6-.6-1.6-1.3v-1.8h3.2v1.8zm29.2 0c0 .7-.7 1.3-1.6 1.3-.9 0-1.6-.6-1.6-1.3v-1.8h3.2v1.8zm3.1-7.1c0 .9-.7 1.6-1.6 1.6H5.3c-.9 0-1.6-.7-1.6-1.6V5.3c0-.9.7-1.6 1.6-1.6h35.3c.9 0 1.6.7 1.6 1.6v35.9z"/></defs><clipPath id="bz"><use xlink:href="#by" overflow="visible"/></clipPath><g clip-path="url(#bz)"><defs><path id="bA" d="M0-.3h46v54H0z"/></defs><clipPath id="bB"><use xlink:href="#bA" overflow="visible"/></clipPath><path clip-path="url(#bB)" fill="#0c0b68" d="M-5-5h55.9v62.8H-5z"/></g></g></g></g><g><defs><path id="bC" d="M37.3 6.4H8.5c-1.2 0-2.2 1-2.2 2.2v12.5c0 1.2 1 2.2 2.2 2.2h28.8c1.2 0 2.2-1 2.2-2.2V8.5c0-1.2-1-2.1-2.2-2.1zM36 19.2c0 .5-.4.9-.9.9H10.6c-.5 0-.9-.4-.9-.9v-8.7c0-.5.4-.9.9-.9h24.6c.5 0 .9.4.9.9v8.7z"/></defs><clipPath id="bD"><use xlink:href="#bC" overflow="visible"/></clipPath><path clip-path="url(#bD)" fill="#0c0b68" d="M1.3 1.4h43.1v26.9H1.3z"/></g></svg>