<svg xmlns="http://www.w3.org/2000/svg" xmlns:xlink="http://www.w3.org/1999/xlink" viewBox="0 0 58 43"><defs><path id="a" d="M-236.9-606.8c-1.2 0-2.2 1-2.2 2.2 0 1.2 1 2.2 2.2 2.2 1.2 0 2.2-1 2.2-2.2 0-1.2-1-2.2-2.2-2.2"/></defs><clipPath id="b"><use xlink:href="#a" overflow="visible"/></clipPath><g clip-path="url(#b)"><defs><path id="c" d="M-689.7-1489.2h1440v3021h-1440z"/></defs><clipPath id="d"><use xlink:href="#c" overflow="visible"/></clipPath><path clip-path="url(#d)" fill="#0c0b68" d="M-244-611.8h14.3v14.3H-244z"/></g><defs><path id="e" d="M-262.8-606.8c-1.2 0-2.2 1-2.2 2.2 0 1.2 1 2.2 2.2 2.2 1.2 0 2.2-1 2.2-2.2 0-1.2-1-2.2-2.2-2.2"/></defs><clipPath id="f"><use xlink:href="#e" overflow="visible"/></clipPath><g clip-path="url(#f)"><defs><path id="g" d="M-689.7-1489.2h1440v3021h-1440z"/></defs><clipPath id="h"><use xlink:href="#g" overflow="visible"/></clipPath><path clip-path="url(#h)" fill="#0c0b68" d="M-269.9-611.8h14.3v14.3h-14.3z"/></g><defs><path id="i" d="M-272.7-641h45.9v52.8h-45.9z"/></defs><clipPath id="j"><use xlink:href="#i" overflow="visible"/></clipPath><g clip-path="url(#j)"><defs><path id="k" d="M-689.7-1489.2h1440v3021h-1440z"/></defs><clipPath id="l"><use xlink:href="#k" overflow="visible"/></clipPath><g clip-path="url(#l)"><defs><path id="m" d="M-272.7-641.2h46v54h-46z"/></defs><clipPath id="n"><use xlink:href="#m" overflow="visible"/></clipPath><g clip-path="url(#n)"><defs><path id="o" d="M-232.1-641h-35.3c-2.9 0-5.3 2.4-5.3 5.3v35.9c0 2.2 1.3 4.1 3.3 4.9l.2.2v2c0 2.5 2.2 4.5 4.9 4.5s4.9-2 4.9-4.5v-1.8h19.4v1.8c0 2.5 2.2 4.5 4.9 4.5s4.9-2 4.9-4.5v-2l.2-.2c.8-.3 1.5-.8 2-1.4.5-.3.8-.7.9-1.3.3-.7.5-1.4.5-2.2v-35.9c-.2-2.9-2.6-5.3-5.5-5.3zm-30.7 48.3c0 .7-.7 1.3-1.6 1.3-.9 0-1.6-.6-1.6-1.3v-1.8h3.2v1.8zm29.2 0c0 .7-.7 1.3-1.6 1.3-.9 0-1.6-.6-1.6-1.3v-1.8h3.2v1.8zm3.1-7c0 .9-.7 1.6-1.6 1.6h-35.3c-.9 0-1.6-.7-1.6-1.6v-35.9c0-.9.7-1.6 1.6-1.6h35.3c.9 0 1.6.7 1.6 1.6v35.9z"/></defs><clipPath id="p"><use xlink:href="#o" overflow="visible"/></clipPath><g clip-path="url(#p)"><defs><path id="q" d="M-272.7-641.2h46v54h-46z"/></defs><clipPath id="r"><use xlink:href="#q" overflow="visible"/></clipPath><path clip-path="url(#r)" fill="#0c0b68" d="M-277.7-646h55.9v62.8h-55.9z"/></g></g></g></g><defs><path id="s" d="M-235.4-634.6h-28.8c-1.2 0-2.2 1-2.2 2.2v12.5c0 1.2 1 2.2 2.2 2.2h28.8c1.2 0 2.2-1 2.2-2.2v-12.5c0-1.2-1-2.2-2.2-2.2zm-1.3 12.8c0 .5-.4.9-.9.9h-24.6c-.5 0-.9-.4-.9-.9v-8.7c0-.5.4-.9.9-.9h24.6c.5 0 .9.4.9.9v8.7z"/></defs><clipPath id="t"><use xlink:href="#s" overflow="visible"/></clipPath><g clip-path="url(#t)"><defs><path id="u" d="M-689.7-1489.2h1440v3021h-1440z"/></defs><clipPath id="v"><use xlink:href="#u" overflow="visible"/></clipPath><path clip-path="url(#v)" fill="#0c0b68" d="M-271.4-639.6h43.1v26.9h-43.1z"/></g><defs><path id="w" d="M-236.9-606.8c-1.2 0-2.2 1-2.2 2.2 0 1.2 1 2.2 2.2 2.2 1.2 0 2.2-1 2.2-2.2 0-1.2-1-2.2-2.2-2.2"/></defs><clipPath id="x"><use xlink:href="#w" overflow="visible"/></clipPath><g clip-path="url(#x)"><defs><path id="y" d="M-689.7-1489.2h1440v3021h-1440z"/></defs><clipPath id="z"><use xlink:href="#y" overflow="visible"/></clipPath><path clip-path="url(#z)" fill="#0c0b68" d="M-244-611.8h14.3v14.3H-244z"/></g><defs><path id="A" d="M-262.8-606.8c-1.2 0-2.2 1-2.2 2.2 0 1.2 1 2.2 2.2 2.2 1.2 0 2.2-1 2.2-2.2 0-1.2-1-2.2-2.2-2.2"/></defs><clipPath id="B"><use xlink:href="#A" overflow="visible"/></clipPath><g clip-path="url(#B)"><defs><path id="C" d="M-689.7-1489.2h1440v3021h-1440z"/></defs><clipPath id="D"><use xlink:href="#C" overflow="visible"/></clipPath><path clip-path="url(#D)" fill="#0c0b68" d="M-269.9-611.8h14.3v14.3h-14.3z"/></g><defs><path id="E" d="M-272.7-641h45.9v52.8h-45.9z"/></defs><clipPath id="F"><use xlink:href="#E" overflow="visible"/></clipPath><g clip-path="url(#F)"><defs><path id="G" d="M-689.7-1489.2h1440v3021h-1440z"/></defs><clipPath id="H"><use xlink:href="#G" overflow="visible"/></clipPath><g clip-path="url(#H)"><defs><path id="I" d="M-272.7-641.2h46v54h-46z"/></defs><clipPath id="J"><use xlink:href="#I" overflow="visible"/></clipPath><g clip-path="url(#J)"><defs><path id="K" d="M-232.1-641h-35.3c-2.9 0-5.3 2.4-5.3 5.3v35.9c0 2.2 1.3 4.1 3.3 4.9l.2.2v2c0 2.5 2.2 4.5 4.9 4.5s4.9-2 4.9-4.5v-1.8h19.4v1.8c0 2.5 2.2 4.5 4.9 4.5s4.9-2 4.9-4.5v-2l.2-.2c.8-.3 1.5-.8 2-1.4.5-.3.8-.7.9-1.3.3-.7.5-1.4.5-2.2v-35.9c-.2-2.9-2.6-5.3-5.5-5.3zm-30.7 48.3c0 .7-.7 1.3-1.6 1.3-.9 0-1.6-.6-1.6-1.3v-1.8h3.2v1.8zm29.2 0c0 .7-.7 1.3-1.6 1.3-.9 0-1.6-.6-1.6-1.3v-1.8h3.2v1.8zm3.1-7c0 .9-.7 1.6-1.6 1.6h-35.3c-.9 0-1.6-.7-1.6-1.6v-35.9c0-.9.7-1.6 1.6-1.6h35.3c.9 0 1.6.7 1.6 1.6v35.9z"/></defs><clipPath id="L"><use xlink:href="#K" overflow="visible"/></clipPath><g clip-path="url(#L)"><defs><path id="M" d="M-272.7-641.2h46v54h-46z"/></defs><clipPath id="N"><use xlink:href="#M" overflow="visible"/></clipPath><path clip-path="url(#N)" fill="#0c0b68" d="M-277.7-646h55.9v62.8h-55.9z"/></g></g></g></g><defs><path id="O" d="M-235.4-634.6h-28.8c-1.2 0-2.2 1-2.2 2.2v12.5c0 1.2 1 2.2 2.2 2.2h28.8c1.2 0 2.2-1 2.2-2.2v-12.5c0-1.2-1-2.2-2.2-2.2zm-1.3 12.8c0 .5-.4.9-.9.9h-24.6c-.5 0-.9-.4-.9-.9v-8.7c0-.5.4-.9.9-.9h24.6c.5 0 .9.4.9.9v8.7z"/></defs><clipPath id="P"><use xlink:href="#O" overflow="visible"/></clipPath><g clip-path="url(#P)"><defs><path id="Q" d="M-689.7-1489.2h1440v3021h-1440z"/></defs><clipPath id="R"><use xlink:href="#Q" overflow="visible"/></clipPath><path clip-path="url(#R)" fill="#0c0b68" d="M-271.4-639.6h43.1v26.9h-43.1z"/></g><g><defs><path id="S" d="M45.6 766.7c-1.2 0-2.2 1-2.2 2.2 0 1.2 1 2.2 2.2 2.2 1.2 0 2.2-1 2.2-2.2 0-1.2-1-2.2-2.2-2.2"/></defs><clipPath id="T"><use xlink:href="#S" overflow="visible"/></clipPath><g clip-path="url(#T)"><defs><path id="U" d="M-407.2-115.7h1440v3021h-1440z"/></defs><clipPath id="V"><use xlink:href="#U" overflow="visible"/></clipPath><path clip-path="url(#V)" fill="#0c0b68" d="M38.5 761.7h14.3V776H38.5z"/></g></g><g><defs><path id="W" d="M19.7 766.7c-1.2 0-2.2 1-2.2 2.2 0 1.2 1 2.2 2.2 2.2 1.2 0 2.2-1 2.2-2.2 0-1.2-1-2.2-2.2-2.2"/></defs><clipPath id="X"><use xlink:href="#W" overflow="visible"/></clipPath><g clip-path="url(#X)"><defs><path id="Y" d="M-407.2-115.7h1440v3021h-1440z"/></defs><clipPath id="Z"><use xlink:href="#Y" overflow="visible"/></clipPath><path clip-path="url(#Z)" fill="#0c0b68" d="M12.6 761.7h14.3V776H12.6z"/></g></g><g><defs><path id="aa" d="M9.8 732.5h45.9v52.8H9.8z"/></defs><clipPath id="ab"><use xlink:href="#aa" overflow="visible"/></clipPath><g clip-path="url(#ab)"><defs><path id="ac" d="M-407.2-115.7h1440v3021h-1440z"/></defs><clipPath id="ad"><use xlink:href="#ac" overflow="visible"/></clipPath><g clip-path="url(#ad)"><defs><path id="ae" d="M9.8 732.3h46v54h-46z"/></defs><clipPath id="af"><use xlink:href="#ae" overflow="visible"/></clipPath><g clip-path="url(#af)"><defs><path id="ag" d="M50.4 732.5H15.1c-2.9 0-5.3 2.4-5.3 5.3v35.9c0 2.2 1.3 4.1 3.3 4.9l.2.2v2c0 2.5 2.2 4.5 4.9 4.5s4.9-2 4.9-4.5V779h19.4v1.8c0 2.5 2.2 4.5 4.9 4.5s4.9-2 4.9-4.5v-2l.2-.2c.8-.3 1.5-.8 2-1.4.5-.3.8-.7.9-1.3.3-.7.5-1.4.5-2.2v-35.9c-.2-2.9-2.6-5.3-5.5-5.3zm-30.7 48.3c0 .7-.7 1.3-1.6 1.3s-1.6-.6-1.6-1.3V779h3.2v1.8zm29.2 0c0 .7-.7 1.3-1.6 1.3-.9 0-1.6-.6-1.6-1.3V779h3.2v1.8zm3.1-7c0 .9-.7 1.6-1.6 1.6H15.1c-.9 0-1.6-.7-1.6-1.6v-35.9c0-.9.7-1.6 1.6-1.6h35.3c.9 0 1.6.7 1.6 1.6v35.9z"/></defs><clipPath id="ah"><use xlink:href="#ag" overflow="visible"/></clipPath><g clip-path="url(#ah)"><defs><path id="ai" d="M9.8 732.3h46v54h-46z"/></defs><clipPath id="aj"><use xlink:href="#ai" overflow="visible"/></clipPath><path clip-path="url(#aj)" fill="#0c0b68" d="M4.8 727.5h55.9v62.8H4.8z"/></g></g></g></g></g><g><defs><path id="ak" d="M47.1 738.9H18.3c-1.2 0-2.2 1-2.2 2.2v12.5c0 1.2 1 2.2 2.2 2.2h28.8c1.2 0 2.2-1 2.2-2.2v-12.5c0-1.2-1-2.2-2.2-2.2zm-1.3 12.8c0 .5-.4.9-.9.9H20.4c-.5 0-.9-.4-.9-.9V743c0-.5.4-.9.9-.9H45c.5 0 .9.4.9.9v8.7z"/></defs><clipPath id="al"><use xlink:href="#ak" overflow="visible"/></clipPath><g clip-path="url(#al)"><defs><path id="am" d="M-407.2-115.7h1440v3021h-1440z"/></defs><clipPath id="an"><use xlink:href="#am" overflow="visible"/></clipPath><path clip-path="url(#an)" fill="#0c0b68" d="M11.1 733.9h43.1v26.9H11.1z"/></g></g><g><defs><path id="ao" d="M-238-606.8c-1.2 0-2.2 1-2.2 2.2 0 1.2 1 2.2 2.2 2.2 1.2 0 2.2-1 2.2-2.2 0-1.2-1-2.2-2.2-2.2"/></defs><clipPath id="ap"><use xlink:href="#ao" overflow="visible"/></clipPath><g clip-path="url(#ap)"><defs><path id="aq" d="M-690.8-1489.2h1440v3021h-1440z"/></defs><clipPath id="ar"><use xlink:href="#aq" overflow="visible"/></clipPath><path clip-path="url(#ar)" fill="#0c0b68" d="M-245.1-611.8h14.3v14.3h-14.3z"/></g></g><g><defs><path id="as" d="M-263.9-606.8c-1.2 0-2.2 1-2.2 2.2 0 1.2 1 2.2 2.2 2.2 1.2 0 2.2-1 2.2-2.2 0-1.2-1-2.2-2.2-2.2"/></defs><clipPath id="at"><use xlink:href="#as" overflow="visible"/></clipPath><g clip-path="url(#at)"><defs><path id="au" d="M-690.8-1489.2h1440v3021h-1440z"/></defs><clipPath id="av"><use xlink:href="#au" overflow="visible"/></clipPath><path clip-path="url(#av)" fill="#0c0b68" d="M-271-611.8h14.3v14.3H-271z"/></g></g><g><defs><path id="aw" d="M-273.8-641h45.9v52.8h-45.9z"/></defs><clipPath id="ax"><use xlink:href="#aw" overflow="visible"/></clipPath><g clip-path="url(#ax)"><defs><path id="ay" d="M-690.8-1489.2h1440v3021h-1440z"/></defs><clipPath id="az"><use xlink:href="#ay" overflow="visible"/></clipPath><g clip-path="url(#az)"><defs><path id="aA" d="M-273.8-641.2h46v54h-46z"/></defs><clipPath id="aB"><use xlink:href="#aA" overflow="visible"/></clipPath><g clip-path="url(#aB)"><defs><path id="aC" d="M-233.2-641h-35.3c-2.9 0-5.3 2.4-5.3 5.3v35.9c0 2.2 1.3 4.1 3.3 4.9l.2.2v2c0 2.5 2.2 4.5 4.9 4.5s4.9-2 4.9-4.5v-1.8h19.4v1.8c0 2.5 2.2 4.5 4.9 4.5s4.9-2 4.9-4.5v-2l.2-.2c.8-.3 1.5-.8 2-1.4.5-.3.8-.7.9-1.3.3-.7.5-1.4.5-2.2v-35.9c-.2-2.9-2.6-5.3-5.5-5.3zm-30.7 48.3c0 .7-.7 1.3-1.6 1.3-.9 0-1.6-.6-1.6-1.3v-1.8h3.2v1.8zm29.2 0c0 .7-.7 1.3-1.6 1.3-.9 0-1.6-.6-1.6-1.3v-1.8h3.2v1.8zm3.1-7c0 .9-.7 1.6-1.6 1.6h-35.3c-.9 0-1.6-.7-1.6-1.6v-35.9c0-.9.7-1.6 1.6-1.6h35.3c.9 0 1.6.7 1.6 1.6v35.9z"/></defs><clipPath id="aD"><use xlink:href="#aC" overflow="visible"/></clipPath><g clip-path="url(#aD)"><defs><path id="aE" d="M-273.8-641.2h46v54h-46z"/></defs><clipPath id="aF"><use xlink:href="#aE" overflow="visible"/></clipPath><path clip-path="url(#aF)" fill="#0c0b68" d="M-278.8-646h55.9v62.8h-55.9z"/></g></g></g></g></g><g><defs><path id="aG" d="M-236.5-634.6h-28.8c-1.2 0-2.2 1-2.2 2.2v12.5c0 1.2 1 2.2 2.2 2.2h28.8c1.2 0 2.2-1 2.2-2.2v-12.5c0-1.2-1-2.2-2.2-2.2zm-1.3 12.8c0 .5-.4.9-.9.9h-24.6c-.5 0-.9-.4-.9-.9v-8.7c0-.5.4-.9.9-.9h24.6c.5 0 .9.4.9.9v8.7z"/></defs><clipPath id="aH"><use xlink:href="#aG" overflow="visible"/></clipPath><g clip-path="url(#aH)"><defs><path id="aI" d="M-690.8-1489.2h1440v3021h-1440z"/></defs><clipPath id="aJ"><use xlink:href="#aI" overflow="visible"/></clipPath><path clip-path="url(#aJ)" fill="#0c0b68" d="M-272.5-639.6h43.1v26.9h-43.1z"/></g></g><g><defs><path id="aK" d="M-273.8-641h45.9v52.8h-45.9z"/></defs><clipPath id="aL"><use xlink:href="#aK" overflow="visible"/></clipPath><g clip-path="url(#aL)"><defs><path id="aM" d="M-690.8-1489.2h1440v3021h-1440z"/></defs><clipPath id="aN"><use xlink:href="#aM" overflow="visible"/></clipPath><g clip-path="url(#aN)"><defs><path id="aO" d="M-273.8-641.2h46v54h-46z"/></defs><clipPath id="aP"><use xlink:href="#aO" overflow="visible"/></clipPath><g clip-path="url(#aP)"><defs><path id="aQ" d="M-233.2-641h-35.3c-2.9 0-5.3 2.4-5.3 5.3v35.9c0 2.2 1.3 4.1 3.3 4.9l.2.2v2c0 2.5 2.2 4.5 4.9 4.5s4.9-2 4.9-4.5v-1.8h19.4v1.8c0 2.5 2.2 4.5 4.9 4.5s4.9-2 4.9-4.5v-2l.2-.2c.8-.3 1.5-.8 2-1.4.5-.3.8-.7.9-1.3.3-.7.5-1.4.5-2.2v-35.9c-.2-2.9-2.6-5.3-5.5-5.3zm-30.7 48.3c0 .7-.7 1.3-1.6 1.3-.9 0-1.6-.6-1.6-1.3v-1.8h3.2v1.8zm29.2 0c0 .7-.7 1.3-1.6 1.3-.9 0-1.6-.6-1.6-1.3v-1.8h3.2v1.8zm3.1-7c0 .9-.7 1.6-1.6 1.6h-35.3c-.9 0-1.6-.7-1.6-1.6v-35.9c0-.9.7-1.6 1.6-1.6h35.3c.9 0 1.6.7 1.6 1.6v35.9z"/></defs><clipPath id="aR"><use xlink:href="#aQ" overflow="visible"/></clipPath><g clip-path="url(#aR)"><defs><path id="aS" d="M-273.8-641.2h46v54h-46z"/></defs><clipPath id="aT"><use xlink:href="#aS" overflow="visible"/></clipPath><path clip-path="url(#aT)" fill="#0c0b68" d="M-278.8-646h55.9v62.8h-55.9z"/></g></g></g></g></g><g><defs><path id="aU" d="M-238-606.8c-1.2 0-2.2 1-2.2 2.2 0 1.2 1 2.2 2.2 2.2 1.2 0 2.2-1 2.2-2.2 0-1.2-1-2.2-2.2-2.2"/></defs><clipPath id="aV"><use xlink:href="#aU" overflow="visible"/></clipPath><g clip-path="url(#aV)"><defs><path id="aW" d="M-690.8-1489.2h1440v3021h-1440z"/></defs><clipPath id="aX"><use xlink:href="#aW" overflow="visible"/></clipPath><path clip-path="url(#aX)" fill="#0c0b68" d="M-245.1-611.8h14.3v14.3h-14.3z"/></g></g><g><defs><path id="aY" d="M-263.9-606.8c-1.2 0-2.2 1-2.2 2.2 0 1.2 1 2.2 2.2 2.2 1.2 0 2.2-1 2.2-2.2 0-1.2-1-2.2-2.2-2.2"/></defs><clipPath id="aZ"><use xlink:href="#aY" overflow="visible"/></clipPath><g clip-path="url(#aZ)"><defs><path id="ba" d="M-690.8-1489.2h1440v3021h-1440z"/></defs><clipPath id="bb"><use xlink:href="#ba" overflow="visible"/></clipPath><path clip-path="url(#bb)" fill="#0c0b68" d="M-271-611.8h14.3v14.3H-271z"/></g></g><g><defs><path id="bc" d="M-273.8-641h45.9v52.8h-45.9z"/></defs><clipPath id="bd"><use xlink:href="#bc" overflow="visible"/></clipPath><g clip-path="url(#bd)"><defs><path id="be" d="M-690.8-1489.2h1440v3021h-1440z"/></defs><clipPath id="bf"><use xlink:href="#be" overflow="visible"/></clipPath><g clip-path="url(#bf)"><defs><path id="bg" d="M-273.8-641.2h46v54h-46z"/></defs><clipPath id="bh"><use xlink:href="#bg" overflow="visible"/></clipPath><g clip-path="url(#bh)"><defs><path id="bi" d="M-233.2-641h-35.3c-2.9 0-5.3 2.4-5.3 5.3v35.9c0 2.2 1.3 4.1 3.3 4.9l.2.2v2c0 2.5 2.2 4.5 4.9 4.5s4.9-2 4.9-4.5v-1.8h19.4v1.8c0 2.5 2.2 4.5 4.9 4.5s4.9-2 4.9-4.5v-2l.2-.2c.8-.3 1.5-.8 2-1.4.5-.3.8-.7.9-1.3.3-.7.5-1.4.5-2.2v-35.9c-.2-2.9-2.6-5.3-5.5-5.3zm-30.7 48.3c0 .7-.7 1.3-1.6 1.3-.9 0-1.6-.6-1.6-1.3v-1.8h3.2v1.8zm29.2 0c0 .7-.7 1.3-1.6 1.3-.9 0-1.6-.6-1.6-1.3v-1.8h3.2v1.8zm3.1-7c0 .9-.7 1.6-1.6 1.6h-35.3c-.9 0-1.6-.7-1.6-1.6v-35.9c0-.9.7-1.6 1.6-1.6h35.3c.9 0 1.6.7 1.6 1.6v35.9z"/></defs><clipPath id="bj"><use xlink:href="#bi" overflow="visible"/></clipPath><g clip-path="url(#bj)"><defs><path id="bk" d="M-273.8-641.2h46v54h-46z"/></defs><clipPath id="bl"><use xlink:href="#bk" overflow="visible"/></clipPath><path clip-path="url(#bl)" fill="#0c0b68" d="M-278.8-646h55.9v62.8h-55.9z"/></g></g></g></g></g><g><defs><path id="bm" d="M-236.5-634.6h-28.8c-1.2 0-2.2 1-2.2 2.2v12.5c0 1.2 1 2.2 2.2 2.2h28.8c1.2 0 2.2-1 2.2-2.2v-12.5c0-1.2-1-2.2-2.2-2.2zm-1.3 12.8c0 .5-.4.9-.9.9h-24.6c-.5 0-.9-.4-.9-.9v-8.7c0-.5.4-.9.9-.9h24.6c.5 0 .9.4.9.9v8.7z"/></defs><clipPath id="bn"><use xlink:href="#bm" overflow="visible"/></clipPath><g clip-path="url(#bn)"><defs><path id="bo" d="M-690.8-1489.2h1440v3021h-1440z"/></defs><clipPath id="bp"><use xlink:href="#bo" overflow="visible"/></clipPath><path clip-path="url(#bp)" fill="#0c0b68" d="M-272.5-639.6h43.1v26.9h-43.1z"/></g></g><g><defs><path id="bq" d="M57.9 24.5c-.2-.6-.8-1.1-1.4-1.2l-5.7-.9V3.6c0-2-1.6-3.6-3.6-3.6H3.6C1.6 0 0 1.6 0 3.6v25.1c0 2 1.6 3.6 3.6 3.6H34l.1.1-1.5 8.6c-.1.7.2 1.4.7 1.8.6.4 1.3.5 1.9.1l7.8-4 7.8 4c.3.1.6.2.8.2.4 0 .7-.1 1.1-.3.6-.4.8-1.1.7-1.8l-1.5-8.6 5.7-6.1c.4-.5.5-1.2.3-1.8zM3.6 7.1h43.5V3.6H3.6v3.5zm0 21.6v-18h43.5V20l-2.7-4.4c-.3-.5-.9-.9-1.6-.9-.6 0-1.2.3-1.6.9L37.5 22l-8.2 1.3c-.7.1-1.2.6-1.4 1.2-.2.6-.1 1.3.4 1.8l2.3 2.4h-27zm44.9 1.8c-.4.4-.6 1-.5 1.5l1 5.9-5.3-2.8c-.3-.1-.6-.2-.8-.2-.3 0-.6.1-.8.2l-5.3 2.8 1-5.9c.1-.6-.1-1.1-.5-1.5l-4-4.2 5.6-.9c.5-.1 1-.4 1.3-.8l2.7-4.5 2.7 4.5c.3.5.7.8 1.3.8l5.6.9-4 4.2z"/></defs><clipPath id="br"><use xlink:href="#bq" overflow="visible"/></clipPath><path clip-path="url(#br)" fill="#0c0b68" d="M-5-5h68v53H-5z"/></g></svg>