<svg xmlns="http://www.w3.org/2000/svg" xmlns:xlink="http://www.w3.org/1999/xlink" viewBox="0 0 41.1 57.6"><defs><path id="a" d="M-245.3-599.5c-1.2 0-2.2 1-2.2 2.2 0 1.2 1 2.2 2.2 2.2 1.2 0 2.2-1 2.2-2.2-.1-1.2-1-2.2-2.2-2.2"/></defs><clipPath id="b"><use xlink:href="#a" overflow="visible"/></clipPath><g clip-path="url(#b)"><defs><path id="c" d="M-698.2-1481.9h1440v3021h-1440z"/></defs><clipPath id="d"><use xlink:href="#c" overflow="visible"/></clipPath><path clip-path="url(#d)" fill="#0c0b68" d="M-252.5-604.5h14.3v14.3h-14.3z"/></g><defs><path id="e" d="M-271.2-599.5c-1.2 0-2.2 1-2.2 2.2 0 1.2 1 2.2 2.2 2.2 1.2 0 2.2-1 2.2-2.2-.1-1.2-1.1-2.2-2.2-2.2"/></defs><clipPath id="f"><use xlink:href="#e" overflow="visible"/></clipPath><g clip-path="url(#f)"><defs><path id="g" d="M-698.2-1481.9h1440v3021h-1440z"/></defs><clipPath id="h"><use xlink:href="#g" overflow="visible"/></clipPath><path clip-path="url(#h)" fill="#0c0b68" d="M-278.4-604.5h14.3v14.3h-14.3z"/></g><defs><path id="i" d="M-281.2-633.7h45.9v52.8h-45.9z"/></defs><clipPath id="j"><use xlink:href="#i" overflow="visible"/></clipPath><g clip-path="url(#j)"><defs><path id="k" d="M-698.2-1481.9h1440v3021h-1440z"/></defs><clipPath id="l"><use xlink:href="#k" overflow="visible"/></clipPath><g clip-path="url(#l)"><defs><path id="m" d="M-281.2-633.9h46v54h-46z"/></defs><clipPath id="n"><use xlink:href="#m" overflow="visible"/></clipPath><g clip-path="url(#n)"><defs><path id="o" d="M-240.6-633.7h-35.3c-2.9 0-5.3 2.4-5.3 5.3v35.9c0 2.2 1.3 4.1 3.3 4.9l.2.2v2c0 2.5 2.2 4.5 4.9 4.5s4.9-2 4.9-4.5v-1.8h19.4v1.8c0 2.5 2.2 4.5 4.9 4.5s4.9-2 4.9-4.5v-2l.2-.2c.8-.3 1.5-.8 2-1.4.5-.3.8-.7.9-1.3.3-.7.5-1.4.5-2.2v-35.9c-.2-2.9-2.5-5.3-5.5-5.3zm-30.6 48.3c0 .7-.7 1.3-1.6 1.3-.9 0-1.6-.6-1.6-1.3v-1.8h3.2v1.8zm29.1 0c0 .7-.7 1.3-1.6 1.3-.9 0-1.6-.6-1.6-1.3v-1.8h3.2v1.8zm3.1-7c0 .9-.7 1.6-1.6 1.6h-35.3c-.9 0-1.6-.7-1.6-1.6v-35.9c0-.9.7-1.6 1.6-1.6h35.3c.9 0 1.6.7 1.6 1.6v35.9z"/></defs><clipPath id="p"><use xlink:href="#o" overflow="visible"/></clipPath><g clip-path="url(#p)"><defs><path id="q" d="M-281.2-633.9h46v54h-46z"/></defs><clipPath id="r"><use xlink:href="#q" overflow="visible"/></clipPath><path clip-path="url(#r)" fill="#0c0b68" d="M-286.2-638.7h55.9v62.8h-55.9z"/></g></g></g></g><defs><path id="s" d="M-243.9-627.3h-28.8c-1.2 0-2.2 1-2.2 2.2v12.5c0 1.2 1 2.2 2.2 2.2h28.8c1.2 0 2.2-1 2.2-2.2v-12.5c0-1.2-1-2.2-2.2-2.2zm-1.3 12.8c0 .5-.4.9-.9.9h-24.6c-.5 0-.9-.4-.9-.9v-8.7c0-.5.4-.9.9-.9h24.6c.5 0 .9.4.9.9v8.7z"/></defs><clipPath id="t"><use xlink:href="#s" overflow="visible"/></clipPath><g clip-path="url(#t)"><defs><path id="u" d="M-698.2-1481.9h1440v3021h-1440z"/></defs><clipPath id="v"><use xlink:href="#u" overflow="visible"/></clipPath><path clip-path="url(#v)" fill="#0c0b68" d="M-279.9-632.3h43.1v26.9h-43.1z"/></g><defs><path id="w" d="M-245.3-599.5c-1.2 0-2.2 1-2.2 2.2 0 1.2 1 2.2 2.2 2.2 1.2 0 2.2-1 2.2-2.2-.1-1.2-1-2.2-2.2-2.2"/></defs><clipPath id="x"><use xlink:href="#w" overflow="visible"/></clipPath><g clip-path="url(#x)"><defs><path id="y" d="M-698.2-1481.9h1440v3021h-1440z"/></defs><clipPath id="z"><use xlink:href="#y" overflow="visible"/></clipPath><path clip-path="url(#z)" fill="#0c0b68" d="M-252.5-604.5h14.3v14.3h-14.3z"/></g><defs><path id="A" d="M-271.2-599.5c-1.2 0-2.2 1-2.2 2.2 0 1.2 1 2.2 2.2 2.2 1.2 0 2.2-1 2.2-2.2-.1-1.2-1.1-2.2-2.2-2.2"/></defs><clipPath id="B"><use xlink:href="#A" overflow="visible"/></clipPath><g clip-path="url(#B)"><defs><path id="C" d="M-698.2-1481.9h1440v3021h-1440z"/></defs><clipPath id="D"><use xlink:href="#C" overflow="visible"/></clipPath><path clip-path="url(#D)" fill="#0c0b68" d="M-278.4-604.5h14.3v14.3h-14.3z"/></g><defs><path id="E" d="M-281.2-633.7h45.9v52.8h-45.9z"/></defs><clipPath id="F"><use xlink:href="#E" overflow="visible"/></clipPath><g clip-path="url(#F)"><defs><path id="G" d="M-698.2-1481.9h1440v3021h-1440z"/></defs><clipPath id="H"><use xlink:href="#G" overflow="visible"/></clipPath><g clip-path="url(#H)"><defs><path id="I" d="M-281.2-633.9h46v54h-46z"/></defs><clipPath id="J"><use xlink:href="#I" overflow="visible"/></clipPath><g clip-path="url(#J)"><defs><path id="K" d="M-240.6-633.7h-35.3c-2.9 0-5.3 2.4-5.3 5.3v35.9c0 2.2 1.3 4.1 3.3 4.9l.2.2v2c0 2.5 2.2 4.5 4.9 4.5s4.9-2 4.9-4.5v-1.8h19.4v1.8c0 2.5 2.2 4.5 4.9 4.5s4.9-2 4.9-4.5v-2l.2-.2c.8-.3 1.5-.8 2-1.4.5-.3.8-.7.9-1.3.3-.7.5-1.4.5-2.2v-35.9c-.2-2.9-2.5-5.3-5.5-5.3zm-30.6 48.3c0 .7-.7 1.3-1.6 1.3-.9 0-1.6-.6-1.6-1.3v-1.8h3.2v1.8zm29.1 0c0 .7-.7 1.3-1.6 1.3-.9 0-1.6-.6-1.6-1.3v-1.8h3.2v1.8zm3.1-7c0 .9-.7 1.6-1.6 1.6h-35.3c-.9 0-1.6-.7-1.6-1.6v-35.9c0-.9.7-1.6 1.6-1.6h35.3c.9 0 1.6.7 1.6 1.6v35.9z"/></defs><clipPath id="L"><use xlink:href="#K" overflow="visible"/></clipPath><g clip-path="url(#L)"><defs><path id="M" d="M-281.2-633.9h46v54h-46z"/></defs><clipPath id="N"><use xlink:href="#M" overflow="visible"/></clipPath><path clip-path="url(#N)" fill="#0c0b68" d="M-286.2-638.7h55.9v62.8h-55.9z"/></g></g></g></g><defs><path id="O" d="M-243.9-627.3h-28.8c-1.2 0-2.2 1-2.2 2.2v12.5c0 1.2 1 2.2 2.2 2.2h28.8c1.2 0 2.2-1 2.2-2.2v-12.5c0-1.2-1-2.2-2.2-2.2zm-1.3 12.8c0 .5-.4.9-.9.9h-24.6c-.5 0-.9-.4-.9-.9v-8.7c0-.5.4-.9.9-.9h24.6c.5 0 .9.4.9.9v8.7z"/></defs><clipPath id="P"><use xlink:href="#O" overflow="visible"/></clipPath><g clip-path="url(#P)"><defs><path id="Q" d="M-698.2-1481.9h1440v3021h-1440z"/></defs><clipPath id="R"><use xlink:href="#Q" overflow="visible"/></clipPath><path clip-path="url(#R)" fill="#0c0b68" d="M-279.9-632.3h43.1v26.9h-43.1z"/></g><g><defs><path id="S" d="M37.2 774c-1.2 0-2.2 1-2.2 2.2 0 1.2 1 2.2 2.2 2.2 1.2 0 2.2-1 2.2-2.2-.1-1.2-1-2.2-2.2-2.2"/></defs><clipPath id="T"><use xlink:href="#S" overflow="visible"/></clipPath><g clip-path="url(#T)"><defs><path id="U" d="M-415.7-108.4h1440v3021h-1440z"/></defs><clipPath id="V"><use xlink:href="#U" overflow="visible"/></clipPath><path clip-path="url(#V)" fill="#0c0b68" d="M30 769h14.3v14.3H30z"/></g></g><g><defs><path id="W" d="M11.3 774c-1.2 0-2.2 1-2.2 2.2 0 1.2 1 2.2 2.2 2.2 1.2 0 2.2-1 2.2-2.2-.1-1.2-1.1-2.2-2.2-2.2"/></defs><clipPath id="X"><use xlink:href="#W" overflow="visible"/></clipPath><g clip-path="url(#X)"><defs><path id="Y" d="M-415.7-108.4h1440v3021h-1440z"/></defs><clipPath id="Z"><use xlink:href="#Y" overflow="visible"/></clipPath><path clip-path="url(#Z)" fill="#0c0b68" d="M4.1 769h14.3v14.3H4.1z"/></g></g><g><defs><path id="aa" d="M1.3 739.8h45.9v52.8H1.3z"/></defs><clipPath id="ab"><use xlink:href="#aa" overflow="visible"/></clipPath><g clip-path="url(#ab)"><defs><path id="ac" d="M-415.7-108.4h1440v3021h-1440z"/></defs><clipPath id="ad"><use xlink:href="#ac" overflow="visible"/></clipPath><g clip-path="url(#ad)"><defs><path id="ae" d="M1.3 739.6h46v54h-46z"/></defs><clipPath id="af"><use xlink:href="#ae" overflow="visible"/></clipPath><g clip-path="url(#af)"><defs><path id="ag" d="M41.9 739.8H6.6c-2.9 0-5.3 2.4-5.3 5.3V781c0 2.2 1.3 4.1 3.3 4.9l.2.2v2c0 2.5 2.2 4.5 4.9 4.5s4.9-2 4.9-4.5v-1.8H34v1.8c0 2.5 2.2 4.5 4.9 4.5s4.9-2 4.9-4.5v-2l.2-.2c.8-.3 1.5-.8 2-1.4.5-.3.8-.7.9-1.3.3-.7.5-1.4.5-2.2v-35.9c-.2-2.9-2.5-5.3-5.5-5.3zm-30.6 48.3c0 .7-.7 1.3-1.6 1.3-.9 0-1.6-.6-1.6-1.3v-1.8h3.2v1.8zm29.1 0c0 .7-.7 1.3-1.6 1.3-.9 0-1.6-.6-1.6-1.3v-1.8h3.2v1.8zm3.1-7c0 .9-.7 1.6-1.6 1.6H6.6c-.9 0-1.6-.7-1.6-1.6v-35.9c0-.9.7-1.6 1.6-1.6h35.3c.9 0 1.6.7 1.6 1.6v35.9z"/></defs><clipPath id="ah"><use xlink:href="#ag" overflow="visible"/></clipPath><g clip-path="url(#ah)"><defs><path id="ai" d="M1.3 739.6h46v54h-46z"/></defs><clipPath id="aj"><use xlink:href="#ai" overflow="visible"/></clipPath><path clip-path="url(#aj)" fill="#0c0b68" d="M-3.7 734.8h55.9v62.8H-3.7z"/></g></g></g></g></g><g><defs><path id="ak" d="M38.6 746.2H9.8c-1.2 0-2.2 1-2.2 2.2v12.5c0 1.2 1 2.2 2.2 2.2h28.8c1.2 0 2.2-1 2.2-2.2v-12.5c0-1.2-1-2.2-2.2-2.2zM37.3 759c0 .5-.4.9-.9.9H11.9c-.5 0-.9-.4-.9-.9v-8.7c0-.5.4-.9.9-.9h24.6c.5 0 .9.4.9.9v8.7z"/></defs><clipPath id="al"><use xlink:href="#ak" overflow="visible"/></clipPath><g clip-path="url(#al)"><defs><path id="am" d="M-415.7-108.4h1440v3021h-1440z"/></defs><clipPath id="an"><use xlink:href="#am" overflow="visible"/></clipPath><path clip-path="url(#an)" fill="#0c0b68" d="M2.6 741.2h43.1v26.9H2.6z"/></g></g><g><defs><path id="ao" d="M-246.4-599.5c-1.2 0-2.2 1-2.2 2.2 0 1.2 1 2.2 2.2 2.2 1.2 0 2.2-1 2.2-2.2-.1-1.2-1-2.2-2.2-2.2"/></defs><clipPath id="ap"><use xlink:href="#ao" overflow="visible"/></clipPath><g clip-path="url(#ap)"><defs><path id="aq" d="M-699.3-1481.9h1440v3021h-1440z"/></defs><clipPath id="ar"><use xlink:href="#aq" overflow="visible"/></clipPath><path clip-path="url(#ar)" fill="#0c0b68" d="M-253.6-604.5h14.3v14.3h-14.3z"/></g></g><g><defs><path id="as" d="M-272.3-599.5c-1.2 0-2.2 1-2.2 2.2 0 1.2 1 2.2 2.2 2.2 1.2 0 2.2-1 2.2-2.2-.1-1.2-1.1-2.2-2.2-2.2"/></defs><clipPath id="at"><use xlink:href="#as" overflow="visible"/></clipPath><g clip-path="url(#at)"><defs><path id="au" d="M-699.3-1481.9h1440v3021h-1440z"/></defs><clipPath id="av"><use xlink:href="#au" overflow="visible"/></clipPath><path clip-path="url(#av)" fill="#0c0b68" d="M-279.5-604.5h14.3v14.3h-14.3z"/></g></g><g><defs><path id="aw" d="M-282.3-633.7h45.9v52.8h-45.9z"/></defs><clipPath id="ax"><use xlink:href="#aw" overflow="visible"/></clipPath><g clip-path="url(#ax)"><defs><path id="ay" d="M-699.3-1481.9h1440v3021h-1440z"/></defs><clipPath id="az"><use xlink:href="#ay" overflow="visible"/></clipPath><g clip-path="url(#az)"><defs><path id="aA" d="M-282.3-633.9h46v54h-46z"/></defs><clipPath id="aB"><use xlink:href="#aA" overflow="visible"/></clipPath><g clip-path="url(#aB)"><defs><path id="aC" d="M-241.7-633.7H-277c-2.9 0-5.3 2.4-5.3 5.3v35.9c0 2.2 1.3 4.1 3.3 4.9l.2.2v2c0 2.5 2.2 4.5 4.9 4.5s4.9-2 4.9-4.5v-1.8h19.4v1.8c0 2.5 2.2 4.5 4.9 4.5s4.9-2 4.9-4.5v-2l.2-.2c.8-.3 1.5-.8 2-1.4.5-.3.8-.7.9-1.3.3-.7.5-1.4.5-2.2v-35.9c-.2-2.9-2.5-5.3-5.5-5.3zm-30.6 48.3c0 .7-.7 1.3-1.6 1.3-.9 0-1.6-.6-1.6-1.3v-1.8h3.2v1.8zm29.1 0c0 .7-.7 1.3-1.6 1.3-.9 0-1.6-.6-1.6-1.3v-1.8h3.2v1.8zm3.1-7c0 .9-.7 1.6-1.6 1.6H-277c-.9 0-1.6-.7-1.6-1.6v-35.9c0-.9.7-1.6 1.6-1.6h35.3c.9 0 1.6.7 1.6 1.6v35.9z"/></defs><clipPath id="aD"><use xlink:href="#aC" overflow="visible"/></clipPath><g clip-path="url(#aD)"><defs><path id="aE" d="M-282.3-633.9h46v54h-46z"/></defs><clipPath id="aF"><use xlink:href="#aE" overflow="visible"/></clipPath><path clip-path="url(#aF)" fill="#0c0b68" d="M-287.3-638.7h55.9v62.8h-55.9z"/></g></g></g></g></g><g><defs><path id="aG" d="M-245-627.3h-28.8c-1.2 0-2.2 1-2.2 2.2v12.5c0 1.2 1 2.2 2.2 2.2h28.8c1.2 0 2.2-1 2.2-2.2v-12.5c0-1.2-1-2.2-2.2-2.2zm-1.3 12.8c0 .5-.4.9-.9.9h-24.6c-.5 0-.9-.4-.9-.9v-8.7c0-.5.4-.9.9-.9h24.6c.5 0 .9.4.9.9v8.7z"/></defs><clipPath id="aH"><use xlink:href="#aG" overflow="visible"/></clipPath><g clip-path="url(#aH)"><defs><path id="aI" d="M-699.3-1481.9h1440v3021h-1440z"/></defs><clipPath id="aJ"><use xlink:href="#aI" overflow="visible"/></clipPath><path clip-path="url(#aJ)" fill="#0c0b68" d="M-281-632.3h43.1v26.9H-281z"/></g></g><g><defs><path id="aK" d="M-282.3-633.7h45.9v52.8h-45.9z"/></defs><clipPath id="aL"><use xlink:href="#aK" overflow="visible"/></clipPath><g clip-path="url(#aL)"><defs><path id="aM" d="M-699.3-1481.9h1440v3021h-1440z"/></defs><clipPath id="aN"><use xlink:href="#aM" overflow="visible"/></clipPath><g clip-path="url(#aN)"><defs><path id="aO" d="M-282.3-633.9h46v54h-46z"/></defs><clipPath id="aP"><use xlink:href="#aO" overflow="visible"/></clipPath><g clip-path="url(#aP)"><defs><path id="aQ" d="M-241.7-633.7H-277c-2.9 0-5.3 2.4-5.3 5.3v35.9c0 2.2 1.3 4.1 3.3 4.9l.2.2v2c0 2.5 2.2 4.5 4.9 4.5s4.9-2 4.9-4.5v-1.8h19.4v1.8c0 2.5 2.2 4.5 4.9 4.5s4.9-2 4.9-4.5v-2l.2-.2c.8-.3 1.5-.8 2-1.4.5-.3.8-.7.9-1.3.3-.7.5-1.4.5-2.2v-35.9c-.2-2.9-2.5-5.3-5.5-5.3zm-30.6 48.3c0 .7-.7 1.3-1.6 1.3-.9 0-1.6-.6-1.6-1.3v-1.8h3.2v1.8zm29.1 0c0 .7-.7 1.3-1.6 1.3-.9 0-1.6-.6-1.6-1.3v-1.8h3.2v1.8zm3.1-7c0 .9-.7 1.6-1.6 1.6H-277c-.9 0-1.6-.7-1.6-1.6v-35.9c0-.9.7-1.6 1.6-1.6h35.3c.9 0 1.6.7 1.6 1.6v35.9z"/></defs><clipPath id="aR"><use xlink:href="#aQ" overflow="visible"/></clipPath><g clip-path="url(#aR)"><defs><path id="aS" d="M-282.3-633.9h46v54h-46z"/></defs><clipPath id="aT"><use xlink:href="#aS" overflow="visible"/></clipPath><path clip-path="url(#aT)" fill="#0c0b68" d="M-287.3-638.7h55.9v62.8h-55.9z"/></g></g></g></g></g><g><defs><path id="aU" d="M-246.4-599.5c-1.2 0-2.2 1-2.2 2.2 0 1.2 1 2.2 2.2 2.2 1.2 0 2.2-1 2.2-2.2-.1-1.2-1-2.2-2.2-2.2"/></defs><clipPath id="aV"><use xlink:href="#aU" overflow="visible"/></clipPath><g clip-path="url(#aV)"><defs><path id="aW" d="M-699.3-1481.9h1440v3021h-1440z"/></defs><clipPath id="aX"><use xlink:href="#aW" overflow="visible"/></clipPath><path clip-path="url(#aX)" fill="#0c0b68" d="M-253.6-604.5h14.3v14.3h-14.3z"/></g></g><g><defs><path id="aY" d="M-272.3-599.5c-1.2 0-2.2 1-2.2 2.2 0 1.2 1 2.2 2.2 2.2 1.2 0 2.2-1 2.2-2.2-.1-1.2-1.1-2.2-2.2-2.2"/></defs><clipPath id="aZ"><use xlink:href="#aY" overflow="visible"/></clipPath><g clip-path="url(#aZ)"><defs><path id="ba" d="M-699.3-1481.9h1440v3021h-1440z"/></defs><clipPath id="bb"><use xlink:href="#ba" overflow="visible"/></clipPath><path clip-path="url(#bb)" fill="#0c0b68" d="M-279.5-604.5h14.3v14.3h-14.3z"/></g></g><g><defs><path id="bc" d="M-282.3-633.7h45.9v52.8h-45.9z"/></defs><clipPath id="bd"><use xlink:href="#bc" overflow="visible"/></clipPath><g clip-path="url(#bd)"><defs><path id="be" d="M-699.3-1481.9h1440v3021h-1440z"/></defs><clipPath id="bf"><use xlink:href="#be" overflow="visible"/></clipPath><g clip-path="url(#bf)"><defs><path id="bg" d="M-282.3-633.9h46v54h-46z"/></defs><clipPath id="bh"><use xlink:href="#bg" overflow="visible"/></clipPath><g clip-path="url(#bh)"><defs><path id="bi" d="M-241.7-633.7H-277c-2.9 0-5.3 2.4-5.3 5.3v35.9c0 2.2 1.3 4.1 3.3 4.9l.2.2v2c0 2.5 2.2 4.5 4.9 4.5s4.9-2 4.9-4.5v-1.8h19.4v1.8c0 2.5 2.2 4.5 4.9 4.5s4.9-2 4.9-4.5v-2l.2-.2c.8-.3 1.5-.8 2-1.4.5-.3.8-.7.9-1.3.3-.7.5-1.4.5-2.2v-35.9c-.2-2.9-2.5-5.3-5.5-5.3zm-30.6 48.3c0 .7-.7 1.3-1.6 1.3-.9 0-1.6-.6-1.6-1.3v-1.8h3.2v1.8zm29.1 0c0 .7-.7 1.3-1.6 1.3-.9 0-1.6-.6-1.6-1.3v-1.8h3.2v1.8zm3.1-7c0 .9-.7 1.6-1.6 1.6H-277c-.9 0-1.6-.7-1.6-1.6v-35.9c0-.9.7-1.6 1.6-1.6h35.3c.9 0 1.6.7 1.6 1.6v35.9z"/></defs><clipPath id="bj"><use xlink:href="#bi" overflow="visible"/></clipPath><g clip-path="url(#bj)"><defs><path id="bk" d="M-282.3-633.9h46v54h-46z"/></defs><clipPath id="bl"><use xlink:href="#bk" overflow="visible"/></clipPath><path clip-path="url(#bl)" fill="#0c0b68" d="M-287.3-638.7h55.9v62.8h-55.9z"/></g></g></g></g></g><g><defs><path id="bm" d="M-245-627.3h-28.8c-1.2 0-2.2 1-2.2 2.2v12.5c0 1.2 1 2.2 2.2 2.2h28.8c1.2 0 2.2-1 2.2-2.2v-12.5c0-1.2-1-2.2-2.2-2.2zm-1.3 12.8c0 .5-.4.9-.9.9h-24.6c-.5 0-.9-.4-.9-.9v-8.7c0-.5.4-.9.9-.9h24.6c.5 0 .9.4.9.9v8.7z"/></defs><clipPath id="bn"><use xlink:href="#bm" overflow="visible"/></clipPath><g clip-path="url(#bn)"><defs><path id="bo" d="M-699.3-1481.9h1440v3021h-1440z"/></defs><clipPath id="bp"><use xlink:href="#bo" overflow="visible"/></clipPath><path clip-path="url(#bp)" fill="#0c0b68" d="M-281-632.3h43.1v26.9H-281z"/></g></g><g><defs><path id="bq" d="M29.6 3.6C29.6 1.6 28 0 26 0H3.6C1.6 0 0 1.6 0 3.6v32.6c0 2 1.6 3.6 3.6 3.6h8.9c.4 3.5 1.2 7.7 4.2 10.4.1.1.2.1.3.2.4.3.7.6.8.8v2.1c0 2 1.7 4.3 3.9 4.3h15.8c2 0 3.6-1.6 3.6-3.6V26.5c.1-1.3.8-7.6-11.4-15.8V3.6zm-6.2 23.3c-.4-3.9-2.4-5.7-5.6-5.6-3.6.1-5.2 3.3-5.2 5.7v9.3h-9v-33h22.5v33h-2.7v-9.4zm14.1 27.3H21.9s-.4-.2-.4-.8v-2.2c0-1.7-1.5-2.9-2.2-3.4l-.1-.1c-2.1-1.8-2.7-5.8-3-7.9-.2-1.1 0-13.1 0-13.1 0-1.6 1.1-2.1 1.9-2.1.8 0 1.7.5 1.7 2l.3 13.2H26c2 0 3.6-1.6 3.6-3.6v-21c8.7 5.9 7.8 10.7 7.9 11.3V54.2zM5.8 7h18v4h-18V7z"/></defs><clipPath id="br"><use xlink:href="#bq" overflow="visible"/></clipPath><path clip-path="url(#br)" fill="#0c0b68" d="M-5-5h51.1v67.6H-5z"/></g></svg>