<svg version="1.1" id="Layer_1" xmlns="http://www.w3.org/2000/svg" x="0" y="0" viewBox="0 0 233 75" xml:space="preserve" enable-background="new 0 0 233 75"><style>.st1,.st3,.st4{fill-rule:evenodd;clip-rule:evenodd;fill:#fff}.st3,.st4{fill:#006fcf}.st4{fill:#00175a}</style><g id="Symbols"><g id="AMEX-logo"><g id="Group-3" transform="translate(11)"><defs><filter id="Adobe_OpacityMaskFilter" filterUnits="userSpaceOnUse" x=".3" y="0" width="75.5" height="75"><feColorMatrix values="1 0 0 0 0 0 1 0 0 0 0 0 1 0 0 0 0 0 1 0"/></filter></defs><mask maskUnits="userSpaceOnUse" x=".3" y="0" width="75.5" height="75" id="mask-2_1_"><g filter="url(#Adobe_OpacityMaskFilter)"><path id="path-1_1_" class="st1" d="M.3 0h75.5v75H.3z"/></g></mask><path id="Fill-1" d="M71.6 46.9v-6.3h4.2V0H.3v28.8l3.1-3.3-.8 10.9H.3V75h75.5V53.1c-.1.1-4 .1-4.2.2v-6.4z" mask="url(#mask-2_1_)" fill-rule="evenodd" clip-rule="evenodd" fill="#006fcf"/></g><path id="Fill-4" class="st1" d="M77.8 36.4h5.7V23h-6.2v1.9L76.1 23h-5.4v2.4l-1-2.4H61c-.4 0-.8 0-1.1.1-.4.1-.7.1-1.1.2-.3.1-.5.2-.8.3-.3.1-.5.2-.8.4v-1H29.1l-.8 2.2-.7-2.2h-6.7v2.4l-1-2.4h-5.4L12 28.7v7.6h3.8l.7-1.9h1.3l.7 1.9H48v-1.6l1.2 1.6h8.1V35.4c.2.1.5.3.7.4.2.1.5.2.7.3.3.1.7.2 1 .2.4.1.8.1 1.1.1h4.8l.7-1.9h1.3l.7 1.9h8.3v-1.7l1.2 1.7zM87 53.2V40.6H41l-1.2 1.7-1.2-1.7H25.3V54h13.3l1.2-1.8L41 54h8.3v-2.9H49c1.1 0 2.1-.2 3-.6V54h6v-1.6l1.2 1.6H84c1.2 0 2.2-.3 3-.8z"/><path id="Fill-6" class="st3" d="M84.1 50.2h-4.5V52H84c1.9 0 3.1-1.2 3.1-2.8 0-1.6-1.1-2.6-2.8-2.6h-2c-.5 0-.9-.3-.9-.9 0-.5.4-.9.9-.9H86l.8-1.8h-4.5c-1.9 0-3.1 1.2-3.1 2.8 0 1.7 1.1 2.6 2.8 2.6h2c.5 0 .9.3.9.9.1.5-.3.9-.8.9zm-8.3 0h-4.5V52h4.4c1.9 0 3.1-1.2 3.1-2.8 0-1.6-1.1-2.6-2.8-2.6h-2c-.5 0-.9-.3-.9-.9 0-.5.4-.9.9-.9h3.8l.8-1.8h-4.5c-1.9 0-3.1 1.2-3.1 2.8 0 1.7 1.1 2.6 2.8 2.6h2c.5 0 .9.3.9.9 0 .5-.4.9-.9.9zm-5.9-5.4V43h-7v9h7v-1.8h-5v-1.8h4.9v-1.8h-4.9v-1.8h5zm-11.5 0c.8 0 1.2.5 1.2 1.1 0 .6-.4 1.1-1.2 1.1h-2.5v-2.1h2.5zm-2.5 3.9h1l2.7 3.3h2.6l-2.9-3.4c1.5-.3 2.4-1.4 2.4-2.8 0-1.7-1.2-2.9-3-2.9h-4.8v9h2v-3.2zM50.5 46c0 .6-.4 1.2-1.2 1.2h-2.6v-2.3h2.6c.8-.1 1.2.5 1.2 1.1zm-5.8-3v9h2v-3h2.7c1.9 0 3.1-1.3 3.1-3 0-1.8-1.2-3-3-3h-4.8zm-3.2 9h2.6l-3.6-4.5L44 43h-2.5l-2.2 2.9-2.2-2.9h-2.6l3.6 4.5-3.5 4.5h2.5l2.2-3 2.2 3zM34 44.8V43h-7v9h7v-1.8h-5v-1.8h4.9v-1.8H29v-1.8h5z"/><path id="Fill-8" class="st3" d="M75.1 28.5l3.5 5.5H81v-9h-2v5.9l-.5-.9-3.2-5h-2.6v9h2v-6.1l.4.6zm-8.9-.2l.7-1.9.7 1.9.8 2.1h-3l.8-2.1zm3.6 5.7H72l-3.8-9h-2.7l-3.8 9H64l.8-1.9h4.3l.7 1.9zm-9.3 0l.9-1.8h-.6c-1.5 0-2.4-1-2.4-2.6v-.2c0-1.5.8-2.5 2.3-2.5H63V25h-2.4c-2.7 0-4.2 1.9-4.2 4.4v.2c.1 2.6 1.6 4.4 4.1 4.4zM53 34h2v-9h-2v9zm-4.4-7.2c.8 0 1.2.5 1.2 1.1 0 .6-.4 1.1-1.2 1.1h-2.5v-2.1h2.5zm-2.5 3.9h1l2.7 3.3h2.5l-2.9-3.4c1.5-.3 2.4-1.4 2.4-2.8 0-1.7-1.2-2.9-3-2.9H44v9h2v-3.2zm-3.7-3.9V25h-7v9h7v-1.8h-4.9v-1.8h4.8v-1.8h-4.8v-1.8h4.9zM27.3 34h1.8l2.5-7.3V34h2v-9h-3.3l-2.1 6.1-2-6.1h-3.4v9h2v-7.3l2.5 7.3zm-10.9-5.7l.7-1.9.7 1.9.8 2.1h-3l.8-2.1zM20 34h2.2l-3.8-9h-2.7L12 34h2.2l.8-1.9h4.3L20 34z"/><path id="Fill-10" class="st3" d="M3.1 70.8v-1.5H4c.6 0 1 .2 1 .7 0 .6-.4.8-1 .8h-.9zm-.6 2.3h.6v-1.9H4l1 1.9h.7l-1-1.9c.6-.1 1-.5 1-1.2 0-.8-.6-1.2-1.6-1.2H2.5v4.3zM4 74.5C2 74.5.5 72.9.5 71c0-2 1.5-3.5 3.5-3.5 1.9 0 3.5 1.6 3.5 3.5 0 2-1.5 3.5-3.5 3.5zm0 .5c2.2 0 4-1.8 4-4s-1.8-4-4-4c-2.3 0-4 1.8-4 4s1.7 4 4 4z"/><path id="Fill-12" class="st4" d="M114 23c2.8 0 4.4-1.8 4.8-2.9v2.5h3.2v-9.2h-7v3h3.2c-.4 2-1.7 3.3-3.7 3.3-1.9 0-4.4-1.3-4.4-6.4 0-5.1 2.8-6 4.2-6 1.8 0 3 1 3.7 3.5l3.7-1c-1.2-4.5-3.9-5.9-7.4-5.9-5.1 0-8.3 3.7-8.3 9.4 0 5.6 2.5 9.7 8 9.7"/><path id="Fill-14" class="st4" d="M138 23v-3.2h-8V5h-4v18z"/><path id="Fill-16" class="st4" d="M146.5 19.8c-2.8 0-4.5-2.4-4.5-6.3 0-3.8 1.7-6.2 4.5-6.2s4.5 2.3 4.5 6.2c0 3.8-1.7 6.3-4.5 6.3m0 3.2c4.3 0 8.5-3.1 8.5-9.5S150.9 4 146.5 4s-8.5 3.1-8.5 9.5 4.1 9.5 8.5 9.5"/><path id="Fill-18" class="st4" d="M161.9 15.2h3c2.2 0 3.3.8 3.3 2.4 0 1.5-1 2.4-3.1 2.4h-3.2v-4.8zm0-7.1h2.9c2.1 0 2.9.8 2.9 2.2 0 1.4-.9 2.2-3 2.2h-2.9V8.1zm3.6 14.9c3.3 0 6.5-1.3 6.5-5 0-2.9-1.7-4-3.9-4.4 1.8-.4 3.4-1.6 3.4-4.1 0-3.6-3.1-4.5-6.4-4.5H158v18h7.5z"/><path id="Fill-20" class="st4" d="M176.8 23l1.4-4h6.3l1.4 4h4.1l-6.6-18h-3.9L173 23h3.8zm4.6-13l2.2 6.1h-4.4l2.2-6.1z"/><path id="Fill-22" class="st4" d="M204 23v-3.2h-8V5h-4v18z"/><path id="Fill-24" class="st4" d="M111.9 39.2h3c2.2 0 3.3.8 3.3 2.4 0 1.5-1 2.4-3.1 2.4h-3.2v-4.8zm0-7.1h2.9c2.1 0 2.9.8 2.9 2.2 0 1.4-.9 2.2-3 2.2h-2.9v-4.4zm3.6 14.9c3.3 0 6.5-1.3 6.5-5 0-2.9-1.7-4-3.9-4.4 1.8-.4 3.4-1.6 3.4-4.1 0-3.6-3.1-4.5-6.4-4.5H108v18h7.5z"/><path id="Fill-26" class="st4" d="M132.5 47c5.2 0 7.5-2.9 7.5-7.5V28h-4v11.4c0 2.7-1 4.2-3.4 4.2s-3.5-1.5-3.5-4.2V28H125v11.5c0 4.6 2.3 7.5 7.5 7.5"/><path id="Fill-28" class="st4" d="M149.7 47c5.1 0 7.3-2.6 7.3-5.6 0-3.8-3.4-4.8-6.6-5.7-2.4-.7-3.7-1.2-3.7-2.6 0-1.1.9-1.8 2.6-1.8 1.8 0 3.5 1 4.5 2.6l2.8-2.1c-1.3-2-3.5-3.8-7.2-3.8-3.9 0-6.6 2.1-6.6 5.5 0 3.8 3.4 4.7 6.6 5.6 2.4.7 3.7 1.3 3.7 2.6 0 1.4-1.3 2.1-3.2 2.1-2.1 0-3.9-1.1-4.9-3.1l-3 1.8c1.4 2.6 3.8 4.5 7.7 4.5"/><path id="Fill-30" class="st4" d="M164 47V29h-4v18h1.6z"/><path id="Fill-32" class="st4" d="M170.8 47V35.4h.1l8.3 11.6h3.8V29h-3.8v11.5h-.1L171.2 29H167v18z"/><path id="Fill-34" class="st4" d="M200 47v-3.2h-8.9v-4.5h6.1v-3.1h-6.1v-3.9h8.5V29H187v18z"/><path id="Fill-36" class="st4" d="M208.7 47c5.1 0 7.3-2.6 7.3-5.6 0-3.8-3.4-4.8-6.6-5.7-2.4-.7-3.7-1.2-3.7-2.6 0-1.1.9-1.8 2.6-1.8 1.8 0 3.5 1 4.5 2.6l2.8-2.1c-1.3-2-3.5-3.8-7.2-3.8-3.9 0-6.6 2.1-6.6 5.5 0 3.8 3.4 4.7 6.6 5.6 2.4.7 3.7 1.3 3.7 2.6 0 1.4-1.3 2.1-3.2 2.1-2.1 0-3.9-1.1-4.9-3.1l-3 1.8c1.4 2.6 3.8 4.5 7.7 4.5"/><path id="Fill-38" class="st4" d="M225.7 47c5.1 0 7.3-2.6 7.3-5.6 0-3.8-3.4-4.8-6.6-5.7-2.4-.7-3.7-1.2-3.7-2.6 0-1.1.9-1.8 2.6-1.8 1.8 0 3.5 1 4.5 2.6l2.8-2.1c-1.3-2-3.5-3.8-7.2-3.8-3.9 0-6.6 2.1-6.6 5.5 0 3.8 3.4 4.7 6.6 5.6 2.4.7 3.7 1.3 3.7 2.6 0 1.4-1.3 2.1-3.2 2.1-2.1 0-3.9-1.1-4.9-3.1l-3 1.8c1.4 2.6 3.8 4.5 7.7 4.5"/><path id="Fill-40" class="st4" d="M117.5 70V55.3h5.5V52h-15v3.3h5.5V70z"/><path id="Fill-42" class="st4" d="M128.9 70v-6.8h2.3l3.7 6.8h4.2l-4-7.3c2.4-.7 3.7-2.3 3.7-5.1 0-4-2.6-5.6-7-5.6H125v18h3.9zm0-14.8h2.7c2.3 0 3.4.7 3.4 2.4 0 1.8-1.1 2.5-3.4 2.5h-2.7v-4.9z"/><path id="Fill-44" class="st4" d="M143.8 70l1.4-4h6.3l1.4 4h4.1l-6.6-18h-3.9L140 70h3.8zm4.6-13l2.2 6.1h-4.4l2.2-6.1z"/><path id="Fill-46" class="st4" d="M165.9 70l6.1-18h-3.7l-4.2 12.8h-.1L160 52h-4l6.1 18z"/><path id="Fill-48" class="st4" d="M187 70v-3.2h-8.9v-4.5h6.1v-3.1h-6.1v-3.9h8.5V52H174v18z"/><path id="Fill-50" class="st4" d="M202 70v-3.2h-8V52h-4v18z"/></g></g></svg>