<svg xmlns="http://www.w3.org/2000/svg" xmlns:xlink="http://www.w3.org/1999/xlink" viewBox="0 0 22 22"><defs><path id="a" d="M21.5 2.7L19.2.4c-.6-.6-1.6-.6-2.2 0l-1.7 1.7L1.6 15.9c-.1.1-.2.2-.2.3L0 21c-.1.3 0 .6.2.8.2.1.4.2.6.2H1l4.7-1.3c.1 0 .2-.1.3-.2L19.8 6.7 21.5 5c.7-.7.7-1.7 0-2.3zM5.1 19.2l-3.2.9.9-3.2L15.9 3.8l2.3 2.3L5.1 19.2zM19.3 5L17 2.7l1.2-1.2 2.3 2.3L19.3 5z"/></defs><clipPath id="b"><use xlink:href="#a" overflow="visible"/></clipPath><g clip-path="url(#b)"><defs><path id="c" d="M-667-1657H773v3021H-667z"/></defs><clipPath id="d"><use xlink:href="#c" overflow="visible"/></clipPath><path clip-path="url(#d)" fill="#006fcf" d="M-5-5h32v32H-5z"/></g></svg>