<svg xmlns="http://www.w3.org/2000/svg" xmlns:xlink="http://www.w3.org/1999/xlink" viewBox="0 0 23 30"><defs><path id="a" d="M-252.6-613.3c-1.2 0-2.2 1-2.2 2.2 0 1.2 1 2.2 2.2 2.2 1.2 0 2.2-1 2.2-2.2 0-1.2-1-2.2-2.2-2.2"/></defs><clipPath id="b"><use xlink:href="#a" overflow="visible"/></clipPath><g clip-path="url(#b)"><defs><path id="c" d="M-705.4-1495.7h1440v3021h-1440z"/></defs><clipPath id="d"><use xlink:href="#c" overflow="visible"/></clipPath><path clip-path="url(#d)" fill="#0c0b68" d="M-259.8-618.3h14.3v14.3h-14.3z"/></g><defs><path id="e" d="M-278.5-613.3c-1.2 0-2.2 1-2.2 2.2 0 1.2 1 2.2 2.2 2.2 1.2 0 2.2-1 2.2-2.2-.1-1.2-1-2.2-2.2-2.2"/></defs><clipPath id="f"><use xlink:href="#e" overflow="visible"/></clipPath><g clip-path="url(#f)"><defs><path id="g" d="M-705.4-1495.7h1440v3021h-1440z"/></defs><clipPath id="h"><use xlink:href="#g" overflow="visible"/></clipPath><path clip-path="url(#h)" fill="#0c0b68" d="M-285.7-618.3h14.3v14.3h-14.3z"/></g><defs><path id="i" d="M-288.4-647.5h45.9v52.8h-45.9z"/></defs><clipPath id="j"><use xlink:href="#i" overflow="visible"/></clipPath><g clip-path="url(#j)"><defs><path id="k" d="M-705.4-1495.7h1440v3021h-1440z"/></defs><clipPath id="l"><use xlink:href="#k" overflow="visible"/></clipPath><g clip-path="url(#l)"><defs><path id="m" d="M-288.4-647.7h46v54h-46z"/></defs><clipPath id="n"><use xlink:href="#m" overflow="visible"/></clipPath><g clip-path="url(#n)"><defs><path id="o" d="M-247.8-647.5h-35.3c-2.9 0-5.3 2.4-5.3 5.3v35.9c0 2.2 1.3 4.1 3.3 4.9l.2.2v2c0 2.5 2.2 4.5 4.9 4.5s4.9-2 4.9-4.5v-1.8h19.4v1.8c0 2.5 2.2 4.5 4.9 4.5s4.9-2 4.9-4.5v-2l.2-.2c.8-.3 1.5-.8 2-1.4.5-.3.8-.7.9-1.3.3-.7.5-1.4.5-2.2v-35.9c-.2-2.9-2.6-5.3-5.5-5.3zm-30.7 48.3c0 .7-.7 1.3-1.6 1.3-.9 0-1.6-.6-1.6-1.3v-1.8h3.2v1.8zm29.1 0c0 .7-.7 1.3-1.6 1.3-.9 0-1.6-.6-1.6-1.3v-1.8h3.2v1.8zm3.2-7c0 .9-.7 1.6-1.6 1.6h-35.3c-.9 0-1.6-.7-1.6-1.6v-35.9c0-.9.7-1.6 1.6-1.6h35.3c.9 0 1.6.7 1.6 1.6v35.9z"/></defs><clipPath id="p"><use xlink:href="#o" overflow="visible"/></clipPath><g clip-path="url(#p)"><defs><path id="q" d="M-288.4-647.7h46v54h-46z"/></defs><clipPath id="r"><use xlink:href="#q" overflow="visible"/></clipPath><path clip-path="url(#r)" fill="#0c0b68" d="M-293.4-652.5h55.9v62.8h-55.9z"/></g></g></g></g><defs><path id="s" d="M-251.1-641.1H-280c-1.2 0-2.2 1-2.2 2.2v12.5c0 1.2 1 2.2 2.2 2.2h28.8c1.2 0 2.2-1 2.2-2.2v-12.5c0-1.2-1-2.2-2.1-2.2zm-1.3 12.8c0 .5-.4.9-.9.9h-24.6c-.5 0-.9-.4-.9-.9v-8.7c0-.5.4-.9.9-.9h24.6c.5 0 .9.4.9.9v8.7z"/></defs><clipPath id="t"><use xlink:href="#s" overflow="visible"/></clipPath><g clip-path="url(#t)"><defs><path id="u" d="M-705.4-1495.7h1440v3021h-1440z"/></defs><clipPath id="v"><use xlink:href="#u" overflow="visible"/></clipPath><path clip-path="url(#v)" fill="#0c0b68" d="M-287.1-646.1h43.1v26.9h-43.1z"/></g><defs><path id="w" d="M-252.6-613.3c-1.2 0-2.2 1-2.2 2.2 0 1.2 1 2.2 2.2 2.2 1.2 0 2.2-1 2.2-2.2 0-1.2-1-2.2-2.2-2.2"/></defs><clipPath id="x"><use xlink:href="#w" overflow="visible"/></clipPath><g clip-path="url(#x)"><defs><path id="y" d="M-705.4-1495.7h1440v3021h-1440z"/></defs><clipPath id="z"><use xlink:href="#y" overflow="visible"/></clipPath><path clip-path="url(#z)" fill="#0c0b68" d="M-259.8-618.3h14.3v14.3h-14.3z"/></g><defs><path id="A" d="M-278.5-613.3c-1.2 0-2.2 1-2.2 2.2 0 1.2 1 2.2 2.2 2.2 1.2 0 2.2-1 2.2-2.2-.1-1.2-1-2.2-2.2-2.2"/></defs><clipPath id="B"><use xlink:href="#A" overflow="visible"/></clipPath><g clip-path="url(#B)"><defs><path id="C" d="M-705.4-1495.7h1440v3021h-1440z"/></defs><clipPath id="D"><use xlink:href="#C" overflow="visible"/></clipPath><path clip-path="url(#D)" fill="#0c0b68" d="M-285.7-618.3h14.3v14.3h-14.3z"/></g><defs><path id="E" d="M-288.4-647.5h45.9v52.8h-45.9z"/></defs><clipPath id="F"><use xlink:href="#E" overflow="visible"/></clipPath><g clip-path="url(#F)"><defs><path id="G" d="M-705.4-1495.7h1440v3021h-1440z"/></defs><clipPath id="H"><use xlink:href="#G" overflow="visible"/></clipPath><g clip-path="url(#H)"><defs><path id="I" d="M-288.4-647.7h46v54h-46z"/></defs><clipPath id="J"><use xlink:href="#I" overflow="visible"/></clipPath><g clip-path="url(#J)"><defs><path id="K" d="M-247.8-647.5h-35.3c-2.9 0-5.3 2.4-5.3 5.3v35.9c0 2.2 1.3 4.1 3.3 4.9l.2.2v2c0 2.5 2.2 4.5 4.9 4.5s4.9-2 4.9-4.5v-1.8h19.4v1.8c0 2.5 2.2 4.5 4.9 4.5s4.9-2 4.9-4.5v-2l.2-.2c.8-.3 1.5-.8 2-1.4.5-.3.8-.7.9-1.3.3-.7.5-1.4.5-2.2v-35.9c-.2-2.9-2.6-5.3-5.5-5.3zm-30.7 48.3c0 .7-.7 1.3-1.6 1.3-.9 0-1.6-.6-1.6-1.3v-1.8h3.2v1.8zm29.1 0c0 .7-.7 1.3-1.6 1.3-.9 0-1.6-.6-1.6-1.3v-1.8h3.2v1.8zm3.2-7c0 .9-.7 1.6-1.6 1.6h-35.3c-.9 0-1.6-.7-1.6-1.6v-35.9c0-.9.7-1.6 1.6-1.6h35.3c.9 0 1.6.7 1.6 1.6v35.9z"/></defs><clipPath id="L"><use xlink:href="#K" overflow="visible"/></clipPath><g clip-path="url(#L)"><defs><path id="M" d="M-288.4-647.7h46v54h-46z"/></defs><clipPath id="N"><use xlink:href="#M" overflow="visible"/></clipPath><path clip-path="url(#N)" fill="#0c0b68" d="M-293.4-652.5h55.9v62.8h-55.9z"/></g></g></g></g><defs><path id="O" d="M-251.1-641.1H-280c-1.2 0-2.2 1-2.2 2.2v12.5c0 1.2 1 2.2 2.2 2.2h28.8c1.2 0 2.2-1 2.2-2.2v-12.5c0-1.2-1-2.2-2.1-2.2zm-1.3 12.8c0 .5-.4.9-.9.9h-24.6c-.5 0-.9-.4-.9-.9v-8.7c0-.5.4-.9.9-.9h24.6c.5 0 .9.4.9.9v8.7z"/></defs><clipPath id="P"><use xlink:href="#O" overflow="visible"/></clipPath><g clip-path="url(#P)"><defs><path id="Q" d="M-705.4-1495.7h1440v3021h-1440z"/></defs><clipPath id="R"><use xlink:href="#Q" overflow="visible"/></clipPath><path clip-path="url(#R)" fill="#0c0b68" d="M-287.1-646.1h43.1v26.9h-43.1z"/></g><defs><path id="S" d="M29.9 760.2c-1.2 0-2.2 1-2.2 2.2 0 1.2 1 2.2 2.2 2.2 1.2 0 2.2-1 2.2-2.2 0-1.2-1-2.2-2.2-2.2"/></defs><clipPath id="T"><use xlink:href="#S" overflow="visible"/></clipPath><g clip-path="url(#T)"><defs><path id="U" d="M-422.9-122.2h1440v3021h-1440z"/></defs><clipPath id="V"><use xlink:href="#U" overflow="visible"/></clipPath><path clip-path="url(#V)" fill="#0c0b68" d="M22.7 755.2H37v14.3H22.7z"/></g><defs><path id="W" d="M4 760.2c-1.2 0-2.2 1-2.2 2.2 0 1.2 1 2.2 2.2 2.2 1.2 0 2.2-1 2.2-2.2-.1-1.2-1-2.2-2.2-2.2"/></defs><clipPath id="X"><use xlink:href="#W" overflow="visible"/></clipPath><g clip-path="url(#X)"><defs><path id="Y" d="M-422.9-122.2h1440v3021h-1440z"/></defs><clipPath id="Z"><use xlink:href="#Y" overflow="visible"/></clipPath><path clip-path="url(#Z)" fill="#0c0b68" d="M-3.2 755.2h14.3v14.3H-3.2z"/></g><g><defs><path id="aa" d="M-5.9 726H40v52.8H-5.9z"/></defs><clipPath id="ab"><use xlink:href="#aa" overflow="visible"/></clipPath><g clip-path="url(#ab)"><defs><path id="ac" d="M-422.9-122.2h1440v3021h-1440z"/></defs><clipPath id="ad"><use xlink:href="#ac" overflow="visible"/></clipPath><g clip-path="url(#ad)"><defs><path id="ae" d="M-5.9 725.8h46v54h-46z"/></defs><clipPath id="af"><use xlink:href="#ae" overflow="visible"/></clipPath><g clip-path="url(#af)"><defs><path id="ag" d="M34.7 726H-.7c-2.9 0-5.3 2.4-5.3 5.3v35.9c0 2.2 1.3 4.1 3.3 4.9l.2.2v2c0 2.5 2.2 4.5 4.9 4.5s4.9-2 4.9-4.5v-1.8h19.4v1.8c0 2.5 2.2 4.5 4.9 4.5s4.9-2 4.9-4.5v-2l.2-.2c.8-.3 1.5-.8 2-1.4.5-.3.8-.7.9-1.3.3-.7.5-1.4.5-2.2v-35.9c-.1-2.9-2.5-5.3-5.4-5.3zM4 774.3c0 .7-.7 1.3-1.6 1.3s-1.6-.6-1.6-1.3v-1.8H4v1.8zm29.1 0c0 .7-.7 1.3-1.6 1.3-.9 0-1.6-.6-1.6-1.3v-1.8h3.2v1.8zm3.2-7c0 .9-.7 1.6-1.6 1.6H-.7c-.9 0-1.6-.7-1.6-1.6v-35.9c0-.9.7-1.6 1.6-1.6h35.3c.9 0 1.6.7 1.6 1.6v35.9z"/></defs><clipPath id="ah"><use xlink:href="#ag" overflow="visible"/></clipPath><g clip-path="url(#ah)"><defs><path id="ai" d="M-5.9 725.8h46v54h-46z"/></defs><clipPath id="aj"><use xlink:href="#ai" overflow="visible"/></clipPath><path clip-path="url(#aj)" fill="#0c0b68" d="M-10.9 721H45v62.8h-55.9z"/></g></g></g></g></g><g><defs><path id="ak" d="M31.4 732.4H2.5c-1.2 0-2.2 1-2.2 2.2v12.5c0 1.2 1 2.2 2.2 2.2h28.8c1.2 0 2.2-1 2.2-2.2v-12.5c0-1.2-1-2.2-2.1-2.2zm-1.3 12.8c0 .5-.4.9-.9.9H4.6c-.5 0-.9-.4-.9-.9v-8.7c0-.5.4-.9.9-.9h24.6c.5 0 .9.4.9.9v8.7z"/></defs><clipPath id="al"><use xlink:href="#ak" overflow="visible"/></clipPath><g clip-path="url(#al)"><defs><path id="am" d="M-422.9-122.2h1440v3021h-1440z"/></defs><clipPath id="an"><use xlink:href="#am" overflow="visible"/></clipPath><path clip-path="url(#an)" fill="#0c0b68" d="M-4.6 727.4h43.1v26.9H-4.6z"/></g></g><g><defs><path id="ao" d="M-253.7-613.3c-1.2 0-2.2 1-2.2 2.2 0 1.2 1 2.2 2.2 2.2 1.2 0 2.2-1 2.2-2.2 0-1.2-1-2.2-2.2-2.2"/></defs><clipPath id="ap"><use xlink:href="#ao" overflow="visible"/></clipPath><g clip-path="url(#ap)"><defs><path id="aq" d="M-706.5-1495.7h1440v3021h-1440z"/></defs><clipPath id="ar"><use xlink:href="#aq" overflow="visible"/></clipPath><path clip-path="url(#ar)" fill="#0c0b68" d="M-260.9-618.3h14.3v14.3h-14.3z"/></g></g><g><defs><path id="as" d="M-279.6-613.3c-1.2 0-2.2 1-2.2 2.2 0 1.2 1 2.2 2.2 2.2 1.2 0 2.2-1 2.2-2.2-.1-1.2-1-2.2-2.2-2.2"/></defs><clipPath id="at"><use xlink:href="#as" overflow="visible"/></clipPath><g clip-path="url(#at)"><defs><path id="au" d="M-706.5-1495.7h1440v3021h-1440z"/></defs><clipPath id="av"><use xlink:href="#au" overflow="visible"/></clipPath><path clip-path="url(#av)" fill="#0c0b68" d="M-286.8-618.3h14.3v14.3h-14.3z"/></g></g><g><defs><path id="aw" d="M-289.5-647.5h45.9v52.8h-45.9z"/></defs><clipPath id="ax"><use xlink:href="#aw" overflow="visible"/></clipPath><g clip-path="url(#ax)"><defs><path id="ay" d="M-706.5-1495.7h1440v3021h-1440z"/></defs><clipPath id="az"><use xlink:href="#ay" overflow="visible"/></clipPath><g clip-path="url(#az)"><defs><path id="aA" d="M-289.5-647.7h46v54h-46z"/></defs><clipPath id="aB"><use xlink:href="#aA" overflow="visible"/></clipPath><g clip-path="url(#aB)"><defs><path id="aC" d="M-248.9-647.5h-35.3c-2.9 0-5.3 2.4-5.3 5.3v35.9c0 2.2 1.3 4.1 3.3 4.9l.2.2v2c0 2.5 2.2 4.5 4.9 4.5s4.9-2 4.9-4.5v-1.8h19.4v1.8c0 2.5 2.2 4.5 4.9 4.5s4.9-2 4.9-4.5v-2l.2-.2c.8-.3 1.5-.8 2-1.4.5-.3.8-.7.9-1.3.3-.7.5-1.4.5-2.2v-35.9c-.2-2.9-2.6-5.3-5.5-5.3zm-30.7 48.3c0 .7-.7 1.3-1.6 1.3s-1.6-.6-1.6-1.3v-1.8h3.2v1.8zm29.1 0c0 .7-.7 1.3-1.6 1.3-.9 0-1.6-.6-1.6-1.3v-1.8h3.2v1.8zm3.2-7c0 .9-.7 1.6-1.6 1.6h-35.3c-.9 0-1.6-.7-1.6-1.6v-35.9c0-.9.7-1.6 1.6-1.6h35.3c.9 0 1.6.7 1.6 1.6v35.9z"/></defs><clipPath id="aD"><use xlink:href="#aC" overflow="visible"/></clipPath><g clip-path="url(#aD)"><defs><path id="aE" d="M-289.5-647.7h46v54h-46z"/></defs><clipPath id="aF"><use xlink:href="#aE" overflow="visible"/></clipPath><path clip-path="url(#aF)" fill="#0c0b68" d="M-294.5-652.5h55.9v62.8h-55.9z"/></g></g></g></g></g><g><defs><path id="aG" d="M-252.2-641.1H-281c-1.2 0-2.2 1-2.2 2.2v12.5c0 1.2 1 2.2 2.2 2.2h28.8c1.2 0 2.2-1 2.2-2.2v-12.5c-.1-1.2-1.1-2.2-2.2-2.2zm-1.3 12.8c0 .5-.4.9-.9.9H-279c-.5 0-.9-.4-.9-.9v-8.7c0-.5.4-.9.9-.9h24.6c.5 0 .9.4.9.9v8.7z"/></defs><clipPath id="aH"><use xlink:href="#aG" overflow="visible"/></clipPath><g clip-path="url(#aH)"><defs><path id="aI" d="M-706.5-1495.7h1440v3021h-1440z"/></defs><clipPath id="aJ"><use xlink:href="#aI" overflow="visible"/></clipPath><path clip-path="url(#aJ)" fill="#0c0b68" d="M-288.2-646.1h43.1v26.9h-43.1z"/></g></g><g><defs><path id="aK" d="M-289.5-647.5h45.9v52.8h-45.9z"/></defs><clipPath id="aL"><use xlink:href="#aK" overflow="visible"/></clipPath><g clip-path="url(#aL)"><defs><path id="aM" d="M-706.5-1495.7h1440v3021h-1440z"/></defs><clipPath id="aN"><use xlink:href="#aM" overflow="visible"/></clipPath><g clip-path="url(#aN)"><defs><path id="aO" d="M-289.5-647.7h46v54h-46z"/></defs><clipPath id="aP"><use xlink:href="#aO" overflow="visible"/></clipPath><g clip-path="url(#aP)"><defs><path id="aQ" d="M-248.9-647.5h-35.3c-2.9 0-5.3 2.4-5.3 5.3v35.9c0 2.2 1.3 4.1 3.3 4.9l.2.2v2c0 2.5 2.2 4.5 4.9 4.5s4.9-2 4.9-4.5v-1.8h19.4v1.8c0 2.5 2.2 4.5 4.9 4.5s4.9-2 4.9-4.5v-2l.2-.2c.8-.3 1.5-.8 2-1.4.5-.3.8-.7.9-1.3.3-.7.5-1.4.5-2.2v-35.9c-.2-2.9-2.6-5.3-5.5-5.3zm-30.7 48.3c0 .7-.7 1.3-1.6 1.3s-1.6-.6-1.6-1.3v-1.8h3.2v1.8zm29.1 0c0 .7-.7 1.3-1.6 1.3-.9 0-1.6-.6-1.6-1.3v-1.8h3.2v1.8zm3.2-7c0 .9-.7 1.6-1.6 1.6h-35.3c-.9 0-1.6-.7-1.6-1.6v-35.9c0-.9.7-1.6 1.6-1.6h35.3c.9 0 1.6.7 1.6 1.6v35.9z"/></defs><clipPath id="aR"><use xlink:href="#aQ" overflow="visible"/></clipPath><g clip-path="url(#aR)"><defs><path id="aS" d="M-289.5-647.7h46v54h-46z"/></defs><clipPath id="aT"><use xlink:href="#aS" overflow="visible"/></clipPath><path clip-path="url(#aT)" fill="#0c0b68" d="M-294.5-652.5h55.9v62.8h-55.9z"/></g></g></g></g></g><g><defs><path id="aU" d="M-253.7-613.3c-1.2 0-2.2 1-2.2 2.2 0 1.2 1 2.2 2.2 2.2 1.2 0 2.2-1 2.2-2.2 0-1.2-1-2.2-2.2-2.2"/></defs><clipPath id="aV"><use xlink:href="#aU" overflow="visible"/></clipPath><g clip-path="url(#aV)"><defs><path id="aW" d="M-706.5-1495.7h1440v3021h-1440z"/></defs><clipPath id="aX"><use xlink:href="#aW" overflow="visible"/></clipPath><path clip-path="url(#aX)" fill="#0c0b68" d="M-260.9-618.3h14.3v14.3h-14.3z"/></g></g><g><defs><path id="aY" d="M-279.6-613.3c-1.2 0-2.2 1-2.2 2.2 0 1.2 1 2.2 2.2 2.2 1.2 0 2.2-1 2.2-2.2-.1-1.2-1-2.2-2.2-2.2"/></defs><clipPath id="aZ"><use xlink:href="#aY" overflow="visible"/></clipPath><g clip-path="url(#aZ)"><defs><path id="ba" d="M-706.5-1495.7h1440v3021h-1440z"/></defs><clipPath id="bb"><use xlink:href="#ba" overflow="visible"/></clipPath><path clip-path="url(#bb)" fill="#0c0b68" d="M-286.8-618.3h14.3v14.3h-14.3z"/></g></g><g><defs><path id="bc" d="M-289.5-647.5h45.9v52.8h-45.9z"/></defs><clipPath id="bd"><use xlink:href="#bc" overflow="visible"/></clipPath><g clip-path="url(#bd)"><defs><path id="be" d="M-706.5-1495.7h1440v3021h-1440z"/></defs><clipPath id="bf"><use xlink:href="#be" overflow="visible"/></clipPath><g clip-path="url(#bf)"><defs><path id="bg" d="M-289.5-647.7h46v54h-46z"/></defs><clipPath id="bh"><use xlink:href="#bg" overflow="visible"/></clipPath><g clip-path="url(#bh)"><defs><path id="bi" d="M-248.9-647.5h-35.3c-2.9 0-5.3 2.4-5.3 5.3v35.9c0 2.2 1.3 4.1 3.3 4.9l.2.2v2c0 2.5 2.2 4.5 4.9 4.5s4.9-2 4.9-4.5v-1.8h19.4v1.8c0 2.5 2.2 4.5 4.9 4.5s4.9-2 4.9-4.5v-2l.2-.2c.8-.3 1.5-.8 2-1.4.5-.3.8-.7.9-1.3.3-.7.5-1.4.5-2.2v-35.9c-.2-2.9-2.6-5.3-5.5-5.3zm-30.7 48.3c0 .7-.7 1.3-1.6 1.3s-1.6-.6-1.6-1.3v-1.8h3.2v1.8zm29.1 0c0 .7-.7 1.3-1.6 1.3-.9 0-1.6-.6-1.6-1.3v-1.8h3.2v1.8zm3.2-7c0 .9-.7 1.6-1.6 1.6h-35.3c-.9 0-1.6-.7-1.6-1.6v-35.9c0-.9.7-1.6 1.6-1.6h35.3c.9 0 1.6.7 1.6 1.6v35.9z"/></defs><clipPath id="bj"><use xlink:href="#bi" overflow="visible"/></clipPath><g clip-path="url(#bj)"><defs><path id="bk" d="M-289.5-647.7h46v54h-46z"/></defs><clipPath id="bl"><use xlink:href="#bk" overflow="visible"/></clipPath><path clip-path="url(#bl)" fill="#0c0b68" d="M-294.5-652.5h55.9v62.8h-55.9z"/></g></g></g></g></g><g><defs><path id="bm" d="M-252.2-641.1H-281c-1.2 0-2.2 1-2.2 2.2v12.5c0 1.2 1 2.2 2.2 2.2h28.8c1.2 0 2.2-1 2.2-2.2v-12.5c-.1-1.2-1.1-2.2-2.2-2.2zm-1.3 12.8c0 .5-.4.9-.9.9H-279c-.5 0-.9-.4-.9-.9v-8.7c0-.5.4-.9.9-.9h24.6c.5 0 .9.4.9.9v8.7z"/></defs><clipPath id="bn"><use xlink:href="#bm" overflow="visible"/></clipPath><g clip-path="url(#bn)"><defs><path id="bo" d="M-706.5-1495.7h1440v3021h-1440z"/></defs><clipPath id="bp"><use xlink:href="#bo" overflow="visible"/></clipPath><path clip-path="url(#bp)" fill="#0c0b68" d="M-288.2-646.1h43.1v26.9h-43.1z"/></g></g><g><defs><circle id="bq" cx="139.3" cy="-883.5" r="18"/></defs><clipPath id="br"><use xlink:href="#bq" overflow="visible"/></clipPath><g clip-path="url(#br)"><defs><path id="bs" d="M-706.7-1495.5h1440v3021h-1440z"/></defs><clipPath id="bt"><use xlink:href="#bs" overflow="visible"/></clipPath><path clip-path="url(#bt)" fill="#fff" d="M116.3-906.5h46v46h-46z"/></g></g><g><defs><path id="bu" d="M-706.7-1495.5h1440v3021h-1440z"/></defs><clipPath id="bv"><use xlink:href="#bu" overflow="visible"/></clipPath><circle cx="139.3" cy="-883.5" r="18" clip-path="url(#bv)" fill="none" stroke="#006fcf" stroke-miterlimit="10"/><path clip-path="url(#bv)" fill="none" stroke="#006fcf" stroke-linecap="round" stroke-linejoin="round" stroke-miterlimit="10" d="M129.3-883.4l4.2 6.3 15.4-10.4"/></g><g><defs><circle id="bw" cx="139.3" cy="-883.5" r="18"/></defs><clipPath id="bx"><use xlink:href="#bw" overflow="visible"/></clipPath><g clip-path="url(#bx)"><defs><path id="by" d="M-706.7-1495.5h1440v3021h-1440z"/></defs><clipPath id="bz"><use xlink:href="#by" overflow="visible"/></clipPath><path clip-path="url(#bz)" fill="#fff" d="M116.3-906.5h46v46h-46z"/></g></g><g><defs><path id="bA" d="M-706.7-1495.5h1440v3021h-1440z"/></defs><clipPath id="bB"><use xlink:href="#bA" overflow="visible"/></clipPath><circle cx="139.3" cy="-883.5" r="18" clip-path="url(#bB)" fill="none" stroke="#006fcf" stroke-miterlimit="10"/><path clip-path="url(#bB)" fill="none" stroke="#006fcf" stroke-linecap="round" stroke-linejoin="round" stroke-miterlimit="10" d="M129.3-883.4l4.2 6.3 15.4-10.4"/></g><g><defs><circle id="bC" cx="137.9" cy="-883.5" r="18"/></defs><clipPath id="bD"><use xlink:href="#bC" overflow="visible"/></clipPath><g clip-path="url(#bD)"><defs><path id="bE" d="M-708.1-1495.5h1440v3021h-1440z"/></defs><clipPath id="bF"><use xlink:href="#bE" overflow="visible"/></clipPath><path clip-path="url(#bF)" fill="#fff" d="M114.9-906.5h46v46h-46z"/></g></g><g><defs><path id="bG" d="M-708.1-1495.5h1440v3021h-1440z"/></defs><clipPath id="bH"><use xlink:href="#bG" overflow="visible"/></clipPath><circle cx="137.9" cy="-883.5" r="18" clip-path="url(#bH)" fill="none" stroke="#006fcf" stroke-miterlimit="10"/><path clip-path="url(#bH)" fill="none" stroke="#006fcf" stroke-linecap="round" stroke-linejoin="round" stroke-miterlimit="10" d="M127.9-883.4l4.2 6.3 15.5-10.4"/></g><g><defs><path id="bI" d="M23 3.6c0-.9-.9-1.7-1.9-1.7h-1.8V1c0-.4-.3-.8-.7-.9-.7-.2-1.4.3-1.4.9v.9H5.8V1c0-.4-.3-.8-.7-.9-.7-.3-1.3.2-1.3.8v.9H1.9c-1 .1-1.9.9-1.9 2v24.3c0 1 .9 1.9 1.9 1.9h13.3s.4 0 .7-.2l6.8-6.4c.2-.2.3-.4.3-.8v-19zm-19.2.2v1.1c0 .4.3.8.7.9.7.2 1.3-.3 1.3-.9V3.8h11.3v1.1c0 .4.3.8.7.9.7.2 1.4-.3 1.4-.9V3.8h1.9v5.6H1.9V3.8h1.9zm-1.9 7.4h19.2v9.2h-6c-1.1 0-1.9.8-1.9 1.9v5.8H1.9V11.2zm13.2 16.9v-5.8h6l-6 5.8z"/></defs><clipPath id="bJ"><use xlink:href="#bI" overflow="visible"/></clipPath><path clip-path="url(#bJ)" fill="#006fcf" d="M-5-5h33v40H-5z"/></g></svg>