<?xml version="1.0" encoding="utf-8"?>
<!-- Generator: Adobe Illustrator 24.0.3, SVG Export Plug-In . SVG Version: 6.00 Build 0)  -->
<svg version="1.1" id="Layer_1" xmlns="http://www.w3.org/2000/svg" xmlns:xlink="http://www.w3.org/1999/xlink" x="0px" y="0px"
	 viewBox="0 0 29 28" style="enable-background:new 0 0 29 28;" xml:space="preserve">
<style type="text/css">
	.st0{clip-path:url(#SVGID_2_);}
	.st1{clip-path:url(#SVGID_4_);fill:#006FCF;}
	.st2{clip-path:url(#SVGID_6_);fill:#006FCF;}
</style>
<g>
	<defs>
		<path id="SVGID_1_" d="M-42-438c8,0,14.5,6.3,14.5,14c0,7.7-6.5,14-14.5,14c-8,0-14.5-6.3-14.5-14C-56.5-431.7-50-438-42-438z
			 M-42-411.8c7,0,12.7-5.5,12.7-12.2S-35-436.2-42-436.2s-12.7,5.5-12.7,12.2S-49-411.8-42-411.8z M-41.8-423.8l4.1,4
			c0.3,0.3,0.4,0.8,0.1,1.2c-0.2,0.2-0.4,0.3-0.6,0.3c-0.2,0-0.4-0.1-0.6-0.2l-4.4-4.2c-0.1-0.1-0.2-0.3-0.2-0.4c0,0,0,0,0-0.1
			c0,0,0-0.1,0-0.1c0,0,0,0,0,0v-5.9c0-0.4,0.3-0.8,0.8-0.9c0.5,0,0.9,0.3,0.9,0.8V-423.8z"/>
	</defs>
	<clipPath id="SVGID_2_">
		<use xlink:href="#SVGID_1_"  style="overflow:visible;"/>
	</clipPath>
	<g class="st0">
		<defs>
			<rect id="SVGID_3_" x="-705.5" y="-1576" width="1440" height="3180"/>
		</defs>
		<clipPath id="SVGID_4_">
			<use xlink:href="#SVGID_3_"  style="overflow:visible;"/>
		</clipPath>
		<rect x="-61.5" y="-443" class="st1" width="39" height="38"/>
	</g>
</g>
<g>
	<defs>
		<path id="SVGID_5_" d="M14.5,0C22.5,0,29,6.3,29,14c0,7.7-6.5,14-14.5,14C6.5,28,0,21.7,0,14C0,6.3,6.5,0,14.5,0z M14.5,26.2
			c7,0,12.7-5.5,12.7-12.2S21.5,1.8,14.5,1.8S1.8,7.2,1.8,14S7.5,26.2,14.5,26.2z M14.7,14.2l4.1,4c0.3,0.3,0.4,0.8,0.1,1.2
			c-0.2,0.2-0.4,0.3-0.6,0.3c-0.2,0-0.4-0.1-0.6-0.2l-4.4-4.2c-0.1-0.1-0.2-0.3-0.2-0.4c0,0,0,0,0-0.1c0,0,0-0.1,0-0.1c0,0,0,0,0,0
			V8.6c0-0.4,0.3-0.8,0.8-0.9c0.5,0,0.9,0.3,0.9,0.8V14.2z"/>
	</defs>
	<clipPath id="SVGID_6_">
		<use xlink:href="#SVGID_5_"  style="overflow:visible;"/>
	</clipPath>
	<rect x="-5" y="-5" class="st2" width="39" height="38"/>
</g>
</svg>
