<?xml version="1.0" encoding="utf-8"?>
<!-- Generator: Adobe Illustrator 24.0.3, SVG Export Plug-In . SVG Version: 6.00 Build 0)  -->
<svg version="1.1" id="Layer_1" xmlns="http://www.w3.org/2000/svg" xmlns:xlink="http://www.w3.org/1999/xlink" x="0px" y="0px"
	 viewBox="0 0 233 75" style="enable-background:new 0 0 233 75;" xml:space="preserve">
<style type="text/css">
	.st0{filter:url(#Adobe_OpacityMaskFilter);}
	.st1{fill-rule:evenodd;clip-rule:evenodd;fill:#FFFFFF;}
	.st2{mask:url(#mask-2_1_);fill-rule:evenodd;clip-rule:evenodd;fill:#006FCF;}
	.st3{fill-rule:evenodd;clip-rule:evenodd;fill:#006FCF;}
	.st4{fill-rule:evenodd;clip-rule:evenodd;fill:#00175A;}
</style>
<title>AMEX-logo</title>
<desc>Created with Sketch.</desc>
<g id="Symbols">
	<g id="AMEX-logo">
		<g id="Group-3" transform="translate(11.000000, 0.000000)">
			<g id="Clip-2">
			</g>
			<defs>
				<filter id="Adobe_OpacityMaskFilter" filterUnits="userSpaceOnUse" x="0.3" y="0" width="75.5" height="75">
					<feColorMatrix  type="matrix" values="1 0 0 0 0  0 1 0 0 0  0 0 1 0 0  0 0 0 1 0"/>
				</filter>
			</defs>
			<mask maskUnits="userSpaceOnUse" x="0.3" y="0" width="75.5" height="75" id="mask-2_1_">
				<g class="st0">
					<polygon id="path-1_1_" class="st1" points="0.3,0 75.8,0 75.8,75 0.3,75 					"/>
				</g>
			</mask>
			<path id="Fill-1" class="st2" d="M71.6,46.9v-6.3h4.2V0H0.3v28.8l3.1-3.3L2.6,36.4H0.3V75h75.5V53.1c-0.1,0.1-4,0.1-4.2,0.2v-3.1
				V46.9z"/>
		</g>
		<path id="Fill-4" class="st1" d="M77.8,36.4h5.7V23h-6.2v1.9L76.1,23h-5.4v2.4l-1-2.4H61c-0.4,0-0.8,0-1.1,0.1
			c-0.4,0.1-0.7,0.1-1.1,0.2c-0.3,0.1-0.5,0.2-0.8,0.3c-0.3,0.1-0.5,0.2-0.8,0.4v-0.4V23H29.1l-0.8,2.2L27.6,23h-6.7v2.4l-1-2.4
			h-5.4L12,28.7v7.6h3.8l0.7-1.9h1.3l0.7,1.9H48v-1.6l1.2,1.6h8.1V36v-0.6c0.2,0.1,0.5,0.3,0.7,0.4c0.2,0.1,0.5,0.2,0.7,0.3
			c0.3,0.1,0.7,0.2,1,0.2c0.4,0.1,0.8,0.1,1.1,0.1h4.8l0.7-1.9h1.3l0.7,1.9h8.3v-1.7L77.8,36.4z M87,53.2V40.6H41l-1.2,1.7l-1.2-1.7
			H25.3V54h13.3l1.2-1.8L41,54h8.3v-2.9h-0.3c1.1,0,2.1-0.2,3-0.6V54h6v-1.6l1.2,1.6h24.8C85.2,54,86.2,53.7,87,53.2L87,53.2z"/>
		<path id="Fill-6" class="st3" d="M84.1,50.2h-4.5V52h4.4c1.9,0,3.1-1.2,3.1-2.8c0-1.6-1.1-2.6-2.8-2.6h-2c-0.5,0-0.9-0.3-0.9-0.9
			c0-0.5,0.4-0.9,0.9-0.9H86l0.8-1.8h-4.5c-1.9,0-3.1,1.2-3.1,2.8c0,1.7,1.1,2.6,2.8,2.6h2c0.5,0,0.9,0.3,0.9,0.9
			C85,49.8,84.6,50.2,84.1,50.2L84.1,50.2z M75.8,50.2h-4.5V52h4.4c1.9,0,3.1-1.2,3.1-2.8c0-1.6-1.1-2.6-2.8-2.6h-2
			c-0.5,0-0.9-0.3-0.9-0.9c0-0.5,0.4-0.9,0.9-0.9h3.8l0.8-1.8h-4.5c-1.9,0-3.1,1.2-3.1,2.8c0,1.7,1.1,2.6,2.8,2.6h2
			c0.5,0,0.9,0.3,0.9,0.9C76.7,49.8,76.3,50.2,75.8,50.2L75.8,50.2z M69.9,44.8V43h-7v9h7v-1.8h-5v-1.8h4.9v-1.8h-4.9v-1.8H69.9z
			 M58.4,44.8c0.8,0,1.2,0.5,1.2,1.1c0,0.6-0.4,1.1-1.2,1.1h-2.5v-2.1H58.4z M55.9,48.7h1l2.7,3.3h2.6l-2.9-3.4
			c1.5-0.3,2.4-1.4,2.4-2.8c0-1.7-1.2-2.9-3-2.9h-4.8v9h2V48.7z M50.5,46c0,0.6-0.4,1.2-1.2,1.2h-2.6v-2.3h2.6
			C50.1,44.8,50.5,45.4,50.5,46L50.5,46z M44.7,43v9h2v-3h2.7c1.9,0,3.1-1.3,3.1-3c0-1.8-1.2-3-3-3H44.7z M41.5,52h2.6l-3.6-4.5
			l3.5-4.5h-2.5l-2.2,2.9L37.1,43h-2.6l3.6,4.5L34.6,52h2.5l2.2-3L41.5,52z M34,44.8V43h-7v9h7v-1.8h-5v-1.8h4.9v-1.8H29v-1.8H34z"
			/>
		<path id="Fill-8" class="st3" d="M75.1,28.5l3.5,5.5H81v-9h-2v5.9l-0.5-0.9L75.3,25h-2.6v9h2v-6.1L75.1,28.5z M66.2,28.3l0.7-1.9
			l0.7,1.9l0.8,2.1h-3L66.2,28.3z M69.8,34h2.2l-3.8-9h-2.7l-3.8,9H64l0.8-1.9h4.3L69.8,34z M60.5,34L60.5,34l0.9-1.8h-0.6
			c-1.5,0-2.4-1-2.4-2.6v-0.2c0-1.5,0.8-2.5,2.3-2.5H63V25h-2.4c-2.7,0-4.2,1.9-4.2,4.4v0.2C56.5,32.2,58,34,60.5,34L60.5,34z
			 M53,34h2v-4.2V25h-2v4.7V34z M48.6,26.8c0.8,0,1.2,0.5,1.2,1.1c0,0.6-0.4,1.1-1.2,1.1h-2.5v-2.1H48.6z M46.1,30.7h1l2.7,3.3h2.5
			l-2.9-3.4c1.5-0.3,2.4-1.4,2.4-2.8c0-1.7-1.2-2.9-3-2.9H44v9h2V30.7z M42.4,26.8V25h-7v9h7v-1.8h-4.9v-1.8h4.8v-1.8h-4.8v-1.8
			H42.4z M27.3,34h1.8l2.5-7.3V34h2v-9h-3.3l-2.1,6.1L26.2,25h-3.4v9h2v-7.3L27.3,34z M16.4,28.3l0.7-1.9l0.7,1.9l0.8,2.1h-3
			L16.4,28.3z M20,34h2.2l-3.8-9h-2.7L12,34h2.2l0.8-1.9h4.3L20,34z"/>
		<path id="Fill-10" class="st3" d="M3.1,70.8v-1.5H4c0.6,0,1,0.2,1,0.7c0,0.6-0.4,0.8-1,0.8H3.1z M2.5,73.1h0.6v-1.9h0.9l1,1.9h0.7
			l-1-1.9c0.6-0.1,1-0.5,1-1.2c0-0.8-0.6-1.2-1.6-1.2H2.5V73.1z M4,74.5c-2,0-3.5-1.6-3.5-3.5C0.5,69,2,67.5,4,67.5
			c1.9,0,3.5,1.6,3.5,3.5C7.5,73,6,74.5,4,74.5L4,74.5z M4,75c2.2,0,4-1.8,4-4c0-2.2-1.8-4-4-4c-2.3,0-4,1.8-4,4C0,73.2,1.7,75,4,75
			L4,75z"/>
		<path id="Fill-12" class="st4" d="M114,23c2.8,0,4.4-1.8,4.8-2.9h0v2.5h3.2v-9.2h-7v3h3.2c-0.4,2-1.7,3.3-3.7,3.3
			c-1.9,0-4.4-1.3-4.4-6.4c0-5.1,2.8-6,4.2-6c1.8,0,3,1,3.7,3.5l3.7-1c-1.2-4.5-3.9-5.9-7.4-5.9c-5.1,0-8.3,3.7-8.3,9.4
			C106,18.9,108.5,23,114,23"/>
		<polygon id="Fill-14" class="st4" points="138,23 138,19.8 130,19.8 130,5 126,5 126,23 		"/>
		<path id="Fill-16" class="st4" d="M146.5,19.8c-2.8,0-4.5-2.4-4.5-6.3c0-3.8,1.7-6.2,4.5-6.2c2.8,0,4.5,2.3,4.5,6.2
			C151,17.3,149.3,19.8,146.5,19.8 M146.5,23c4.3,0,8.5-3.1,8.5-9.5S150.9,4,146.5,4c-4.4,0-8.5,3.1-8.5,9.5S142.1,23,146.5,23"/>
		<path id="Fill-18" class="st4" d="M161.9,15.2h3c2.2,0,3.3,0.8,3.3,2.4c0,1.5-1,2.4-3.1,2.4h-3.2V15.2z M161.9,8.1h2.9
			c2.1,0,2.9,0.8,2.9,2.2c0,1.4-0.9,2.2-3,2.2h-2.9V8.1z M165.5,23c3.3,0,6.5-1.3,6.5-5c0-2.9-1.7-4-3.9-4.4v0
			c1.8-0.4,3.4-1.6,3.4-4.1c0-3.6-3.1-4.5-6.4-4.5H158v18H165.5z"/>
		<path id="Fill-20" class="st4" d="M176.8,23l1.4-4h6.3l1.4,4h4.1l-6.6-18h-3.9L173,23H176.8z M181.4,10L181.4,10l2.2,6.1h-4.4
			L181.4,10z"/>
		<polygon id="Fill-22" class="st4" points="204,23 204,19.8 196,19.8 196,5 192,5 192,23 		"/>
		<path id="Fill-24" class="st4" d="M111.9,39.2h3c2.2,0,3.3,0.8,3.3,2.4c0,1.5-1,2.4-3.1,2.4h-3.2V39.2z M111.9,32.1h2.9
			c2.1,0,2.9,0.8,2.9,2.2c0,1.4-0.9,2.2-3,2.2h-2.9V32.1z M115.5,47c3.3,0,6.5-1.3,6.5-5c0-2.9-1.7-4-3.9-4.4v0
			c1.8-0.4,3.4-1.6,3.4-4.1c0-3.6-3.1-4.5-6.4-4.5H108v18H115.5z"/>
		<path id="Fill-26" class="st4" d="M132.5,47c5.2,0,7.5-2.9,7.5-7.5V28h-4v11.4c0,2.7-1,4.2-3.4,4.2c-2.4,0-3.5-1.5-3.5-4.2V28H125
			v11.5C125,44.1,127.3,47,132.5,47"/>
		<path id="Fill-28" class="st4" d="M149.7,47c5.1,0,7.3-2.6,7.3-5.6c0-3.8-3.4-4.8-6.6-5.7c-2.4-0.7-3.7-1.2-3.7-2.6
			c0-1.1,0.9-1.8,2.6-1.8c1.8,0,3.5,1,4.5,2.6l2.8-2.1c-1.3-2-3.5-3.8-7.2-3.8c-3.9,0-6.6,2.1-6.6,5.5c0,3.8,3.4,4.7,6.6,5.6
			c2.4,0.7,3.7,1.3,3.7,2.6c0,1.4-1.3,2.1-3.2,2.1c-2.1,0-3.9-1.1-4.9-3.1l-3,1.8C143.4,45.1,145.8,47,149.7,47"/>
		<polygon id="Fill-30" class="st4" points="164,47 164,38 164,29 162,29 160,29 160,38 160,47 161.6,47 		"/>
		<polygon id="Fill-32" class="st4" points="170.8,47 170.8,35.4 170.9,35.4 179.2,47 183,47 183,29 179.2,29 179.2,40.5 
			179.1,40.5 171.2,29 167,29 167,47 		"/>
		<polygon id="Fill-34" class="st4" points="200,47 200,43.8 191.1,43.8 191.1,39.3 197.2,39.3 197.2,36.2 191.1,36.2 191.1,32.3 
			199.6,32.3 199.6,29 187,29 187,47 		"/>
		<path id="Fill-36" class="st4" d="M208.7,47c5.1,0,7.3-2.6,7.3-5.6c0-3.8-3.4-4.8-6.6-5.7c-2.4-0.7-3.7-1.2-3.7-2.6
			c0-1.1,0.9-1.8,2.6-1.8c1.8,0,3.5,1,4.5,2.6l2.8-2.1c-1.3-2-3.5-3.8-7.2-3.8c-3.9,0-6.6,2.1-6.6,5.5c0,3.8,3.4,4.7,6.6,5.6
			c2.4,0.7,3.7,1.3,3.7,2.6c0,1.4-1.3,2.1-3.2,2.1c-2.1,0-3.9-1.1-4.9-3.1l-3,1.8C202.4,45.1,204.8,47,208.7,47"/>
		<path id="Fill-38" class="st4" d="M225.7,47c5.1,0,7.3-2.6,7.3-5.6c0-3.8-3.4-4.8-6.6-5.7c-2.4-0.7-3.7-1.2-3.7-2.6
			c0-1.1,0.9-1.8,2.6-1.8c1.8,0,3.5,1,4.5,2.6l2.8-2.1c-1.3-2-3.5-3.8-7.2-3.8c-3.9,0-6.6,2.1-6.6,5.5c0,3.8,3.4,4.7,6.6,5.6
			c2.4,0.7,3.7,1.3,3.7,2.6c0,1.4-1.3,2.1-3.2,2.1c-2.1,0-3.9-1.1-4.9-3.1l-3,1.8C219.4,45.1,221.8,47,225.7,47"/>
		<polygon id="Fill-40" class="st4" points="117.5,70 117.5,55.3 123,55.3 123,52 108,52 108,55.3 113.5,55.3 113.5,70 		"/>
		<path id="Fill-42" class="st4" d="M128.9,70v-6.8h2.3l3.7,6.8h4.2l-4-7.3c2.4-0.7,3.7-2.3,3.7-5.1c0-4-2.6-5.6-7-5.6H125v18H128.9
			z M128.9,55.2h2.7c2.3,0,3.4,0.7,3.4,2.4c0,1.8-1.1,2.5-3.4,2.5h-2.7V55.2z"/>
		<path id="Fill-44" class="st4" d="M143.8,70l1.4-4h6.3l1.4,4h4.1l-6.6-18h-3.9L140,70H143.8z M148.4,57L148.4,57l2.2,6.1h-4.4
			L148.4,57z"/>
		<polygon id="Fill-46" class="st4" points="165.9,70 172,52 168.3,52 164.1,64.8 164,64.8 160,52 156,52 162.1,70 		"/>
		<polygon id="Fill-48" class="st4" points="187,70 187,66.8 178.1,66.8 178.1,62.3 184.2,62.3 184.2,59.2 178.1,59.2 178.1,55.3 
			186.6,55.3 186.6,52 174,52 174,70 		"/>
		<polygon id="Fill-50" class="st4" points="202,70 202,66.8 194,66.8 194,52 190,52 190,70 		"/>
	</g>
</g>
</svg>
