<?xml version="1.0" encoding="utf-8"?>
<!-- Generator: Adobe Illustrator 24.0.3, SVG Export Plug-In . SVG Version: 6.00 Build 0)  -->
<svg version="1.1" id="Layer_1" xmlns="http://www.w3.org/2000/svg" xmlns:xlink="http://www.w3.org/1999/xlink" x="0px" y="0px"
	 viewBox="0 0 45.9 52.8" style="enable-background:new 0 0 45.9 52.8;" xml:space="preserve">
<style type="text/css">
	.st0{clip-path:url(#SVGID_2_);}
	.st1{clip-path:url(#SVGID_4_);fill:#0C0B68;}
	.st2{clip-path:url(#SVGID_6_);}
	.st3{clip-path:url(#SVGID_8_);fill:#0C0B68;}
	.st4{clip-path:url(#SVGID_10_);}
	.st5{clip-path:url(#SVGID_12_);enable-background:new    ;}
	.st6{clip-path:url(#SVGID_14_);}
	.st7{clip-path:url(#SVGID_16_);}
	.st8{clip-path:url(#SVGID_18_);fill:#0C0B68;}
	.st9{clip-path:url(#SVGID_20_);}
	.st10{clip-path:url(#SVGID_22_);fill:#0C0B68;}
	.st11{clip-path:url(#SVGID_24_);}
	.st12{clip-path:url(#SVGID_26_);fill:#0C0B68;}
	.st13{clip-path:url(#SVGID_28_);}
	.st14{clip-path:url(#SVGID_30_);fill:#0C0B68;}
	.st15{clip-path:url(#SVGID_32_);}
	.st16{clip-path:url(#SVGID_34_);enable-background:new    ;}
	.st17{clip-path:url(#SVGID_36_);}
	.st18{clip-path:url(#SVGID_38_);}
	.st19{clip-path:url(#SVGID_40_);fill:#0C0B68;}
	.st20{clip-path:url(#SVGID_42_);}
	.st21{clip-path:url(#SVGID_44_);fill:#0C0B68;}
	.st22{clip-path:url(#SVGID_46_);}
	.st23{clip-path:url(#SVGID_48_);fill:#0C0B68;}
	.st24{clip-path:url(#SVGID_50_);}
	.st25{clip-path:url(#SVGID_52_);fill:#0C0B68;}
	.st26{clip-path:url(#SVGID_54_);}
	.st27{clip-path:url(#SVGID_56_);enable-background:new    ;}
	.st28{clip-path:url(#SVGID_58_);}
	.st29{clip-path:url(#SVGID_60_);}
	.st30{clip-path:url(#SVGID_62_);fill:#0C0B68;}
	.st31{clip-path:url(#SVGID_64_);}
	.st32{clip-path:url(#SVGID_66_);fill:#0C0B68;}
	.st33{clip-path:url(#SVGID_68_);}
	.st34{clip-path:url(#SVGID_70_);fill:#0C0B68;}
	.st35{clip-path:url(#SVGID_72_);}
	.st36{clip-path:url(#SVGID_74_);fill:#0C0B68;}
	.st37{clip-path:url(#SVGID_76_);}
	.st38{clip-path:url(#SVGID_78_);enable-background:new    ;}
	.st39{clip-path:url(#SVGID_80_);}
	.st40{clip-path:url(#SVGID_82_);}
	.st41{clip-path:url(#SVGID_84_);fill:#0C0B68;}
	.st42{clip-path:url(#SVGID_86_);}
	.st43{clip-path:url(#SVGID_88_);fill:#0C0B68;}
	.st44{clip-path:url(#SVGID_90_);}
	.st45{clip-path:url(#SVGID_92_);enable-background:new    ;}
	.st46{clip-path:url(#SVGID_94_);}
	.st47{clip-path:url(#SVGID_96_);}
	.st48{clip-path:url(#SVGID_98_);fill:#0C0B68;}
	.st49{clip-path:url(#SVGID_100_);}
	.st50{clip-path:url(#SVGID_102_);fill:#0C0B68;}
	.st51{clip-path:url(#SVGID_104_);}
	.st52{clip-path:url(#SVGID_106_);fill:#0C0B68;}
	.st53{clip-path:url(#SVGID_108_);}
	.st54{clip-path:url(#SVGID_110_);enable-background:new    ;}
	.st55{clip-path:url(#SVGID_112_);}
	.st56{clip-path:url(#SVGID_114_);}
	.st57{clip-path:url(#SVGID_116_);fill:#0C0B68;}
	.st58{clip-path:url(#SVGID_118_);}
	.st59{clip-path:url(#SVGID_120_);fill:#0C0B68;}
	.st60{clip-path:url(#SVGID_122_);fill:#0C0B68;}
	.st61{clip-path:url(#SVGID_124_);fill:#0C0B68;}
	.st62{clip-path:url(#SVGID_126_);enable-background:new    ;}
	.st63{clip-path:url(#SVGID_128_);}
	.st64{clip-path:url(#SVGID_130_);}
	.st65{clip-path:url(#SVGID_132_);fill:#0C0B68;}
	.st66{clip-path:url(#SVGID_134_);fill:#0C0B68;}
</style>
<g>
	<defs>
		<path id="SVGID_1_" d="M-243.1-601.6c-1.2,0-2.2,1-2.2,2.2c0,1.2,1,2.1,2.2,2.2c1.2,0,2.2-1,2.2-2.2
			C-240.9-600.6-241.9-601.6-243.1-601.6"/>
	</defs>
	<clipPath id="SVGID_2_">
		<use xlink:href="#SVGID_1_"  style="overflow:visible;"/>
	</clipPath>
	<g class="st0">
		<defs>
			<rect id="SVGID_3_" x="-695.9" y="-1484.1" width="1440" height="3021"/>
		</defs>
		<clipPath id="SVGID_4_">
			<use xlink:href="#SVGID_3_"  style="overflow:visible;"/>
		</clipPath>
		<rect x="-250.3" y="-606.6" class="st1" width="14.3" height="14.3"/>
	</g>
</g>
<g>
	<defs>
		<path id="SVGID_5_" d="M-269-601.6c-1.2,0-2.2,1-2.2,2.2c0,1.2,1,2.1,2.2,2.2c1.2,0,2.2-1,2.2-2.2
			C-266.9-600.6-267.8-601.6-269-601.6"/>
	</defs>
	<clipPath id="SVGID_6_">
		<use xlink:href="#SVGID_5_"  style="overflow:visible;"/>
	</clipPath>
	<g class="st2">
		<defs>
			<rect id="SVGID_7_" x="-695.9" y="-1484.1" width="1440" height="3021"/>
		</defs>
		<clipPath id="SVGID_8_">
			<use xlink:href="#SVGID_7_"  style="overflow:visible;"/>
		</clipPath>
		<rect x="-276.2" y="-606.6" class="st3" width="14.3" height="14.3"/>
	</g>
</g>
<g>
	<defs>
		<rect id="SVGID_9_" x="-278.9" y="-635.8" width="45.9" height="52.8"/>
	</defs>
	<clipPath id="SVGID_10_">
		<use xlink:href="#SVGID_9_"  style="overflow:visible;"/>
	</clipPath>
	<g class="st4">
		<defs>
			<rect id="SVGID_11_" x="-695.9" y="-1484.1" width="1440" height="3021"/>
		</defs>
		<clipPath id="SVGID_12_">
			<use xlink:href="#SVGID_11_"  style="overflow:visible;"/>
		</clipPath>
		<g class="st5">
			<g>
				<defs>
					<rect id="SVGID_13_" x="-278.9" y="-636.1" width="46" height="54"/>
				</defs>
				<clipPath id="SVGID_14_">
					<use xlink:href="#SVGID_13_"  style="overflow:visible;"/>
				</clipPath>
				<g class="st6">
					<defs>
						<path id="SVGID_15_" d="M-238.3-635.8h-35.3c-2.9,0-5.3,2.4-5.3,5.3v35.9c0,2.2,1.3,4.1,3.3,4.9l0.2,0.2v2
							c0,2.5,2.2,4.5,4.9,4.5c2.7,0,4.9-2,4.9-4.5v-1.8h19.4v1.8c0,2.5,2.2,4.5,4.9,4.5c2.7,0,4.9-2,4.9-4.5v-2l0.2-0.2
							c0.8-0.3,1.5-0.8,2-1.4c0.5-0.3,0.8-0.7,0.9-1.3c0.3-0.7,0.5-1.4,0.5-2.2v-35.9C-233-633.4-235.4-635.8-238.3-635.8z
							 M-269-587.5c0,0.7-0.7,1.3-1.6,1.3c-0.9,0-1.6-0.6-1.6-1.3v-1.8h3.2V-587.5z M-239.9-587.5c0,0.7-0.7,1.3-1.6,1.3
							c-0.9,0-1.6-0.6-1.6-1.3v-1.8h3.2V-587.5z M-236.8-594.6c0,0.9-0.7,1.6-1.6,1.6h-35.3c-0.9,0-1.6-0.7-1.6-1.6v-35.9
							c0-0.9,0.7-1.6,1.6-1.6h35.3c0.9,0,1.6,0.7,1.6,1.6V-594.6z"/>
					</defs>
					<clipPath id="SVGID_16_">
						<use xlink:href="#SVGID_15_"  style="overflow:visible;"/>
					</clipPath>
					<g class="st7">
						<defs>
							<rect id="SVGID_17_" x="-278.9" y="-636.1" width="46" height="54"/>
						</defs>
						<clipPath id="SVGID_18_">
							<use xlink:href="#SVGID_17_"  style="overflow:visible;"/>
						</clipPath>
						<rect x="-283.9" y="-640.8" class="st8" width="55.9" height="62.8"/>
					</g>
				</g>
			</g>
		</g>
	</g>
</g>
<g>
	<defs>
		<path id="SVGID_19_" d="M-241.7-629.4h-28.8c-1.2,0-2.2,1-2.2,2.2v12.5c0,1.2,1,2.2,2.2,2.2h28.8c1.2,0,2.2-1,2.2-2.2v-12.5
			C-239.5-628.5-240.5-629.4-241.7-629.4z M-242.9-616.7c0,0.5-0.4,0.9-0.9,0.9h-24.6c-0.5,0-0.9-0.4-0.9-0.9v-8.7
			c0-0.5,0.4-0.9,0.9-0.9h24.6c0.5,0,0.9,0.4,0.9,0.9V-616.7z"/>
	</defs>
	<clipPath id="SVGID_20_">
		<use xlink:href="#SVGID_19_"  style="overflow:visible;"/>
	</clipPath>
	<g class="st9">
		<defs>
			<rect id="SVGID_21_" x="-695.9" y="-1484.1" width="1440" height="3021"/>
		</defs>
		<clipPath id="SVGID_22_">
			<use xlink:href="#SVGID_21_"  style="overflow:visible;"/>
		</clipPath>
		<rect x="-277.6" y="-634.4" class="st10" width="43.1" height="26.9"/>
	</g>
</g>
<g>
	<defs>
		<path id="SVGID_23_" d="M-243.1-601.6c-1.2,0-2.2,1-2.2,2.2c0,1.2,1,2.1,2.2,2.2c1.2,0,2.2-1,2.2-2.2
			C-240.9-600.6-241.9-601.6-243.1-601.6"/>
	</defs>
	<clipPath id="SVGID_24_">
		<use xlink:href="#SVGID_23_"  style="overflow:visible;"/>
	</clipPath>
	<g class="st11">
		<defs>
			<rect id="SVGID_25_" x="-695.9" y="-1484.1" width="1440" height="3021"/>
		</defs>
		<clipPath id="SVGID_26_">
			<use xlink:href="#SVGID_25_"  style="overflow:visible;"/>
		</clipPath>
		<rect x="-250.3" y="-606.6" class="st12" width="14.3" height="14.3"/>
	</g>
</g>
<g>
	<defs>
		<path id="SVGID_27_" d="M-269-601.6c-1.2,0-2.2,1-2.2,2.2c0,1.2,1,2.1,2.2,2.2c1.2,0,2.2-1,2.2-2.2
			C-266.9-600.6-267.8-601.6-269-601.6"/>
	</defs>
	<clipPath id="SVGID_28_">
		<use xlink:href="#SVGID_27_"  style="overflow:visible;"/>
	</clipPath>
	<g class="st13">
		<defs>
			<rect id="SVGID_29_" x="-695.9" y="-1484.1" width="1440" height="3021"/>
		</defs>
		<clipPath id="SVGID_30_">
			<use xlink:href="#SVGID_29_"  style="overflow:visible;"/>
		</clipPath>
		<rect x="-276.2" y="-606.6" class="st14" width="14.3" height="14.3"/>
	</g>
</g>
<g>
	<defs>
		<rect id="SVGID_31_" x="-278.9" y="-635.8" width="45.9" height="52.8"/>
	</defs>
	<clipPath id="SVGID_32_">
		<use xlink:href="#SVGID_31_"  style="overflow:visible;"/>
	</clipPath>
	<g class="st15">
		<defs>
			<rect id="SVGID_33_" x="-695.9" y="-1484.1" width="1440" height="3021"/>
		</defs>
		<clipPath id="SVGID_34_">
			<use xlink:href="#SVGID_33_"  style="overflow:visible;"/>
		</clipPath>
		<g class="st16">
			<g>
				<defs>
					<rect id="SVGID_35_" x="-278.9" y="-636.1" width="46" height="54"/>
				</defs>
				<clipPath id="SVGID_36_">
					<use xlink:href="#SVGID_35_"  style="overflow:visible;"/>
				</clipPath>
				<g class="st17">
					<defs>
						<path id="SVGID_37_" d="M-238.3-635.8h-35.3c-2.9,0-5.3,2.4-5.3,5.3v35.9c0,2.2,1.3,4.1,3.3,4.9l0.2,0.2v2
							c0,2.5,2.2,4.5,4.9,4.5c2.7,0,4.9-2,4.9-4.5v-1.8h19.4v1.8c0,2.5,2.2,4.5,4.9,4.5c2.7,0,4.9-2,4.9-4.5v-2l0.2-0.2
							c0.8-0.3,1.5-0.8,2-1.4c0.5-0.3,0.8-0.7,0.9-1.3c0.3-0.7,0.5-1.4,0.5-2.2v-35.9C-233-633.4-235.4-635.8-238.3-635.8z
							 M-269-587.5c0,0.7-0.7,1.3-1.6,1.3c-0.9,0-1.6-0.6-1.6-1.3v-1.8h3.2V-587.5z M-239.9-587.5c0,0.7-0.7,1.3-1.6,1.3
							c-0.9,0-1.6-0.6-1.6-1.3v-1.8h3.2V-587.5z M-236.8-594.6c0,0.9-0.7,1.6-1.6,1.6h-35.3c-0.9,0-1.6-0.7-1.6-1.6v-35.9
							c0-0.9,0.7-1.6,1.6-1.6h35.3c0.9,0,1.6,0.7,1.6,1.6V-594.6z"/>
					</defs>
					<clipPath id="SVGID_38_">
						<use xlink:href="#SVGID_37_"  style="overflow:visible;"/>
					</clipPath>
					<g class="st18">
						<defs>
							<rect id="SVGID_39_" x="-278.9" y="-636.1" width="46" height="54"/>
						</defs>
						<clipPath id="SVGID_40_">
							<use xlink:href="#SVGID_39_"  style="overflow:visible;"/>
						</clipPath>
						<rect x="-283.9" y="-640.8" class="st19" width="55.9" height="62.8"/>
					</g>
				</g>
			</g>
		</g>
	</g>
</g>
<g>
	<defs>
		<path id="SVGID_41_" d="M-241.7-629.4h-28.8c-1.2,0-2.2,1-2.2,2.2v12.5c0,1.2,1,2.2,2.2,2.2h28.8c1.2,0,2.2-1,2.2-2.2v-12.5
			C-239.5-628.5-240.5-629.4-241.7-629.4z M-242.9-616.7c0,0.5-0.4,0.9-0.9,0.9h-24.6c-0.5,0-0.9-0.4-0.9-0.9v-8.7
			c0-0.5,0.4-0.9,0.9-0.9h24.6c0.5,0,0.9,0.4,0.9,0.9V-616.7z"/>
	</defs>
	<clipPath id="SVGID_42_">
		<use xlink:href="#SVGID_41_"  style="overflow:visible;"/>
	</clipPath>
	<g class="st20">
		<defs>
			<rect id="SVGID_43_" x="-695.9" y="-1484.1" width="1440" height="3021"/>
		</defs>
		<clipPath id="SVGID_44_">
			<use xlink:href="#SVGID_43_"  style="overflow:visible;"/>
		</clipPath>
		<rect x="-277.6" y="-634.4" class="st21" width="43.1" height="26.9"/>
	</g>
</g>
<g>
	<defs>
		<path id="SVGID_45_" d="M39.4,771.9c-1.2,0-2.2,1-2.2,2.2c0,1.2,1,2.1,2.2,2.2c1.2,0,2.2-1,2.2-2.2
			C41.6,772.9,40.6,771.9,39.4,771.9"/>
	</defs>
	<clipPath id="SVGID_46_">
		<use xlink:href="#SVGID_45_"  style="overflow:visible;"/>
	</clipPath>
	<g class="st22">
		<defs>
			<rect id="SVGID_47_" x="-413.4" y="-110.6" width="1440" height="3021"/>
		</defs>
		<clipPath id="SVGID_48_">
			<use xlink:href="#SVGID_47_"  style="overflow:visible;"/>
		</clipPath>
		<rect x="32.2" y="766.9" class="st23" width="14.3" height="14.3"/>
	</g>
</g>
<g>
	<defs>
		<path id="SVGID_49_" d="M13.5,771.9c-1.2,0-2.2,1-2.2,2.2c0,1.2,1,2.1,2.2,2.2c1.2,0,2.2-1,2.2-2.2
			C15.6,772.9,14.7,771.9,13.5,771.9"/>
	</defs>
	<clipPath id="SVGID_50_">
		<use xlink:href="#SVGID_49_"  style="overflow:visible;"/>
	</clipPath>
	<g class="st24">
		<defs>
			<rect id="SVGID_51_" x="-413.4" y="-110.6" width="1440" height="3021"/>
		</defs>
		<clipPath id="SVGID_52_">
			<use xlink:href="#SVGID_51_"  style="overflow:visible;"/>
		</clipPath>
		<rect x="6.3" y="766.9" class="st25" width="14.3" height="14.3"/>
	</g>
</g>
<g>
	<defs>
		<rect id="SVGID_53_" x="3.6" y="737.7" width="45.9" height="52.8"/>
	</defs>
	<clipPath id="SVGID_54_">
		<use xlink:href="#SVGID_53_"  style="overflow:visible;"/>
	</clipPath>
	<g class="st26">
		<defs>
			<rect id="SVGID_55_" x="-413.4" y="-110.6" width="1440" height="3021"/>
		</defs>
		<clipPath id="SVGID_56_">
			<use xlink:href="#SVGID_55_"  style="overflow:visible;"/>
		</clipPath>
		<g class="st27">
			<g>
				<defs>
					<rect id="SVGID_57_" x="3.6" y="737.4" width="46" height="54"/>
				</defs>
				<clipPath id="SVGID_58_">
					<use xlink:href="#SVGID_57_"  style="overflow:visible;"/>
				</clipPath>
				<g class="st28">
					<defs>
						<path id="SVGID_59_" d="M44.2,737.7H8.8c-2.9,0-5.3,2.4-5.3,5.3v35.9c0,2.2,1.3,4.1,3.3,4.9L7,784v2c0,2.5,2.2,4.5,4.9,4.5
							c2.7,0,4.9-2,4.9-4.5v-1.8h19.4v1.8c0,2.5,2.2,4.5,4.9,4.5c2.7,0,4.9-2,4.9-4.5v-2l0.2-0.2c0.8-0.3,1.5-0.8,2-1.4
							c0.5-0.3,0.8-0.7,0.9-1.3c0.3-0.7,0.5-1.4,0.5-2.2V743C49.5,740.1,47.1,737.7,44.2,737.7z M13.5,786c0,0.7-0.7,1.3-1.6,1.3
							c-0.9,0-1.6-0.6-1.6-1.3v-1.8h3.2V786z M42.6,786c0,0.7-0.7,1.3-1.6,1.3c-0.9,0-1.6-0.6-1.6-1.3v-1.8h3.2V786z M45.7,778.9
							c0,0.9-0.7,1.6-1.6,1.6H8.8c-0.9,0-1.6-0.7-1.6-1.6V743c0-0.9,0.7-1.6,1.6-1.6h35.3c0.9,0,1.6,0.7,1.6,1.6V778.9z"/>
					</defs>
					<clipPath id="SVGID_60_">
						<use xlink:href="#SVGID_59_"  style="overflow:visible;"/>
					</clipPath>
					<g class="st29">
						<defs>
							<rect id="SVGID_61_" x="3.6" y="737.4" width="46" height="54"/>
						</defs>
						<clipPath id="SVGID_62_">
							<use xlink:href="#SVGID_61_"  style="overflow:visible;"/>
						</clipPath>
						<rect x="-1.4" y="732.7" class="st30" width="55.9" height="62.8"/>
					</g>
				</g>
			</g>
		</g>
	</g>
</g>
<g>
	<defs>
		<path id="SVGID_63_" d="M40.8,744.1H12c-1.2,0-2.2,1-2.2,2.2v12.5c0,1.2,1,2.2,2.2,2.2h28.8c1.2,0,2.2-1,2.2-2.2v-12.5
			C43,745,42,744.1,40.8,744.1z M39.6,756.8c0,0.5-0.4,0.9-0.9,0.9H14.1c-0.5,0-0.9-0.4-0.9-0.9v-8.7c0-0.5,0.4-0.9,0.9-0.9h24.6
			c0.5,0,0.9,0.4,0.9,0.9V756.8z"/>
	</defs>
	<clipPath id="SVGID_64_">
		<use xlink:href="#SVGID_63_"  style="overflow:visible;"/>
	</clipPath>
	<g class="st31">
		<defs>
			<rect id="SVGID_65_" x="-413.4" y="-110.6" width="1440" height="3021"/>
		</defs>
		<clipPath id="SVGID_66_">
			<use xlink:href="#SVGID_65_"  style="overflow:visible;"/>
		</clipPath>
		<rect x="4.9" y="739.1" class="st32" width="43.1" height="26.9"/>
	</g>
</g>
<g>
	<defs>
		<path id="SVGID_67_" d="M-244.2-601.6c-1.2,0-2.2,1-2.2,2.2c0,1.2,1,2.1,2.2,2.2c1.2,0,2.2-1,2.2-2.2
			C-242-600.6-243-601.6-244.2-601.6"/>
	</defs>
	<clipPath id="SVGID_68_">
		<use xlink:href="#SVGID_67_"  style="overflow:visible;"/>
	</clipPath>
	<g class="st33">
		<defs>
			<rect id="SVGID_69_" x="-697" y="-1484.1" width="1440" height="3021"/>
		</defs>
		<clipPath id="SVGID_70_">
			<use xlink:href="#SVGID_69_"  style="overflow:visible;"/>
		</clipPath>
		<rect x="-251.4" y="-606.6" class="st34" width="14.3" height="14.3"/>
	</g>
</g>
<g>
	<defs>
		<path id="SVGID_71_" d="M-270.1-601.6c-1.2,0-2.2,1-2.2,2.2c0,1.2,1,2.1,2.2,2.2c1.2,0,2.2-1,2.2-2.2
			C-268-600.6-268.9-601.6-270.1-601.6"/>
	</defs>
	<clipPath id="SVGID_72_">
		<use xlink:href="#SVGID_71_"  style="overflow:visible;"/>
	</clipPath>
	<g class="st35">
		<defs>
			<rect id="SVGID_73_" x="-697" y="-1484.1" width="1440" height="3021"/>
		</defs>
		<clipPath id="SVGID_74_">
			<use xlink:href="#SVGID_73_"  style="overflow:visible;"/>
		</clipPath>
		<rect x="-277.3" y="-606.6" class="st36" width="14.3" height="14.3"/>
	</g>
</g>
<g>
	<defs>
		<rect id="SVGID_75_" x="-280" y="-635.8" width="45.9" height="52.8"/>
	</defs>
	<clipPath id="SVGID_76_">
		<use xlink:href="#SVGID_75_"  style="overflow:visible;"/>
	</clipPath>
	<g class="st37">
		<defs>
			<rect id="SVGID_77_" x="-697" y="-1484.1" width="1440" height="3021"/>
		</defs>
		<clipPath id="SVGID_78_">
			<use xlink:href="#SVGID_77_"  style="overflow:visible;"/>
		</clipPath>
		<g class="st38">
			<g>
				<defs>
					<rect id="SVGID_79_" x="-280" y="-636.1" width="46" height="54"/>
				</defs>
				<clipPath id="SVGID_80_">
					<use xlink:href="#SVGID_79_"  style="overflow:visible;"/>
				</clipPath>
				<g class="st39">
					<defs>
						<path id="SVGID_81_" d="M-239.4-635.8h-35.3c-2.9,0-5.3,2.4-5.3,5.3v35.9c0,2.2,1.3,4.1,3.3,4.9l0.2,0.2v2
							c0,2.5,2.2,4.5,4.9,4.5c2.7,0,4.9-2,4.9-4.5v-1.8h19.4v1.8c0,2.5,2.2,4.5,4.9,4.5c2.7,0,4.9-2,4.9-4.5v-2l0.2-0.2
							c0.8-0.3,1.5-0.8,2-1.4c0.5-0.3,0.8-0.7,0.9-1.3c0.3-0.7,0.5-1.4,0.5-2.2v-35.9C-234.1-633.4-236.5-635.8-239.4-635.8z
							 M-270.1-587.5c0,0.7-0.7,1.3-1.6,1.3s-1.6-0.6-1.6-1.3v-1.8h3.2V-587.5z M-241-587.5c0,0.7-0.7,1.3-1.6,1.3
							c-0.9,0-1.6-0.6-1.6-1.3v-1.8h3.2V-587.5z M-237.9-594.6c0,0.9-0.7,1.6-1.6,1.6h-35.3c-0.9,0-1.6-0.7-1.6-1.6v-35.9
							c0-0.9,0.7-1.6,1.6-1.6h35.3c0.9,0,1.6,0.7,1.6,1.6V-594.6z"/>
					</defs>
					<clipPath id="SVGID_82_">
						<use xlink:href="#SVGID_81_"  style="overflow:visible;"/>
					</clipPath>
					<g class="st40">
						<defs>
							<rect id="SVGID_83_" x="-280" y="-636.1" width="46" height="54"/>
						</defs>
						<clipPath id="SVGID_84_">
							<use xlink:href="#SVGID_83_"  style="overflow:visible;"/>
						</clipPath>
						<rect x="-285" y="-640.8" class="st41" width="55.9" height="62.8"/>
					</g>
				</g>
			</g>
		</g>
	</g>
</g>
<g>
	<defs>
		<path id="SVGID_85_" d="M-242.8-629.4h-28.8c-1.2,0-2.2,1-2.2,2.2v12.5c0,1.2,1,2.2,2.2,2.2h28.8c1.2,0,2.2-1,2.2-2.2v-12.5
			C-240.6-628.5-241.6-629.4-242.8-629.4z M-244-616.7c0,0.5-0.4,0.9-0.9,0.9h-24.6c-0.5,0-0.9-0.4-0.9-0.9v-8.7
			c0-0.5,0.4-0.9,0.9-0.9h24.6c0.5,0,0.9,0.4,0.9,0.9V-616.7z"/>
	</defs>
	<clipPath id="SVGID_86_">
		<use xlink:href="#SVGID_85_"  style="overflow:visible;"/>
	</clipPath>
	<g class="st42">
		<defs>
			<rect id="SVGID_87_" x="-697" y="-1484.1" width="1440" height="3021"/>
		</defs>
		<clipPath id="SVGID_88_">
			<use xlink:href="#SVGID_87_"  style="overflow:visible;"/>
		</clipPath>
		<rect x="-278.7" y="-634.4" class="st43" width="43.1" height="26.9"/>
	</g>
</g>
<g>
	<defs>
		<rect id="SVGID_89_" x="-280" y="-635.8" width="45.9" height="52.8"/>
	</defs>
	<clipPath id="SVGID_90_">
		<use xlink:href="#SVGID_89_"  style="overflow:visible;"/>
	</clipPath>
	<g class="st44">
		<defs>
			<rect id="SVGID_91_" x="-697" y="-1484.1" width="1440" height="3021"/>
		</defs>
		<clipPath id="SVGID_92_">
			<use xlink:href="#SVGID_91_"  style="overflow:visible;"/>
		</clipPath>
		<g class="st45">
			<g>
				<defs>
					<rect id="SVGID_93_" x="-280" y="-636.1" width="46" height="54"/>
				</defs>
				<clipPath id="SVGID_94_">
					<use xlink:href="#SVGID_93_"  style="overflow:visible;"/>
				</clipPath>
				<g class="st46">
					<defs>
						<path id="SVGID_95_" d="M-239.4-635.8h-35.3c-2.9,0-5.3,2.4-5.3,5.3v35.9c0,2.2,1.3,4.1,3.3,4.9l0.2,0.2v2
							c0,2.5,2.2,4.5,4.9,4.5c2.7,0,4.9-2,4.9-4.5v-1.8h19.4v1.8c0,2.5,2.2,4.5,4.9,4.5c2.7,0,4.9-2,4.9-4.5v-2l0.2-0.2
							c0.8-0.3,1.5-0.8,2-1.4c0.5-0.3,0.8-0.7,0.9-1.3c0.3-0.7,0.5-1.4,0.5-2.2v-35.9C-234.1-633.4-236.5-635.8-239.4-635.8z
							 M-270.1-587.5c0,0.7-0.7,1.3-1.6,1.3s-1.6-0.6-1.6-1.3v-1.8h3.2V-587.5z M-241-587.5c0,0.7-0.7,1.3-1.6,1.3
							c-0.9,0-1.6-0.6-1.6-1.3v-1.8h3.2V-587.5z M-237.9-594.6c0,0.9-0.7,1.6-1.6,1.6h-35.3c-0.9,0-1.6-0.7-1.6-1.6v-35.9
							c0-0.9,0.7-1.6,1.6-1.6h35.3c0.9,0,1.6,0.7,1.6,1.6V-594.6z"/>
					</defs>
					<clipPath id="SVGID_96_">
						<use xlink:href="#SVGID_95_"  style="overflow:visible;"/>
					</clipPath>
					<g class="st47">
						<defs>
							<rect id="SVGID_97_" x="-280" y="-636.1" width="46" height="54"/>
						</defs>
						<clipPath id="SVGID_98_">
							<use xlink:href="#SVGID_97_"  style="overflow:visible;"/>
						</clipPath>
						<rect x="-285" y="-640.8" class="st48" width="55.9" height="62.8"/>
					</g>
				</g>
			</g>
		</g>
	</g>
</g>
<g>
	<defs>
		<path id="SVGID_99_" d="M-244.2-601.6c-1.2,0-2.2,1-2.2,2.2c0,1.2,1,2.1,2.2,2.2c1.2,0,2.2-1,2.2-2.2
			C-242-600.6-243-601.6-244.2-601.6"/>
	</defs>
	<clipPath id="SVGID_100_">
		<use xlink:href="#SVGID_99_"  style="overflow:visible;"/>
	</clipPath>
	<g class="st49">
		<defs>
			<rect id="SVGID_101_" x="-697" y="-1484.1" width="1440" height="3021"/>
		</defs>
		<clipPath id="SVGID_102_">
			<use xlink:href="#SVGID_101_"  style="overflow:visible;"/>
		</clipPath>
		<rect x="-251.4" y="-606.6" class="st50" width="14.3" height="14.3"/>
	</g>
</g>
<g>
	<defs>
		<path id="SVGID_103_" d="M-270.1-601.6c-1.2,0-2.2,1-2.2,2.2c0,1.2,1,2.1,2.2,2.2c1.2,0,2.2-1,2.2-2.2
			C-268-600.6-268.9-601.6-270.1-601.6"/>
	</defs>
	<clipPath id="SVGID_104_">
		<use xlink:href="#SVGID_103_"  style="overflow:visible;"/>
	</clipPath>
	<g class="st51">
		<defs>
			<rect id="SVGID_105_" x="-697" y="-1484.1" width="1440" height="3021"/>
		</defs>
		<clipPath id="SVGID_106_">
			<use xlink:href="#SVGID_105_"  style="overflow:visible;"/>
		</clipPath>
		<rect x="-277.3" y="-606.6" class="st52" width="14.3" height="14.3"/>
	</g>
</g>
<g>
	<defs>
		<rect id="SVGID_107_" x="-280" y="-635.8" width="45.9" height="52.8"/>
	</defs>
	<clipPath id="SVGID_108_">
		<use xlink:href="#SVGID_107_"  style="overflow:visible;"/>
	</clipPath>
	<g class="st53">
		<defs>
			<rect id="SVGID_109_" x="-697" y="-1484.1" width="1440" height="3021"/>
		</defs>
		<clipPath id="SVGID_110_">
			<use xlink:href="#SVGID_109_"  style="overflow:visible;"/>
		</clipPath>
		<g class="st54">
			<g>
				<defs>
					<rect id="SVGID_111_" x="-280" y="-636.1" width="46" height="54"/>
				</defs>
				<clipPath id="SVGID_112_">
					<use xlink:href="#SVGID_111_"  style="overflow:visible;"/>
				</clipPath>
				<g class="st55">
					<defs>
						<path id="SVGID_113_" d="M-239.4-635.8h-35.3c-2.9,0-5.3,2.4-5.3,5.3v35.9c0,2.2,1.3,4.1,3.3,4.9l0.2,0.2v2
							c0,2.5,2.2,4.5,4.9,4.5c2.7,0,4.9-2,4.9-4.5v-1.8h19.4v1.8c0,2.5,2.2,4.5,4.9,4.5c2.7,0,4.9-2,4.9-4.5v-2l0.2-0.2
							c0.8-0.3,1.5-0.8,2-1.4c0.5-0.3,0.8-0.7,0.9-1.3c0.3-0.7,0.5-1.4,0.5-2.2v-35.9C-234.1-633.4-236.5-635.8-239.4-635.8z
							 M-270.1-587.5c0,0.7-0.7,1.3-1.6,1.3s-1.6-0.6-1.6-1.3v-1.8h3.2V-587.5z M-241-587.5c0,0.7-0.7,1.3-1.6,1.3
							c-0.9,0-1.6-0.6-1.6-1.3v-1.8h3.2V-587.5z M-237.9-594.6c0,0.9-0.7,1.6-1.6,1.6h-35.3c-0.9,0-1.6-0.7-1.6-1.6v-35.9
							c0-0.9,0.7-1.6,1.6-1.6h35.3c0.9,0,1.6,0.7,1.6,1.6V-594.6z"/>
					</defs>
					<clipPath id="SVGID_114_">
						<use xlink:href="#SVGID_113_"  style="overflow:visible;"/>
					</clipPath>
					<g class="st56">
						<defs>
							<rect id="SVGID_115_" x="-280" y="-636.1" width="46" height="54"/>
						</defs>
						<clipPath id="SVGID_116_">
							<use xlink:href="#SVGID_115_"  style="overflow:visible;"/>
						</clipPath>
						<rect x="-285" y="-640.8" class="st57" width="55.9" height="62.8"/>
					</g>
				</g>
			</g>
		</g>
	</g>
</g>
<g>
	<defs>
		<path id="SVGID_117_" d="M-242.8-629.4h-28.8c-1.2,0-2.2,1-2.2,2.2v12.5c0,1.2,1,2.2,2.2,2.2h28.8c1.2,0,2.2-1,2.2-2.2v-12.5
			C-240.6-628.5-241.6-629.4-242.8-629.4z M-244-616.7c0,0.5-0.4,0.9-0.9,0.9h-24.6c-0.5,0-0.9-0.4-0.9-0.9v-8.7
			c0-0.5,0.4-0.9,0.9-0.9h24.6c0.5,0,0.9,0.4,0.9,0.9V-616.7z"/>
	</defs>
	<clipPath id="SVGID_118_">
		<use xlink:href="#SVGID_117_"  style="overflow:visible;"/>
	</clipPath>
	<g class="st58">
		<defs>
			<rect id="SVGID_119_" x="-697" y="-1484.1" width="1440" height="3021"/>
		</defs>
		<clipPath id="SVGID_120_">
			<use xlink:href="#SVGID_119_"  style="overflow:visible;"/>
		</clipPath>
		<rect x="-278.7" y="-634.4" class="st59" width="43.1" height="26.9"/>
	</g>
</g>
<g>
	<defs>
		<path id="SVGID_121_" d="M35.8,34.2c-1.2,0-2.2,1-2.2,2.2c0,1.2,1,2.2,2.2,2.2c1.2,0,2.2-1,2.2-2.2C38,35.2,37,34.2,35.8,34.2"/>
	</defs>
	<clipPath id="SVGID_122_">
		<use xlink:href="#SVGID_121_"  style="overflow:visible;"/>
	</clipPath>
	<rect x="28.7" y="29.2" class="st60" width="14.3" height="14.3"/>
</g>
<g>
	<defs>
		<path id="SVGID_123_" d="M9.9,34.2c-1.2,0-2.2,1-2.2,2.2c0,1.2,1,2.2,2.2,2.2c1.2,0,2.2-1,2.2-2.2C12.1,35.2,11.1,34.2,9.9,34.2"
			/>
	</defs>
	<clipPath id="SVGID_124_">
		<use xlink:href="#SVGID_123_"  style="overflow:visible;"/>
	</clipPath>
	<rect x="2.8" y="29.2" class="st61" width="14.3" height="14.3"/>
</g>
<g>
	<defs>
		<rect id="SVGID_125_" width="45.9" height="52.8"/>
	</defs>
	<clipPath id="SVGID_126_">
		<use xlink:href="#SVGID_125_"  style="overflow:visible;"/>
	</clipPath>
	<g class="st62">
		<g>
			<defs>
				<rect id="SVGID_127_" x="0" y="-0.3" width="46" height="54"/>
			</defs>
			<clipPath id="SVGID_128_">
				<use xlink:href="#SVGID_127_"  style="overflow:visible;"/>
			</clipPath>
			<g class="st63">
				<defs>
					<path id="SVGID_129_" d="M40.6,0H5.3C2.4,0,0,2.4,0,5.3v35.9c0,2.2,1.3,4.1,3.3,4.9l0.2,0.2v2c0,2.5,2.2,4.5,4.9,4.5
						c2.7,0,4.9-2,4.9-4.5v-1.8h19.4v1.8c0,2.5,2.2,4.5,4.9,4.5c2.7,0,4.9-2,4.9-4.5v-2l0.2-0.2c0.8-0.3,1.5-0.8,2-1.4
						c0.5-0.3,0.8-0.7,0.9-1.3c0.3-0.7,0.5-1.4,0.5-2.2V5.3C45.9,2.4,43.5,0,40.6,0z M9.9,48.3c0,0.7-0.7,1.3-1.6,1.3
						c-0.9,0-1.6-0.6-1.6-1.3v-1.8h3.2V48.3z M39.1,48.3c0,0.7-0.7,1.3-1.6,1.3c-0.9,0-1.6-0.6-1.6-1.3v-1.8h3.2V48.3z M42.2,41.2
						c0,0.9-0.7,1.6-1.6,1.6H5.3c-0.9,0-1.6-0.7-1.6-1.6V5.3c0-0.9,0.7-1.6,1.6-1.6h35.3c0.9,0,1.6,0.7,1.6,1.6V41.2z"/>
				</defs>
				<clipPath id="SVGID_130_">
					<use xlink:href="#SVGID_129_"  style="overflow:visible;"/>
				</clipPath>
				<g class="st64">
					<defs>
						<rect id="SVGID_131_" x="0" y="-0.3" width="46" height="54"/>
					</defs>
					<clipPath id="SVGID_132_">
						<use xlink:href="#SVGID_131_"  style="overflow:visible;"/>
					</clipPath>
					<rect x="-5" y="-5" class="st65" width="55.9" height="62.8"/>
				</g>
			</g>
		</g>
	</g>
</g>
<g>
	<defs>
		<path id="SVGID_133_" d="M37.3,6.4H8.5c-1.2,0-2.2,1-2.2,2.2v12.5c0,1.2,1,2.2,2.2,2.2h28.8c1.2,0,2.2-1,2.2-2.2V8.5
			C39.5,7.3,38.5,6.4,37.3,6.4z M36,19.2c0,0.5-0.4,0.9-0.9,0.9H10.6c-0.5,0-0.9-0.4-0.9-0.9v-8.7c0-0.5,0.4-0.9,0.9-0.9h24.6
			c0.5,0,0.9,0.4,0.9,0.9V19.2z"/>
	</defs>
	<clipPath id="SVGID_134_">
		<use xlink:href="#SVGID_133_"  style="overflow:visible;"/>
	</clipPath>
	<rect x="1.3" y="1.4" class="st66" width="43.1" height="26.9"/>
</g>
</svg>
