<?xml version="1.0" encoding="utf-8"?>
<!-- Generator: Adobe Illustrator 24.0.3, SVG Export Plug-In . SVG Version: 6.00 Build 0)  -->
<svg version="1.1" id="Layer_1" xmlns="http://www.w3.org/2000/svg" xmlns:xlink="http://www.w3.org/1999/xlink" x="0px" y="0px"
	 viewBox="0 0 41 54" style="enable-background:new 0 0 41 54;" xml:space="preserve">
<style type="text/css">
	.st0{clip-path:url(#SVGID_2_);fill:#0C0B68;}
</style>
<g>
	<defs>
		<path id="SVGID_1_" d="M40.5,51.1c0.7,0.7,0.7,1.7,0,2.4c-0.3,0.3-0.8,0.5-1.2,0.5c-0.4,0-0.9-0.2-1.2-0.5l-6.3-6.3H9.3l-6.3,6.3
			C2.6,53.8,2.2,54,1.7,54c-0.4,0-0.9-0.2-1.2-0.5c-0.7-0.7-0.7-1.7,0-2.4l3.9-3.9h-1c-1.9,0-3.4-1.5-3.4-3.4V20.2
			C0,9.1,9.2,0,20.5,0S41,9.1,41,20.2v23.6c0,1.9-1.5,3.4-3.4,3.4h-1L40.5,51.1z M3.4,20.2v23.6h34.2l0-23.6
			c0-9.3-7.7-16.9-17.1-16.9C11.1,3.4,3.4,10.9,3.4,20.2z M10.3,27C9,27,8,26.1,8,25l1.8-12.9c0.2-1.1,1-2,2.3-2H29
			c1.3,0,2.1,0.8,2.3,2L33,25c0,1.1-1,2-2.3,2H10.3z M13,13.5l-1.4,10.1h17.8L28,13.5H13z M9.1,37.1c-1.3,0-2.3-1-2.3-2.2
			c0-1.2,1-2.2,2.3-2.2c1.3,0,2.3,1,2.3,2.2C11.4,36.1,10.4,37.1,9.1,37.1z M31.9,37.1c-1.3,0-2.3-1-2.3-2.2c0-1.2,1-2.2,2.3-2.2
			c1.3,0,2.3,1,2.3,2.2C34.2,36.1,33.1,37.1,31.9,37.1z"/>
	</defs>
	<clipPath id="SVGID_2_">
		<use xlink:href="#SVGID_1_"  style="overflow:visible;"/>
	</clipPath>
	<rect x="-5" y="-5" class="st0" width="51" height="64"/>
</g>
</svg>
