<?xml version="1.0" encoding="utf-8"?>
<!-- Generator: Adobe Illustrator 24.0.3, SVG Export Plug-In . SVG Version: 6.00 Build 0)  -->
<svg version="1.1" id="Layer_1" xmlns="http://www.w3.org/2000/svg" xmlns:xlink="http://www.w3.org/1999/xlink" x="0px" y="0px"
	 viewBox="0 0 41.1 57.6" style="enable-background:new 0 0 41.1 57.6;" xml:space="preserve">
<style type="text/css">
	.st0{clip-path:url(#SVGID_2_);}
	.st1{clip-path:url(#SVGID_4_);fill:#0C0B68;}
	.st2{clip-path:url(#SVGID_6_);}
	.st3{clip-path:url(#SVGID_8_);fill:#0C0B68;}
	.st4{clip-path:url(#SVGID_10_);}
	.st5{clip-path:url(#SVGID_12_);enable-background:new    ;}
	.st6{clip-path:url(#SVGID_14_);}
	.st7{clip-path:url(#SVGID_16_);}
	.st8{clip-path:url(#SVGID_18_);fill:#0C0B68;}
	.st9{clip-path:url(#SVGID_20_);}
	.st10{clip-path:url(#SVGID_22_);fill:#0C0B68;}
	.st11{clip-path:url(#SVGID_24_);}
	.st12{clip-path:url(#SVGID_26_);fill:#0C0B68;}
	.st13{clip-path:url(#SVGID_28_);}
	.st14{clip-path:url(#SVGID_30_);fill:#0C0B68;}
	.st15{clip-path:url(#SVGID_32_);}
	.st16{clip-path:url(#SVGID_34_);enable-background:new    ;}
	.st17{clip-path:url(#SVGID_36_);}
	.st18{clip-path:url(#SVGID_38_);}
	.st19{clip-path:url(#SVGID_40_);fill:#0C0B68;}
	.st20{clip-path:url(#SVGID_42_);}
	.st21{clip-path:url(#SVGID_44_);fill:#0C0B68;}
	.st22{clip-path:url(#SVGID_46_);}
	.st23{clip-path:url(#SVGID_48_);fill:#0C0B68;}
	.st24{clip-path:url(#SVGID_50_);}
	.st25{clip-path:url(#SVGID_52_);fill:#0C0B68;}
	.st26{clip-path:url(#SVGID_54_);}
	.st27{clip-path:url(#SVGID_56_);enable-background:new    ;}
	.st28{clip-path:url(#SVGID_58_);}
	.st29{clip-path:url(#SVGID_60_);}
	.st30{clip-path:url(#SVGID_62_);fill:#0C0B68;}
	.st31{clip-path:url(#SVGID_64_);}
	.st32{clip-path:url(#SVGID_66_);fill:#0C0B68;}
	.st33{clip-path:url(#SVGID_68_);}
	.st34{clip-path:url(#SVGID_70_);fill:#0C0B68;}
	.st35{clip-path:url(#SVGID_72_);}
	.st36{clip-path:url(#SVGID_74_);fill:#0C0B68;}
	.st37{clip-path:url(#SVGID_76_);}
	.st38{clip-path:url(#SVGID_78_);enable-background:new    ;}
	.st39{clip-path:url(#SVGID_80_);}
	.st40{clip-path:url(#SVGID_82_);}
	.st41{clip-path:url(#SVGID_84_);fill:#0C0B68;}
	.st42{clip-path:url(#SVGID_86_);}
	.st43{clip-path:url(#SVGID_88_);fill:#0C0B68;}
	.st44{clip-path:url(#SVGID_90_);}
	.st45{clip-path:url(#SVGID_92_);enable-background:new    ;}
	.st46{clip-path:url(#SVGID_94_);}
	.st47{clip-path:url(#SVGID_96_);}
	.st48{clip-path:url(#SVGID_98_);fill:#0C0B68;}
	.st49{clip-path:url(#SVGID_100_);}
	.st50{clip-path:url(#SVGID_102_);fill:#0C0B68;}
	.st51{clip-path:url(#SVGID_104_);}
	.st52{clip-path:url(#SVGID_106_);fill:#0C0B68;}
	.st53{clip-path:url(#SVGID_108_);}
	.st54{clip-path:url(#SVGID_110_);enable-background:new    ;}
	.st55{clip-path:url(#SVGID_112_);}
	.st56{clip-path:url(#SVGID_114_);}
	.st57{clip-path:url(#SVGID_116_);fill:#0C0B68;}
	.st58{clip-path:url(#SVGID_118_);}
	.st59{clip-path:url(#SVGID_120_);fill:#0C0B68;}
	.st60{clip-path:url(#SVGID_122_);fill:#0C0B68;}
</style>
<g>
	<defs>
		<path id="SVGID_1_" d="M-245.3-599.5c-1.2,0-2.2,1-2.2,2.2c0,1.2,1,2.2,2.2,2.2c1.2,0,2.2-1,2.2-2.2
			C-243.2-598.5-244.1-599.5-245.3-599.5"/>
	</defs>
	<clipPath id="SVGID_2_">
		<use xlink:href="#SVGID_1_"  style="overflow:visible;"/>
	</clipPath>
	<g class="st0">
		<defs>
			<rect id="SVGID_3_" x="-698.2" y="-1481.9" width="1440" height="3021"/>
		</defs>
		<clipPath id="SVGID_4_">
			<use xlink:href="#SVGID_3_"  style="overflow:visible;"/>
		</clipPath>
		<rect x="-252.5" y="-604.5" class="st1" width="14.3" height="14.3"/>
	</g>
</g>
<g>
	<defs>
		<path id="SVGID_5_" d="M-271.2-599.5c-1.2,0-2.2,1-2.2,2.2c0,1.2,1,2.2,2.2,2.2c1.2,0,2.2-1,2.2-2.2
			C-269.1-598.5-270.1-599.5-271.2-599.5"/>
	</defs>
	<clipPath id="SVGID_6_">
		<use xlink:href="#SVGID_5_"  style="overflow:visible;"/>
	</clipPath>
	<g class="st2">
		<defs>
			<rect id="SVGID_7_" x="-698.2" y="-1481.9" width="1440" height="3021"/>
		</defs>
		<clipPath id="SVGID_8_">
			<use xlink:href="#SVGID_7_"  style="overflow:visible;"/>
		</clipPath>
		<rect x="-278.4" y="-604.5" class="st3" width="14.3" height="14.3"/>
	</g>
</g>
<g>
	<defs>
		<rect id="SVGID_9_" x="-281.2" y="-633.7" width="45.9" height="52.8"/>
	</defs>
	<clipPath id="SVGID_10_">
		<use xlink:href="#SVGID_9_"  style="overflow:visible;"/>
	</clipPath>
	<g class="st4">
		<defs>
			<rect id="SVGID_11_" x="-698.2" y="-1481.9" width="1440" height="3021"/>
		</defs>
		<clipPath id="SVGID_12_">
			<use xlink:href="#SVGID_11_"  style="overflow:visible;"/>
		</clipPath>
		<g class="st5">
			<g>
				<defs>
					<rect id="SVGID_13_" x="-281.2" y="-633.9" width="46" height="54"/>
				</defs>
				<clipPath id="SVGID_14_">
					<use xlink:href="#SVGID_13_"  style="overflow:visible;"/>
				</clipPath>
				<g class="st6">
					<defs>
						<path id="SVGID_15_" d="M-240.6-633.7h-35.3c-2.9,0-5.3,2.4-5.3,5.3v35.9c0,2.2,1.3,4.1,3.3,4.9l0.2,0.2v2
							c0,2.5,2.2,4.5,4.9,4.5c2.7,0,4.9-2,4.9-4.5v-1.8h19.4v1.8c0,2.5,2.2,4.5,4.9,4.5c2.7,0,4.9-2,4.9-4.5v-2l0.2-0.2
							c0.8-0.3,1.5-0.8,2-1.4c0.5-0.3,0.8-0.7,0.9-1.3c0.3-0.7,0.5-1.4,0.5-2.2v-35.9C-235.3-631.3-237.6-633.7-240.6-633.7z
							 M-271.2-585.4c0,0.7-0.7,1.3-1.6,1.3c-0.9,0-1.6-0.6-1.6-1.3v-1.8h3.2V-585.4z M-242.1-585.4c0,0.7-0.7,1.3-1.6,1.3
							c-0.9,0-1.6-0.6-1.6-1.3v-1.8h3.2V-585.4z M-239-592.4c0,0.9-0.7,1.6-1.6,1.6h-35.3c-0.9,0-1.6-0.7-1.6-1.6v-35.9
							c0-0.9,0.7-1.6,1.6-1.6h35.3c0.9,0,1.6,0.7,1.6,1.6V-592.4z"/>
					</defs>
					<clipPath id="SVGID_16_">
						<use xlink:href="#SVGID_15_"  style="overflow:visible;"/>
					</clipPath>
					<g class="st7">
						<defs>
							<rect id="SVGID_17_" x="-281.2" y="-633.9" width="46" height="54"/>
						</defs>
						<clipPath id="SVGID_18_">
							<use xlink:href="#SVGID_17_"  style="overflow:visible;"/>
						</clipPath>
						<rect x="-286.2" y="-638.7" class="st8" width="55.9" height="62.8"/>
					</g>
				</g>
			</g>
		</g>
	</g>
</g>
<g>
	<defs>
		<path id="SVGID_19_" d="M-243.9-627.3h-28.8c-1.2,0-2.2,1-2.2,2.2v12.5c0,1.2,1,2.2,2.2,2.2h28.8c1.2,0,2.2-1,2.2-2.2v-12.5
			C-241.7-626.3-242.7-627.3-243.9-627.3z M-245.2-614.5c0,0.5-0.4,0.9-0.9,0.9h-24.6c-0.5,0-0.9-0.4-0.9-0.9v-8.7
			c0-0.5,0.4-0.9,0.9-0.9h24.6c0.5,0,0.9,0.4,0.9,0.9V-614.5z"/>
	</defs>
	<clipPath id="SVGID_20_">
		<use xlink:href="#SVGID_19_"  style="overflow:visible;"/>
	</clipPath>
	<g class="st9">
		<defs>
			<rect id="SVGID_21_" x="-698.2" y="-1481.9" width="1440" height="3021"/>
		</defs>
		<clipPath id="SVGID_22_">
			<use xlink:href="#SVGID_21_"  style="overflow:visible;"/>
		</clipPath>
		<rect x="-279.9" y="-632.3" class="st10" width="43.1" height="26.9"/>
	</g>
</g>
<g>
	<defs>
		<path id="SVGID_23_" d="M-245.3-599.5c-1.2,0-2.2,1-2.2,2.2c0,1.2,1,2.2,2.2,2.2c1.2,0,2.2-1,2.2-2.2
			C-243.2-598.5-244.1-599.5-245.3-599.5"/>
	</defs>
	<clipPath id="SVGID_24_">
		<use xlink:href="#SVGID_23_"  style="overflow:visible;"/>
	</clipPath>
	<g class="st11">
		<defs>
			<rect id="SVGID_25_" x="-698.2" y="-1481.9" width="1440" height="3021"/>
		</defs>
		<clipPath id="SVGID_26_">
			<use xlink:href="#SVGID_25_"  style="overflow:visible;"/>
		</clipPath>
		<rect x="-252.5" y="-604.5" class="st12" width="14.3" height="14.3"/>
	</g>
</g>
<g>
	<defs>
		<path id="SVGID_27_" d="M-271.2-599.5c-1.2,0-2.2,1-2.2,2.2c0,1.2,1,2.2,2.2,2.2c1.2,0,2.2-1,2.2-2.2
			C-269.1-598.5-270.1-599.5-271.2-599.5"/>
	</defs>
	<clipPath id="SVGID_28_">
		<use xlink:href="#SVGID_27_"  style="overflow:visible;"/>
	</clipPath>
	<g class="st13">
		<defs>
			<rect id="SVGID_29_" x="-698.2" y="-1481.9" width="1440" height="3021"/>
		</defs>
		<clipPath id="SVGID_30_">
			<use xlink:href="#SVGID_29_"  style="overflow:visible;"/>
		</clipPath>
		<rect x="-278.4" y="-604.5" class="st14" width="14.3" height="14.3"/>
	</g>
</g>
<g>
	<defs>
		<rect id="SVGID_31_" x="-281.2" y="-633.7" width="45.9" height="52.8"/>
	</defs>
	<clipPath id="SVGID_32_">
		<use xlink:href="#SVGID_31_"  style="overflow:visible;"/>
	</clipPath>
	<g class="st15">
		<defs>
			<rect id="SVGID_33_" x="-698.2" y="-1481.9" width="1440" height="3021"/>
		</defs>
		<clipPath id="SVGID_34_">
			<use xlink:href="#SVGID_33_"  style="overflow:visible;"/>
		</clipPath>
		<g class="st16">
			<g>
				<defs>
					<rect id="SVGID_35_" x="-281.2" y="-633.9" width="46" height="54"/>
				</defs>
				<clipPath id="SVGID_36_">
					<use xlink:href="#SVGID_35_"  style="overflow:visible;"/>
				</clipPath>
				<g class="st17">
					<defs>
						<path id="SVGID_37_" d="M-240.6-633.7h-35.3c-2.9,0-5.3,2.4-5.3,5.3v35.9c0,2.2,1.3,4.1,3.3,4.9l0.2,0.2v2
							c0,2.5,2.2,4.5,4.9,4.5c2.7,0,4.9-2,4.9-4.5v-1.8h19.4v1.8c0,2.5,2.2,4.5,4.9,4.5c2.7,0,4.9-2,4.9-4.5v-2l0.2-0.2
							c0.8-0.3,1.5-0.8,2-1.4c0.5-0.3,0.8-0.7,0.9-1.3c0.3-0.7,0.5-1.4,0.5-2.2v-35.9C-235.3-631.3-237.6-633.7-240.6-633.7z
							 M-271.2-585.4c0,0.7-0.7,1.3-1.6,1.3c-0.9,0-1.6-0.6-1.6-1.3v-1.8h3.2V-585.4z M-242.1-585.4c0,0.7-0.7,1.3-1.6,1.3
							c-0.9,0-1.6-0.6-1.6-1.3v-1.8h3.2V-585.4z M-239-592.4c0,0.9-0.7,1.6-1.6,1.6h-35.3c-0.9,0-1.6-0.7-1.6-1.6v-35.9
							c0-0.9,0.7-1.6,1.6-1.6h35.3c0.9,0,1.6,0.7,1.6,1.6V-592.4z"/>
					</defs>
					<clipPath id="SVGID_38_">
						<use xlink:href="#SVGID_37_"  style="overflow:visible;"/>
					</clipPath>
					<g class="st18">
						<defs>
							<rect id="SVGID_39_" x="-281.2" y="-633.9" width="46" height="54"/>
						</defs>
						<clipPath id="SVGID_40_">
							<use xlink:href="#SVGID_39_"  style="overflow:visible;"/>
						</clipPath>
						<rect x="-286.2" y="-638.7" class="st19" width="55.9" height="62.8"/>
					</g>
				</g>
			</g>
		</g>
	</g>
</g>
<g>
	<defs>
		<path id="SVGID_41_" d="M-243.9-627.3h-28.8c-1.2,0-2.2,1-2.2,2.2v12.5c0,1.2,1,2.2,2.2,2.2h28.8c1.2,0,2.2-1,2.2-2.2v-12.5
			C-241.7-626.3-242.7-627.3-243.9-627.3z M-245.2-614.5c0,0.5-0.4,0.9-0.9,0.9h-24.6c-0.5,0-0.9-0.4-0.9-0.9v-8.7
			c0-0.5,0.4-0.9,0.9-0.9h24.6c0.5,0,0.9,0.4,0.9,0.9V-614.5z"/>
	</defs>
	<clipPath id="SVGID_42_">
		<use xlink:href="#SVGID_41_"  style="overflow:visible;"/>
	</clipPath>
	<g class="st20">
		<defs>
			<rect id="SVGID_43_" x="-698.2" y="-1481.9" width="1440" height="3021"/>
		</defs>
		<clipPath id="SVGID_44_">
			<use xlink:href="#SVGID_43_"  style="overflow:visible;"/>
		</clipPath>
		<rect x="-279.9" y="-632.3" class="st21" width="43.1" height="26.9"/>
	</g>
</g>
<g>
	<defs>
		<path id="SVGID_45_" d="M37.2,774c-1.2,0-2.2,1-2.2,2.2c0,1.2,1,2.2,2.2,2.2c1.2,0,2.2-1,2.2-2.2C39.3,775,38.4,774,37.2,774"/>
	</defs>
	<clipPath id="SVGID_46_">
		<use xlink:href="#SVGID_45_"  style="overflow:visible;"/>
	</clipPath>
	<g class="st22">
		<defs>
			<rect id="SVGID_47_" x="-415.7" y="-108.4" width="1440" height="3021"/>
		</defs>
		<clipPath id="SVGID_48_">
			<use xlink:href="#SVGID_47_"  style="overflow:visible;"/>
		</clipPath>
		<rect x="30" y="769" class="st23" width="14.3" height="14.3"/>
	</g>
</g>
<g>
	<defs>
		<path id="SVGID_49_" d="M11.3,774c-1.2,0-2.2,1-2.2,2.2c0,1.2,1,2.2,2.2,2.2c1.2,0,2.2-1,2.2-2.2C13.4,775,12.4,774,11.3,774"/>
	</defs>
	<clipPath id="SVGID_50_">
		<use xlink:href="#SVGID_49_"  style="overflow:visible;"/>
	</clipPath>
	<g class="st24">
		<defs>
			<rect id="SVGID_51_" x="-415.7" y="-108.4" width="1440" height="3021"/>
		</defs>
		<clipPath id="SVGID_52_">
			<use xlink:href="#SVGID_51_"  style="overflow:visible;"/>
		</clipPath>
		<rect x="4.1" y="769" class="st25" width="14.3" height="14.3"/>
	</g>
</g>
<g>
	<defs>
		<rect id="SVGID_53_" x="1.3" y="739.8" width="45.9" height="52.8"/>
	</defs>
	<clipPath id="SVGID_54_">
		<use xlink:href="#SVGID_53_"  style="overflow:visible;"/>
	</clipPath>
	<g class="st26">
		<defs>
			<rect id="SVGID_55_" x="-415.7" y="-108.4" width="1440" height="3021"/>
		</defs>
		<clipPath id="SVGID_56_">
			<use xlink:href="#SVGID_55_"  style="overflow:visible;"/>
		</clipPath>
		<g class="st27">
			<g>
				<defs>
					<rect id="SVGID_57_" x="1.3" y="739.6" width="46" height="54"/>
				</defs>
				<clipPath id="SVGID_58_">
					<use xlink:href="#SVGID_57_"  style="overflow:visible;"/>
				</clipPath>
				<g class="st28">
					<defs>
						<path id="SVGID_59_" d="M41.9,739.8H6.6c-2.9,0-5.3,2.4-5.3,5.3v35.9c0,2.2,1.3,4.1,3.3,4.9l0.2,0.2v2c0,2.5,2.2,4.5,4.9,4.5
							c2.7,0,4.9-2,4.9-4.5v-1.8h19.4v1.8c0,2.5,2.2,4.5,4.9,4.5c2.7,0,4.9-2,4.9-4.5v-2l0.2-0.2c0.8-0.3,1.5-0.8,2-1.4
							c0.5-0.3,0.8-0.7,0.9-1.3c0.3-0.7,0.5-1.4,0.5-2.2v-35.9C47.2,742.2,44.9,739.8,41.9,739.8z M11.3,788.1
							c0,0.7-0.7,1.3-1.6,1.3c-0.9,0-1.6-0.6-1.6-1.3v-1.8h3.2V788.1z M40.4,788.1c0,0.7-0.7,1.3-1.6,1.3c-0.9,0-1.6-0.6-1.6-1.3
							v-1.8h3.2V788.1z M43.5,781.1c0,0.9-0.7,1.6-1.6,1.6H6.6c-0.9,0-1.6-0.7-1.6-1.6v-35.9c0-0.9,0.7-1.6,1.6-1.6h35.3
							c0.9,0,1.6,0.7,1.6,1.6V781.1z"/>
					</defs>
					<clipPath id="SVGID_60_">
						<use xlink:href="#SVGID_59_"  style="overflow:visible;"/>
					</clipPath>
					<g class="st29">
						<defs>
							<rect id="SVGID_61_" x="1.3" y="739.6" width="46" height="54"/>
						</defs>
						<clipPath id="SVGID_62_">
							<use xlink:href="#SVGID_61_"  style="overflow:visible;"/>
						</clipPath>
						<rect x="-3.7" y="734.8" class="st30" width="55.9" height="62.8"/>
					</g>
				</g>
			</g>
		</g>
	</g>
</g>
<g>
	<defs>
		<path id="SVGID_63_" d="M38.6,746.2H9.8c-1.2,0-2.2,1-2.2,2.2v12.5c0,1.2,1,2.2,2.2,2.2h28.8c1.2,0,2.2-1,2.2-2.2v-12.5
			C40.8,747.2,39.8,746.2,38.6,746.2z M37.3,759c0,0.5-0.4,0.9-0.9,0.9H11.9c-0.5,0-0.9-0.4-0.9-0.9v-8.7c0-0.5,0.4-0.9,0.9-0.9
			h24.6c0.5,0,0.9,0.4,0.9,0.9V759z"/>
	</defs>
	<clipPath id="SVGID_64_">
		<use xlink:href="#SVGID_63_"  style="overflow:visible;"/>
	</clipPath>
	<g class="st31">
		<defs>
			<rect id="SVGID_65_" x="-415.7" y="-108.4" width="1440" height="3021"/>
		</defs>
		<clipPath id="SVGID_66_">
			<use xlink:href="#SVGID_65_"  style="overflow:visible;"/>
		</clipPath>
		<rect x="2.6" y="741.2" class="st32" width="43.1" height="26.9"/>
	</g>
</g>
<g>
	<defs>
		<path id="SVGID_67_" d="M-246.4-599.5c-1.2,0-2.2,1-2.2,2.2c0,1.2,1,2.2,2.2,2.2c1.2,0,2.2-1,2.2-2.2
			C-244.3-598.5-245.2-599.5-246.4-599.5"/>
	</defs>
	<clipPath id="SVGID_68_">
		<use xlink:href="#SVGID_67_"  style="overflow:visible;"/>
	</clipPath>
	<g class="st33">
		<defs>
			<rect id="SVGID_69_" x="-699.3" y="-1481.9" width="1440" height="3021"/>
		</defs>
		<clipPath id="SVGID_70_">
			<use xlink:href="#SVGID_69_"  style="overflow:visible;"/>
		</clipPath>
		<rect x="-253.6" y="-604.5" class="st34" width="14.3" height="14.3"/>
	</g>
</g>
<g>
	<defs>
		<path id="SVGID_71_" d="M-272.3-599.5c-1.2,0-2.2,1-2.2,2.2c0,1.2,1,2.2,2.2,2.2c1.2,0,2.2-1,2.2-2.2
			C-270.2-598.5-271.2-599.5-272.3-599.5"/>
	</defs>
	<clipPath id="SVGID_72_">
		<use xlink:href="#SVGID_71_"  style="overflow:visible;"/>
	</clipPath>
	<g class="st35">
		<defs>
			<rect id="SVGID_73_" x="-699.3" y="-1481.9" width="1440" height="3021"/>
		</defs>
		<clipPath id="SVGID_74_">
			<use xlink:href="#SVGID_73_"  style="overflow:visible;"/>
		</clipPath>
		<rect x="-279.5" y="-604.5" class="st36" width="14.3" height="14.3"/>
	</g>
</g>
<g>
	<defs>
		<rect id="SVGID_75_" x="-282.3" y="-633.7" width="45.9" height="52.8"/>
	</defs>
	<clipPath id="SVGID_76_">
		<use xlink:href="#SVGID_75_"  style="overflow:visible;"/>
	</clipPath>
	<g class="st37">
		<defs>
			<rect id="SVGID_77_" x="-699.3" y="-1481.9" width="1440" height="3021"/>
		</defs>
		<clipPath id="SVGID_78_">
			<use xlink:href="#SVGID_77_"  style="overflow:visible;"/>
		</clipPath>
		<g class="st38">
			<g>
				<defs>
					<rect id="SVGID_79_" x="-282.3" y="-633.9" width="46" height="54"/>
				</defs>
				<clipPath id="SVGID_80_">
					<use xlink:href="#SVGID_79_"  style="overflow:visible;"/>
				</clipPath>
				<g class="st39">
					<defs>
						<path id="SVGID_81_" d="M-241.7-633.7H-277c-2.9,0-5.3,2.4-5.3,5.3v35.9c0,2.2,1.3,4.1,3.3,4.9l0.2,0.2v2
							c0,2.5,2.2,4.5,4.9,4.5c2.7,0,4.9-2,4.9-4.5v-1.8h19.4v1.8c0,2.5,2.2,4.5,4.9,4.5c2.7,0,4.9-2,4.9-4.5v-2l0.2-0.2
							c0.8-0.3,1.5-0.8,2-1.4c0.5-0.3,0.8-0.7,0.9-1.3c0.3-0.7,0.5-1.4,0.5-2.2v-35.9C-236.4-631.3-238.7-633.7-241.7-633.7z
							 M-272.3-585.4c0,0.7-0.7,1.3-1.6,1.3c-0.9,0-1.6-0.6-1.6-1.3v-1.8h3.2V-585.4z M-243.2-585.4c0,0.7-0.7,1.3-1.6,1.3
							c-0.9,0-1.6-0.6-1.6-1.3v-1.8h3.2V-585.4z M-240.1-592.4c0,0.9-0.7,1.6-1.6,1.6H-277c-0.9,0-1.6-0.7-1.6-1.6v-35.9
							c0-0.9,0.7-1.6,1.6-1.6h35.3c0.9,0,1.6,0.7,1.6,1.6V-592.4z"/>
					</defs>
					<clipPath id="SVGID_82_">
						<use xlink:href="#SVGID_81_"  style="overflow:visible;"/>
					</clipPath>
					<g class="st40">
						<defs>
							<rect id="SVGID_83_" x="-282.3" y="-633.9" width="46" height="54"/>
						</defs>
						<clipPath id="SVGID_84_">
							<use xlink:href="#SVGID_83_"  style="overflow:visible;"/>
						</clipPath>
						<rect x="-287.3" y="-638.7" class="st41" width="55.9" height="62.8"/>
					</g>
				</g>
			</g>
		</g>
	</g>
</g>
<g>
	<defs>
		<path id="SVGID_85_" d="M-245-627.3h-28.8c-1.2,0-2.2,1-2.2,2.2v12.5c0,1.2,1,2.2,2.2,2.2h28.8c1.2,0,2.2-1,2.2-2.2v-12.5
			C-242.8-626.3-243.8-627.3-245-627.3z M-246.3-614.5c0,0.5-0.4,0.9-0.9,0.9h-24.6c-0.5,0-0.9-0.4-0.9-0.9v-8.7
			c0-0.5,0.4-0.9,0.9-0.9h24.6c0.5,0,0.9,0.4,0.9,0.9V-614.5z"/>
	</defs>
	<clipPath id="SVGID_86_">
		<use xlink:href="#SVGID_85_"  style="overflow:visible;"/>
	</clipPath>
	<g class="st42">
		<defs>
			<rect id="SVGID_87_" x="-699.3" y="-1481.9" width="1440" height="3021"/>
		</defs>
		<clipPath id="SVGID_88_">
			<use xlink:href="#SVGID_87_"  style="overflow:visible;"/>
		</clipPath>
		<rect x="-281" y="-632.3" class="st43" width="43.1" height="26.9"/>
	</g>
</g>
<g>
	<defs>
		<rect id="SVGID_89_" x="-282.3" y="-633.7" width="45.9" height="52.8"/>
	</defs>
	<clipPath id="SVGID_90_">
		<use xlink:href="#SVGID_89_"  style="overflow:visible;"/>
	</clipPath>
	<g class="st44">
		<defs>
			<rect id="SVGID_91_" x="-699.3" y="-1481.9" width="1440" height="3021"/>
		</defs>
		<clipPath id="SVGID_92_">
			<use xlink:href="#SVGID_91_"  style="overflow:visible;"/>
		</clipPath>
		<g class="st45">
			<g>
				<defs>
					<rect id="SVGID_93_" x="-282.3" y="-633.9" width="46" height="54"/>
				</defs>
				<clipPath id="SVGID_94_">
					<use xlink:href="#SVGID_93_"  style="overflow:visible;"/>
				</clipPath>
				<g class="st46">
					<defs>
						<path id="SVGID_95_" d="M-241.7-633.7H-277c-2.9,0-5.3,2.4-5.3,5.3v35.9c0,2.2,1.3,4.1,3.3,4.9l0.2,0.2v2
							c0,2.5,2.2,4.5,4.9,4.5c2.7,0,4.9-2,4.9-4.5v-1.8h19.4v1.8c0,2.5,2.2,4.5,4.9,4.5c2.7,0,4.9-2,4.9-4.5v-2l0.2-0.2
							c0.8-0.3,1.5-0.8,2-1.4c0.5-0.3,0.8-0.7,0.9-1.3c0.3-0.7,0.5-1.4,0.5-2.2v-35.9C-236.4-631.3-238.7-633.7-241.7-633.7z
							 M-272.3-585.4c0,0.7-0.7,1.3-1.6,1.3c-0.9,0-1.6-0.6-1.6-1.3v-1.8h3.2V-585.4z M-243.2-585.4c0,0.7-0.7,1.3-1.6,1.3
							c-0.9,0-1.6-0.6-1.6-1.3v-1.8h3.2V-585.4z M-240.1-592.4c0,0.9-0.7,1.6-1.6,1.6H-277c-0.9,0-1.6-0.7-1.6-1.6v-35.9
							c0-0.9,0.7-1.6,1.6-1.6h35.3c0.9,0,1.6,0.7,1.6,1.6V-592.4z"/>
					</defs>
					<clipPath id="SVGID_96_">
						<use xlink:href="#SVGID_95_"  style="overflow:visible;"/>
					</clipPath>
					<g class="st47">
						<defs>
							<rect id="SVGID_97_" x="-282.3" y="-633.9" width="46" height="54"/>
						</defs>
						<clipPath id="SVGID_98_">
							<use xlink:href="#SVGID_97_"  style="overflow:visible;"/>
						</clipPath>
						<rect x="-287.3" y="-638.7" class="st48" width="55.9" height="62.8"/>
					</g>
				</g>
			</g>
		</g>
	</g>
</g>
<g>
	<defs>
		<path id="SVGID_99_" d="M-246.4-599.5c-1.2,0-2.2,1-2.2,2.2c0,1.2,1,2.2,2.2,2.2c1.2,0,2.2-1,2.2-2.2
			C-244.3-598.5-245.2-599.5-246.4-599.5"/>
	</defs>
	<clipPath id="SVGID_100_">
		<use xlink:href="#SVGID_99_"  style="overflow:visible;"/>
	</clipPath>
	<g class="st49">
		<defs>
			<rect id="SVGID_101_" x="-699.3" y="-1481.9" width="1440" height="3021"/>
		</defs>
		<clipPath id="SVGID_102_">
			<use xlink:href="#SVGID_101_"  style="overflow:visible;"/>
		</clipPath>
		<rect x="-253.6" y="-604.5" class="st50" width="14.3" height="14.3"/>
	</g>
</g>
<g>
	<defs>
		<path id="SVGID_103_" d="M-272.3-599.5c-1.2,0-2.2,1-2.2,2.2c0,1.2,1,2.2,2.2,2.2c1.2,0,2.2-1,2.2-2.2
			C-270.2-598.5-271.2-599.5-272.3-599.5"/>
	</defs>
	<clipPath id="SVGID_104_">
		<use xlink:href="#SVGID_103_"  style="overflow:visible;"/>
	</clipPath>
	<g class="st51">
		<defs>
			<rect id="SVGID_105_" x="-699.3" y="-1481.9" width="1440" height="3021"/>
		</defs>
		<clipPath id="SVGID_106_">
			<use xlink:href="#SVGID_105_"  style="overflow:visible;"/>
		</clipPath>
		<rect x="-279.5" y="-604.5" class="st52" width="14.3" height="14.3"/>
	</g>
</g>
<g>
	<defs>
		<rect id="SVGID_107_" x="-282.3" y="-633.7" width="45.9" height="52.8"/>
	</defs>
	<clipPath id="SVGID_108_">
		<use xlink:href="#SVGID_107_"  style="overflow:visible;"/>
	</clipPath>
	<g class="st53">
		<defs>
			<rect id="SVGID_109_" x="-699.3" y="-1481.9" width="1440" height="3021"/>
		</defs>
		<clipPath id="SVGID_110_">
			<use xlink:href="#SVGID_109_"  style="overflow:visible;"/>
		</clipPath>
		<g class="st54">
			<g>
				<defs>
					<rect id="SVGID_111_" x="-282.3" y="-633.9" width="46" height="54"/>
				</defs>
				<clipPath id="SVGID_112_">
					<use xlink:href="#SVGID_111_"  style="overflow:visible;"/>
				</clipPath>
				<g class="st55">
					<defs>
						<path id="SVGID_113_" d="M-241.7-633.7H-277c-2.9,0-5.3,2.4-5.3,5.3v35.9c0,2.2,1.3,4.1,3.3,4.9l0.2,0.2v2
							c0,2.5,2.2,4.5,4.9,4.5c2.7,0,4.9-2,4.9-4.5v-1.8h19.4v1.8c0,2.5,2.2,4.5,4.9,4.5c2.7,0,4.9-2,4.9-4.5v-2l0.2-0.2
							c0.8-0.3,1.5-0.8,2-1.4c0.5-0.3,0.8-0.7,0.9-1.3c0.3-0.7,0.5-1.4,0.5-2.2v-35.9C-236.4-631.3-238.7-633.7-241.7-633.7z
							 M-272.3-585.4c0,0.7-0.7,1.3-1.6,1.3c-0.9,0-1.6-0.6-1.6-1.3v-1.8h3.2V-585.4z M-243.2-585.4c0,0.7-0.7,1.3-1.6,1.3
							c-0.9,0-1.6-0.6-1.6-1.3v-1.8h3.2V-585.4z M-240.1-592.4c0,0.9-0.7,1.6-1.6,1.6H-277c-0.9,0-1.6-0.7-1.6-1.6v-35.9
							c0-0.9,0.7-1.6,1.6-1.6h35.3c0.9,0,1.6,0.7,1.6,1.6V-592.4z"/>
					</defs>
					<clipPath id="SVGID_114_">
						<use xlink:href="#SVGID_113_"  style="overflow:visible;"/>
					</clipPath>
					<g class="st56">
						<defs>
							<rect id="SVGID_115_" x="-282.3" y="-633.9" width="46" height="54"/>
						</defs>
						<clipPath id="SVGID_116_">
							<use xlink:href="#SVGID_115_"  style="overflow:visible;"/>
						</clipPath>
						<rect x="-287.3" y="-638.7" class="st57" width="55.9" height="62.8"/>
					</g>
				</g>
			</g>
		</g>
	</g>
</g>
<g>
	<defs>
		<path id="SVGID_117_" d="M-245-627.3h-28.8c-1.2,0-2.2,1-2.2,2.2v12.5c0,1.2,1,2.2,2.2,2.2h28.8c1.2,0,2.2-1,2.2-2.2v-12.5
			C-242.8-626.3-243.8-627.3-245-627.3z M-246.3-614.5c0,0.5-0.4,0.9-0.9,0.9h-24.6c-0.5,0-0.9-0.4-0.9-0.9v-8.7
			c0-0.5,0.4-0.9,0.9-0.9h24.6c0.5,0,0.9,0.4,0.9,0.9V-614.5z"/>
	</defs>
	<clipPath id="SVGID_118_">
		<use xlink:href="#SVGID_117_"  style="overflow:visible;"/>
	</clipPath>
	<g class="st58">
		<defs>
			<rect id="SVGID_119_" x="-699.3" y="-1481.9" width="1440" height="3021"/>
		</defs>
		<clipPath id="SVGID_120_">
			<use xlink:href="#SVGID_119_"  style="overflow:visible;"/>
		</clipPath>
		<rect x="-281" y="-632.3" class="st59" width="43.1" height="26.9"/>
	</g>
</g>
<g>
	<defs>
		<path id="SVGID_121_" d="M29.6,3.6C29.6,1.6,28,0,26,0H3.6C1.6,0,0,1.6,0,3.6v32.6c0,2,1.6,3.6,3.6,3.6h8.9
			c0.4,3.5,1.2,7.7,4.2,10.4c0.1,0.1,0.2,0.1,0.3,0.2c0.4,0.3,0.7,0.6,0.8,0.8v2.1c0,2,1.7,4.3,3.9,4.3h15.8c2,0,3.6-1.6,3.6-3.6
			V26.5c0.1-1.3,0.8-7.6-11.4-15.8V3.6z M23.4,26.9C23,23,21,21.2,17.8,21.3c-3.6,0.1-5.2,3.3-5.2,5.7v9.3H3.6v-33h22.5v33h-2.7
			V26.9z M37.5,54.2H21.9c0,0-0.4-0.2-0.4-0.8c0-0.6,0-2.2,0-2.2c0-1.7-1.5-2.9-2.2-3.4l-0.1-0.1c-2.1-1.8-2.7-5.8-3-7.9
			c-0.2-1.1,0-13.1,0-13.1c0-1.6,1.1-2.1,1.9-2.1c0.8,0,1.7,0.5,1.7,2l0.3,13.2H26c2,0,3.6-1.6,3.6-3.6v-21
			c8.7,5.9,7.8,10.7,7.9,11.3c0,0,0,0.4,0,0.6V54.2z M5.8,7h18v4h-18V7z"/>
	</defs>
	<clipPath id="SVGID_122_">
		<use xlink:href="#SVGID_121_"  style="overflow:visible;"/>
	</clipPath>
	<rect x="-5" y="-5" class="st60" width="51.1" height="67.6"/>
</g>
</svg>
